<?xml version="1.0" standalone="no"?>
<!DOCTYPE svg PUBLIC "-//W3C//DTD SVG 20010904//EN"
 "http://www.w3.org/TR/2001/REC-SVG-20010904/DTD/svg10.dtd">
<svg version="1.0" xmlns="http://www.w3.org/2000/svg"
 width="1280.000000pt" height="822.000000pt" viewBox="0 0 1280.000000 822.000000"
 preserveAspectRatio="xMidYMid meet">
<metadata>
Created by potrace 1.15, written by Peter Selinger 2001-2017
</metadata>
<g transform="translate(0.000000,822.000000) scale(0.100000,-0.100000)"
fill="#ffffff" stroke="none">
<path d="M8255 8210 c-180 -15 -358 -31 -455 -41 -125 -12 -832 -66 -1030 -79
-201 -13 -387 -32 -683 -71 -93 -12 -95 -13 -382 -156 -214 -107 -234 -119
-292 -180 -53 -55 -62 -69 -57 -90 4 -14 15 -28 25 -30 11 -3 19 -9 19 -13 0
-4 -26 -41 -57 -82 -32 -42 -75 -100 -96 -129 -140 -198 -431 -615 -447 -639
-6 -8 -83 -122 -173 -252 -89 -131 -167 -245 -172 -254 -14 -22 -638 -149
-1025 -209 -377 -59 -814 -200 -1245 -403 -195 -91 -257 -127 -470 -269 -162
-107 -249 -176 -321 -252 l-51 -54 -84 41 c-80 40 -227 82 -334 98 l-50 7 43
14 c57 20 41 34 -23 22 -27 -5 -72 -11 -100 -13 -60 -5 -77 -11 -132 -48 -58
-39 -80 -70 -92 -129 -22 -102 -2 -318 36 -392 24 -47 75 -117 86 -117 5 0 20
-9 34 -20 31 -24 116 -27 168 -6 19 8 35 12 35 9 0 -3 -27 -52 -59 -108 -65
-110 -116 -221 -159 -342 -23 -67 -31 -78 -56 -84 -16 -5 -38 -17 -50 -28 -11
-10 -37 -26 -57 -34 -85 -35 -104 -115 -44 -187 19 -23 35 -48 35 -55 0 -8 9
-17 20 -20 26 -8 25 -22 -5 -220 -31 -202 -33 -332 -4 -395 11 -25 32 -57 46
-72 15 -16 22 -28 16 -28 -6 0 -43 35 -83 77 -110 118 -198 317 -236 533 -21
121 -33 135 -100 120 -63 -14 -112 -48 -155 -108 -32 -44 -34 -53 -37 -137 -5
-118 26 -819 38 -869 14 -63 49 -90 123 -96 l62 -5 85 -121 c94 -132 179 -227
225 -251 17 -9 32 -19 35 -23 5 -7 71 -39 185 -88 39 -17 163 -61 275 -98 113
-36 214 -70 225 -75 11 -5 65 -24 120 -42 98 -33 100 -34 109 -71 14 -59 48
-70 236 -71 95 -1 163 -6 175 -12 11 -7 63 -22 115 -34 52 -12 102 -26 110
-30 31 -17 400 -109 476 -119 44 -6 210 -10 379 -8 l300 3 0 50 c0 44 -3 51
-27 63 -26 12 -28 17 -28 77 0 62 0 64 30 70 28 6 30 10 30 49 l0 43 -100 58
c-55 32 -98 60 -97 62 2 1 50 8 108 13 87 9 197 28 316 55 19 4 24 -1 33 -37
7 -23 13 -51 14 -62 7 -57 85 -270 130 -360 77 -150 157 -247 331 -400 265
-232 561 -358 911 -387 219 -19 459 9 657 75 264 89 539 276 713 486 178 215
290 443 349 710 22 100 31 362 16 469 -13 99 -62 297 -91 372 l-21 52 98 -6
c54 -4 121 -7 149 -7 l51 0 18 -92 c23 -120 88 -349 125 -444 76 -189 212
-419 274 -462 35 -24 131 -31 167 -12 28 15 25 52 -20 224 -75 293 -120 527
-121 618 0 41 3 48 23 53 12 3 76 16 142 30 129 26 697 154 1153 259 155 36
389 93 520 127 130 33 278 71 327 83 99 25 300 83 735 213 157 47 294 87 305
89 11 2 92 28 180 57 88 30 162 54 165 54 3 0 29 8 57 17 29 10 57 15 63 11 5
-3 10 -41 10 -83 0 -194 67 -442 154 -567 40 -58 126 -135 185 -164 33 -17
110 -45 173 -62 258 -72 441 -21 603 168 229 268 350 602 372 1025 l6 117 84
51 c47 27 87 50 90 50 2 0 25 15 50 32 65 47 96 113 91 190 -3 41 0 62 9 70
21 17 15 39 -16 67 -27 25 -29 34 -45 171 -19 171 -70 379 -124 511 -75 184
-203 353 -333 441 -42 28 -51 41 -64 88 -45 156 -216 621 -284 773 -10 23 -42
96 -71 162 -29 66 -72 164 -96 217 -24 54 -44 101 -44 106 0 14 -74 181 -128
288 -102 202 -206 333 -361 455 -52 41 -133 105 -180 143 -47 37 -104 79 -127
92 -71 42 -457 110 -1039 184 -88 11 -194 24 -235 30 -97 13 -1254 21 -1385
10z m928 -10 c160 0 288 -3 285 -6 -6 -5 -233 -32 -679 -78 -134 -14 -284 -30
-334 -36 -53 -6 -449 -11 -960 -13 -478 -1 -843 -1 -810 1 97 5 1322 102 1415
112 178 20 382 28 584 24 115 -2 340 -4 499 -4z m762 -54 c608 -81 967 -149
993 -190 4 -6 43 -38 87 -70 192 -143 303 -242 398 -357 29 -35 125 -199 149
-254 7 -16 15 -32 18 -35 8 -7 80 -170 75 -170 -2 0 -18 26 -36 58 -148 260
-341 496 -512 625 -129 97 -240 141 -447 176 -69 12 -147 26 -175 31 -133 24
-697 90 -835 97 -275 15 -1012 -80 -1275 -163 -102 -32 -280 -114 -371 -170
-39 -24 -74 -44 -78 -44 -4 0 -17 12 -30 27 l-23 27 -31 -23 c-18 -12 -32 -18
-32 -13 0 15 69 74 135 115 33 21 134 85 224 142 146 93 170 105 210 106 25 0
291 27 591 59 619 67 652 68 965 26z m-1801 -95 l150 -6 -80 -51 c-43 -28
-133 -84 -199 -125 -177 -109 -210 -138 -221 -198 -7 -37 -12 -41 -49 -41 -33
0 -33 0 -28 39 7 52 -13 64 -44 25 -12 -16 -23 -37 -23 -46 0 -17 -54 -18
-983 -18 -541 0 -1025 3 -1075 6 -87 7 -92 8 -92 30 0 13 -5 26 -11 29 -12 8
-49 -23 -49 -42 0 -7 -4 -13 -10 -13 -15 0 -12 23 8 47 26 32 126 89 345 197
118 58 219 101 250 107 180 32 534 55 932 62 301 5 1038 4 1179 -2z m1618 -16
c90 -8 213 -22 273 -30 381 -50 635 -86 665 -94 19 -6 66 -17 103 -25 94 -21
219 -79 298 -138 78 -58 227 -209 290 -294 24 -32 47 -61 50 -64 15 -13 132
-196 181 -285 109 -195 340 -719 428 -970 16 -44 42 -117 59 -163 16 -46 40
-117 52 -159 12 -43 23 -83 26 -90 6 -14 -85 20 -189 73 -149 75 -334 120
-541 131 -70 3 -129 9 -131 12 -2 3 -7 36 -11 73 l-7 66 78 6 c133 11 155 25
35 23 -98 -2 -104 -1 -106 18 -3 34 -26 95 -36 95 -9 0 -5 -30 12 -84 10 -31
13 -163 3 -154 -3 3 -7 35 -8 70 -2 35 -8 73 -14 84 -6 12 -9 24 -6 26 12 12
-92 420 -135 530 -27 69 -119 244 -188 353 -210 338 -448 547 -771 678 -86 35
-206 63 -352 81 -69 8 -152 19 -185 23 -91 11 -498 7 -605 -6 -433 -53 -746
-198 -932 -431 -109 -136 -294 -473 -657 -1202 -236 -473 -297 -610 -330 -738
-47 -186 -55 -264 -55 -535 1 -301 23 -576 124 -1523 16 -150 35 -302 42 -338
10 -59 14 -65 32 -60 12 3 83 17 158 31 140 26 233 45 443 90 66 14 174 37
240 51 66 14 154 34 195 44 41 10 131 30 200 44 69 14 175 37 235 50 61 14
164 37 230 51 66 14 206 46 310 70 317 74 416 94 510 105 122 13 123 13 105
-5 -10 -9 -41 -15 -92 -17 -79 -3 -96 -11 -55 -28 12 -5 19 -9 15 -9 -5 -1
-171 -40 -370 -87 -200 -47 -410 -96 -468 -109 -58 -13 -143 -33 -190 -43 -47
-11 -152 -36 -235 -55 -82 -19 -170 -40 -195 -46 -98 -25 -596 -131 -781 -166
-107 -20 -201 -40 -207 -44 -9 -5 -11 -24 -6 -64 6 -53 9 -57 33 -57 65 0 769
155 1246 275 116 29 427 106 692 171 304 74 478 121 470 127 -7 5 -4 6 10 2
28 -8 75 4 66 18 -4 6 2 8 18 4 29 -8 121 14 96 22 -10 4 101 40 255 84 431
123 843 248 880 268 19 10 23 45 9 68 -6 10 -13 10 -28 2 -11 -5 -51 -19 -89
-29 -38 -11 -136 -40 -219 -65 -82 -25 -168 -51 -190 -56 -22 -6 -87 -24 -145
-40 -58 -16 -193 -53 -302 -83 l-196 -54 -4 32 c-4 30 -2 32 42 43 323 78 951
254 1095 306 75 28 85 36 85 78 0 15 5 27 10 27 6 0 10 -28 10 -62 0 -35 3
-93 6 -129 l7 -65 -49 -21 c-78 -34 -484 -162 -959 -303 -536 -159 -540 -160
-695 -200 -69 -17 -154 -40 -190 -50 -136 -40 -990 -239 -1584 -370 l-399 -88
-55 37 c-30 20 -65 43 -78 52 -85 56 -159 163 -304 439 -42 80 -102 192 -134
250 -32 58 -84 150 -114 205 -82 148 -182 290 -266 379 l-75 80 31 65 c16 37
59 131 95 211 99 222 231 504 511 1095 45 94 89 196 99 227 16 49 22 57 48 63
l30 7 -45 14 c-97 30 -592 102 -960 140 -322 32 -448 46 -725 79 -389 46 -685
75 -776 75 -41 0 -84 3 -96 6 -21 6 -20 9 24 75 25 38 47 69 49 69 2 0 1 -13
-2 -29 -8 -37 -2 -39 164 -51 75 -5 169 -14 207 -20 39 -5 147 -17 240 -25
366 -34 1536 -160 1723 -185 40 -6 100 -10 133 -10 75 0 96 18 145 127 l35 77
-23 18 c-41 31 -112 41 -663 88 -55 5 -248 22 -430 39 -181 17 -384 35 -450
41 -66 6 -196 17 -290 25 -93 7 -253 21 -355 30 -102 9 -220 15 -262 13 -43
-3 -78 -3 -78 -1 0 5 177 262 190 276 4 5 3 -9 -3 -32 -13 -49 1 -87 38 -101
14 -5 98 -15 186 -22 147 -11 160 -14 155 -30 -2 -10 7 -39 21 -63 39 -70 88
-57 116 31 l12 40 540 -42 c297 -23 541 -43 542 -43 1 -1 -1 -11 -6 -23 -9
-25 29 -102 58 -118 30 -16 72 19 90 75 l16 49 60 -2 c33 -1 151 -9 261 -19
191 -15 205 -15 255 2 62 20 136 71 171 117 72 97 341 604 393 741 44 118 26
173 -61 195 -47 12 -2092 37 -2182 26 -42 -4 -76 -16 -107 -35 -25 -16 -45
-26 -45 -23 0 4 14 23 31 43 16 20 39 46 49 59 15 18 25 21 47 16 15 -4 34 -7
43 -6 44 5 1055 -1 1580 -9 333 -5 629 -9 659 -9 57 1 108 21 118 45 3 8 20
24 39 36 22 13 34 28 34 43 0 40 243 169 451 240 204 68 768 151 1196 175 13
0 96 -6 185 -14z m-237 -805 c19 -201 49 -504 65 -675 17 -170 35 -346 40
-390 5 -44 34 -381 64 -750 31 -368 62 -749 71 -845 17 -199 38 -471 60 -770
8 -113 16 -214 18 -225 1 -15 -6 -20 -35 -26 -42 -7 -43 -6 -27 19 12 20 14 1
-77 1142 -49 625 -83 1013 -119 1375 -13 132 -26 278 -30 325 -3 47 -15 173
-25 280 -10 107 -24 254 -30 325 -11 123 -35 359 -45 435 -5 39 -22 206 -30
290 -3 36 -11 60 -23 69 -16 13 -16 13 0 8 10 -4 28 -3 40 2 26 10 20 57 83
-589z m-131 518 c7 -18 23 -139 35 -268 12 -129 26 -273 32 -320 5 -47 30
-305 54 -575 63 -680 63 -681 85 -955 11 -135 22 -256 25 -270 3 -14 25 -288
50 -610 25 -322 55 -704 66 -848 17 -212 18 -270 9 -293 -7 -16 -14 -29 -15
-29 -1 0 -38 -9 -81 -20 -44 -10 -135 -30 -204 -44 -69 -14 -197 -41 -285 -61
-927 -210 -1890 -408 -1916 -395 -12 7 -18 40 -28 137 -7 70 -16 166 -21 213
-6 47 -12 110 -15 140 -3 30 -7 73 -10 95 -3 22 -7 63 -10 90 -3 28 -12 109
-19 180 -8 72 -20 195 -26 275 -6 80 -16 179 -21 220 -5 41 -12 215 -15 385
-6 283 -5 323 15 462 24 172 56 277 148 483 81 182 474 957 607 1198 58 106
106 197 106 201 0 5 6 16 13 23 7 7 25 36 41 63 44 77 130 186 179 227 250
207 617 325 1025 327 l163 1 13 -32z m275 22 c255 -18 433 -65 636 -170 188
-98 293 -182 446 -360 86 -100 144 -183 217 -310 59 -105 157 -331 150 -351
-2 -6 -19 32 -38 83 -122 334 -342 620 -616 803 -140 93 -201 124 -327 164
-162 52 -335 82 -497 88 l-146 6 -2 28 c-3 34 -16 32 177 19z m-1801 -84 c-12
-6 -24 -22 -26 -34 -2 -15 -9 -22 -20 -20 -23 4 -19 -52 5 -69 9 -7 12 -13 6
-13 -15 0 -30 21 -38 52 -6 22 0 33 34 67 23 23 46 39 52 35 6 -4 1 -11 -13
-18z m1916 -1 c300 -37 427 -79 637 -212 191 -119 320 -245 442 -427 133 -200
219 -395 283 -646 37 -145 81 -431 69 -450 -3 -5 -1 -11 5 -15 29 -18 -16 320
-66 494 -14 47 -27 95 -31 106 -3 14 -2 17 5 10 6 -5 13 -24 16 -42 4 -18 11
-44 16 -59 30 -78 80 -373 80 -471 0 -67 -3 -83 -15 -83 -8 0 -15 5 -15 10 0
6 5 10 11 10 5 0 7 5 4 10 -9 14 -56 13 -280 -10 -363 -37 -499 -50 -590 -55
-49 -4 -128 -12 -175 -20 -47 -8 -170 -21 -275 -31 -104 -9 -192 -18 -194 -20
-4 -3 30 -387 35 -393 15 -17 15 29 1 157 -26 221 -38 196 106 210 67 7 149
15 182 18 167 13 437 37 670 59 143 14 285 27 315 30 30 2 56 9 58 15 2 5 11
10 19 10 14 0 15 -2 1 -17 -28 -33 -30 -80 -4 -110 21 -24 26 -26 50 -15 27
12 37 38 11 28 -8 -3 -15 0 -15 6 0 7 -5 6 -15 -2 -8 -6 -19 -9 -25 -5 -19 12
-10 25 16 25 20 0 25 4 20 16 -6 15 -4 15 10 3 14 -12 16 -9 12 21 -2 30 0 35
19 38 13 2 33 -4 45 -12 21 -15 21 -16 3 -17 -11 -1 -29 -1 -40 -1 -16 1 -16
0 -3 -4 14 -5 15 -9 5 -31 -9 -21 -8 -27 5 -37 17 -12 12 -105 -26 -536 -2
-25 -7 -88 -11 -140 -3 -52 -13 -162 -20 -245 -8 -82 -21 -267 -30 -410 -26
-438 -25 -429 -68 -456 -17 -10 -45 -21 -62 -24 -16 -4 -75 -19 -130 -35 -195
-56 -915 -247 -948 -252 -28 -4 -31 15 -51 287 -9 116 -20 262 -26 325 -5 63
-14 178 -20 255 -6 77 -18 214 -26 305 -9 91 -18 201 -20 245 -3 44 -12 141
-21 215 -8 74 -19 194 -24 265 -5 72 -11 159 -13 195 -3 36 -12 126 -21 200
-17 152 -19 169 -40 435 -9 105 -22 255 -30 335 -27 254 -48 478 -78 818 l-13
142 75 0 c42 0 130 -7 195 -15z m-2080 -164 c-7 -8 -32 32 -38 62 -7 33 1 75
18 96 8 11 13 -5 18 -70 4 -46 5 -85 2 -88z m-2210 51 c3 -6 2 -13 -3 -17 -11
-6 -41 45 -41 70 0 9 5 26 12 38 11 20 13 18 19 -29 4 -29 9 -57 13 -62z
m2416 74 c0 -14 -8 -27 -17 -31 -15 -5 -16 -4 -5 6 6 7 12 21 12 31 0 10 2 18
5 18 3 0 5 -11 5 -24z m-2500 -52 c0 -16 -26 -19 -35 -4 -4 6 -4 18 -1 27 5
12 9 13 21 3 8 -7 15 -19 15 -26z m30 6 c0 -5 -4 -10 -10 -10 -5 0 -10 5 -10
10 0 6 5 10 10 10 6 0 10 -4 10 -10z m2203 -4 c4 -10 -7 -15 -41 -20 -51 -7
-2043 2 -2079 10 -13 2 -23 9 -23 14 0 7 377 10 1069 10 898 0 1070 -2 1074
-14z m137 -6 c0 -16 -7 -20 -30 -20 -23 0 -30 4 -30 20 0 16 7 20 30 20 23 0
30 -4 30 -20z m80 11 c0 -6 -4 -13 -10 -16 -5 -3 -10 1 -10 9 0 9 5 16 10 16
6 0 10 -4 10 -9z m-2210 -175 c0 -2 -33 -28 -72 -58 -40 -30 -92 -74 -115 -98
-74 -73 -316 -396 -445 -592 -37 -57 -56 -78 -72 -78 -55 1 -49 13 109 236
258 364 331 461 406 537 l57 57 66 0 c36 0 66 -2 66 -4z m864 -16 c5 -5 -10
-14 -33 -20 -53 -14 -78 -39 -87 -86 -11 -57 5 -87 54 -104 48 -16 47 -11 21
-146 l-10 -51 -46 -7 c-25 -3 -88 -6 -140 -6 -84 0 -97 2 -111 21 l-17 20 -55
-24 c-54 -24 -60 -25 -423 -30 -284 -5 -366 -3 -360 6 7 12 145 197 173 231
53 66 78 89 137 127 37 23 89 52 117 66 l51 24 360 -7 c198 -3 364 -10 369
-14z m-1124 -52 c-27 -35 -98 -130 -157 -212 -60 -82 -128 -176 -153 -210 -25
-34 -76 -107 -114 -163 -72 -108 -106 -147 -106 -122 1 43 64 143 349 554 70
100 131 168 176 196 54 34 56 20 5 -43z m1340 53 c0 -15 -19 -23 -38 -16 -14
5 -14 7 -2 15 19 12 40 13 40 1z m604 -6 l188 -6 74 -66 c60 -54 73 -71 68
-87 -10 -35 -197 -403 -269 -532 -100 -180 -147 -233 -228 -261 -34 -12 -68
-12 -216 -2 -97 7 -184 15 -193 18 -12 4 64 54 255 165 149 88 286 169 302
181 17 12 55 35 85 50 74 37 93 54 79 72 -6 7 -17 13 -23 13 -6 0 -90 -45
-186 -100 -95 -55 -178 -100 -184 -100 -5 0 -28 -9 -50 -19 -91 -43 -337 -143
-341 -140 -2 3 9 126 25 274 16 149 30 278 30 287 0 10 12 19 33 23 62 14 84
31 96 79 23 91 9 121 -60 132 -39 7 -50 18 -26 27 12 5 140 3 541 -8z m-707
-1 c-3 -3 -12 -4 -19 -1 -8 3 -5 6 6 6 11 1 17 -2 13 -5z m1031 -15 c33 -11
45 -30 35 -55 -5 -12 -12 -9 -39 17 -19 18 -34 37 -34 41 0 10 1 10 38 -3z
m-1102 -49 c0 -31 5 -46 26 -66 31 -31 48 -25 48 18 0 21 -6 31 -18 35 -14 3
-18 11 -14 30 5 26 5 26 80 19 41 -3 95 -6 119 -6 62 0 82 -23 73 -84 -11 -72
-34 -90 -128 -95 -42 -2 -128 2 -190 9 -101 11 -115 15 -129 36 -19 29 -12 87
13 115 17 19 38 25 90 28 30 1 31 0 30 -39z m21 8 c-3 -8 -6 -5 -6 6 -1 11 2
17 5 13 3 -3 4 -12 1 -19z m1084 -45 c13 -16 12 -17 -3 -4 -10 7 -18 15 -18
17 0 8 8 3 21 -13z m-1049 -25 c-8 -8 -9 -4 -5 13 4 13 8 18 11 10 2 -7 -1
-18 -6 -23z m-80 -159 c-4 -67 -79 -619 -85 -626 -2 -2 -11 -1 -19 2 -12 5
-13 17 -6 68 16 116 59 432 69 512 12 99 18 117 32 112 8 -3 11 -26 9 -68z
m61 54 c3 -5 -1 -48 -8 -98 -7 -49 -16 -121 -20 -160 -11 -120 -45 -399 -50
-412 -2 -7 -14 -13 -25 -13 -24 0 -24 -3 -6 135 9 61 27 198 41 305 14 107 28
207 31 223 5 25 27 37 37 20z m47 0 c-1 -61 -72 -649 -80 -657 -16 -16 -12 62
14 274 14 107 27 215 30 240 11 104 19 150 27 150 5 0 9 -3 9 -7z m52 -58 c-1
-33 -9 -118 -17 -190 -8 -71 -19 -179 -25 -240 -14 -136 -16 -142 -42 -148
-20 -6 -20 -3 -15 51 4 31 9 73 11 92 3 19 15 123 26 230 28 266 29 272 48
268 14 -3 16 -14 14 -63z m-572 -126 c-57 -35 -103 -59 -107 -56 -2 3 22 21
54 40 32 20 60 33 63 31 3 -3 -2 -10 -10 -15z m318 -175 c-26 -211 -39 -290
-48 -305 -7 -11 -84 -8 -467 19 -252 18 -471 36 -486 38 -27 6 -28 7 -11 25
17 19 18 19 36 -1 18 -19 21 -18 281 139 144 87 283 171 308 187 45 29 46 29
225 33 l180 3 -18 -138z m-469 122 c-14 -14 -129 -85 -147 -91 -12 -3 -72 -30
-134 -59 -62 -29 -129 -58 -148 -65 -19 -6 -89 -41 -155 -77 l-120 -66 -105 7
c-58 3 -109 10 -114 15 -11 11 211 330 227 325 7 -2 100 -1 207 3 286 10 495
14 489 8z m1481 -11 c-17 -20 -120 -77 -132 -73 -6 2 20 22 58 45 74 44 93 51
74 28z m-1520 -39 c0 -6 -96 -66 -106 -66 -5 0 16 16 46 35 58 36 60 37 60 31z
m1320 -71 c0 -2 -10 -9 -22 -15 -22 -11 -22 -10 -4 4 21 17 26 19 26 11z
m-1560 -79 c0 -2 -7 -7 -16 -10 -8 -3 -12 -2 -9 4 6 10 25 14 25 6z m-260
-117 c-63 -54 -80 -63 -93 -50 -8 8 -8 11 1 11 7 0 36 16 65 35 63 43 74 44
27 4z m5729 -61 c32 -99 66 -246 59 -254 -3 -2 -13 33 -23 78 -10 46 -31 123
-47 171 -30 94 -30 97 -24 97 2 0 18 -42 35 -92z m-5639 78 c0 -2 -12 -11 -27
-20 l-28 -17 24 20 c23 21 31 25 31 17z m1370 -31 c0 -2 -13 -11 -30 -20 -38
-19 -40 -11 -2 9 31 17 32 18 32 11z m-170 -53 c0 -5 -9 -13 -20 -18 -10 -5
-46 -31 -79 -59 -41 -34 -61 -57 -61 -72 0 -14 -6 -23 -15 -23 -8 0 -15 3 -15
6 0 11 23 49 34 56 6 4 11 13 11 20 0 7 31 32 70 55 76 47 75 47 75 35z
m-1391 -32 c-6 -16 -15 -30 -20 -30 -5 0 -9 -8 -9 -18 0 -11 -10 -27 -22 -38
-23 -19 -23 -19 -5 2 9 11 17 30 17 41 0 17 34 73 45 73 2 0 -1 -13 -6 -30z
m-59 -20 c4 0 6 -9 3 -20 -3 -11 -10 -20 -15 -20 -6 0 -8 7 -4 15 3 8 -3 19
-12 25 -16 11 -15 11 1 6 10 -3 22 -6 27 -6z m1438 -11 c12 -18 11 -20 -5 -17
-10 2 -19 11 -21 21 -5 23 10 21 26 -4z m-187 -52 c-10 -9 -11 -8 -5 6 3 10 9
15 12 12 3 -3 0 -11 -7 -18z m-39 -24 c-6 -2 -10 -9 -6 -14 3 -5 -2 -9 -12 -9
-13 0 -14 3 -4 15 7 8 18 15 24 14 7 0 6 -2 -2 -6z m-1517 -38 c22 -3 272 -26
555 -50 283 -25 562 -49 620 -55 239 -23 437 -42 640 -60 233 -22 320 -36 347
-55 16 -12 16 -15 -1 -59 -26 -68 -75 -116 -117 -116 -19 0 -128 11 -243 25
-229 28 -1200 131 -1606 171 -495 48 -599 60 -606 67 -10 9 12 52 55 106 l34
43 141 -5 c78 -3 159 -8 181 -12z m1531 -22 c-11 -11 -17 4 -9 23 7 18 8 18
11 1 2 -10 1 -21 -2 -24z m31 -5 c-3 -8 -6 -5 -6 6 -1 11 2 17 5 13 3 -3 4
-12 1 -19z m4732 -204 c6 -33 11 -78 11 -101 0 -73 12 -133 26 -133 8 0 14 -4
14 -10 0 -6 31 -10 73 -10 150 0 424 -46 514 -86 l38 -17 -63 -8 c-181 -23
-378 -193 -497 -429 -46 -91 -108 -255 -125 -330 -18 -80 -30 -94 -25 -30 4
49 3 47 -10 -20 -8 -41 -17 -115 -21 -165 -4 -49 -11 -99 -16 -110 -5 -13 -7
1 -3 40 3 33 14 161 24 285 11 124 25 306 31 405 6 99 15 218 19 265 8 84 8
85 11 25 l3 -60 9 63 c9 55 13 65 36 73 43 16 54 29 40 46 -7 9 -26 13 -52 12
-31 -2 -40 1 -37 12 9 39 -1 221 -19 311 -11 57 -20 108 -19 113 1 16 25 -74
38 -141z m-6835 -10 c7 -9 35 -19 66 -23 76 -10 55 -14 -240 -51 -277 -34
-663 -96 -830 -134 -890 -200 -1597 -586 -2032 -1109 -97 -117 -238 -349 -220
-361 6 -3 35 41 67 98 161 295 489 613 864 836 350 209 726 365 1137 470 260
67 499 113 749 144 326 41 431 55 555 78 90 16 134 19 208 13 51 -4 92 -9 90
-11 -11 -10 -340 -63 -523 -84 -599 -68 -1279 -265 -1796 -520 -295 -145 -646
-380 -846 -568 -24 -22 -58 -51 -78 -66 -36 -28 -245 -265 -245 -279 0 -19 44
19 93 81 63 79 255 265 346 337 35 28 87 68 115 90 28 23 94 69 146 104 52 35
106 71 120 81 63 42 252 146 396 218 208 103 593 252 774 300 366 98 532 135
730 166 58 9 132 21 165 26 33 5 105 14 160 20 55 6 136 18 180 26 343 63 427
69 560 39 33 -8 123 -19 200 -25 77 -5 167 -14 200 -20 33 -5 81 -10 107 -10
26 0 49 -4 53 -9 7 -12 -11 -14 -371 -51 -311 -32 -570 -65 -644 -81 -25 -6
-112 -21 -195 -35 -82 -14 -211 -38 -285 -55 -164 -37 -308 -69 -335 -73 -77
-13 -622 -189 -815 -263 -112 -43 -400 -173 -490 -222 -362 -195 -569 -345
-793 -575 -110 -113 -282 -353 -210 -295 9 8 32 39 51 69 32 49 134 176 202
251 86 94 386 318 572 425 148 87 418 223 543 274 152 63 532 196 700 245 535
157 1334 295 2025 350 36 3 94 8 130 11 83 9 236 0 412 -22 59 -8 53 -24 -9
-24 -56 0 -480 -46 -548 -60 -27 -5 -144 -24 -260 -41 -115 -17 -311 -51 -435
-74 -208 -40 -638 -133 -650 -140 -5 -3 -43 -13 -300 -82 -174 -46 -596 -190
-797 -273 -291 -120 -596 -277 -807 -416 -53 -35 -152 -107 -252 -184 -123
-94 -468 -459 -451 -477 7 -6 25 14 154 162 159 182 415 397 613 513 30 18 84
51 120 74 139 88 457 243 645 315 50 19 128 49 175 67 434 171 1192 365 1830
470 85 14 178 30 205 36 41 8 696 86 870 103 64 7 281 -16 462 -49 79 -14 147
-23 152 -19 5 3 12 1 16 -5 3 -5 18 -10 32 -10 24 0 25 -2 20 -40 -3 -22 -27
-84 -54 -138 l-48 -97 -129 -22 c-71 -12 -154 -28 -185 -37 -58 -16 -242 -56
-346 -76 -179 -35 -881 -209 -1133 -281 -378 -109 -708 -230 -1012 -371 -246
-114 -350 -173 -584 -327 l-109 -71 -15 30 c-63 130 -344 256 -582 261 l-55 1
41 13 c120 38 103 59 -31 39 -132 -20 -126 -19 -158 -32 -16 -7 -31 -12 -35
-12 -18 0 -117 -108 -133 -145 -54 -122 -43 -375 23 -518 18 -39 36 -74 40
-75 15 -7 8 -29 -17 -52 -51 -48 -26 -109 78 -185 63 -46 61 -52 -69 -250
-172 -261 -323 -566 -445 -900 -28 -76 -57 -150 -64 -165 l-14 -25 -25 58
c-36 79 -62 179 -87 322 -11 66 -31 143 -44 172 l-23 51 28 12 c38 16 63 44
58 67 -3 16 -12 18 -66 15 -43 -3 -62 0 -62 8 0 7 6 10 14 7 10 -4 17 8 25 39
6 25 9 49 7 53 -3 5 11 16 32 25 43 20 76 60 68 83 -5 11 -17 14 -45 11 -26
-2 -37 0 -31 7 4 5 11 34 15 63 5 36 13 57 28 68 22 16 21 16 -10 12 -25 -4
-34 0 -39 14 -6 19 -24 25 -24 8 0 -5 -8 -10 -17 -10 -17 -1 -16 -2 1 -15 17
-13 18 -19 7 -72 -10 -51 -9 -59 6 -70 22 -16 3 -17 -50 -2 -35 9 -37 12 -36
47 1 23 3 29 6 15 7 -35 18 -28 32 18 14 46 6 59 -37 59 -28 0 -186 32 -502
102 -208 46 -237 55 -255 78 -10 14 -34 40 -51 58 -29 29 -90 122 -81 122 2 0
22 -26 45 -57 77 -110 53 -102 604 -208 97 -18 193 -38 213 -44 20 -5 76 -7
123 -4 60 4 84 2 77 -5 -5 -5 -19 -12 -30 -15 -12 -3 -5 -5 16 -6 30 -1 38 3
42 21 7 25 -7 38 -40 38 -17 0 -23 6 -23 23 0 40 -12 67 -29 67 -9 0 -65 30
-126 65 -139 82 -291 159 -470 238 -77 33 -141 65 -143 69 -2 4 -16 8 -30 8
-15 0 -33 4 -41 9 -8 5 -20 7 -27 4 -19 -7 1 -43 24 -43 24 0 417 -177 517
-233 153 -85 210 -124 241 -165 18 -22 34 -39 37 -36 3 3 8 1 12 -5 7 -12 -5
-14 -29 -5 -9 3 -13 10 -10 15 3 5 0 9 -5 9 -6 0 -33 13 -59 30 -54 33 -71 38
-52 15 13 -16 -82 23 -135 55 -16 10 -66 33 -110 50 -44 18 -98 40 -120 50
-164 73 -220 96 -290 118 -98 30 -130 36 -150 28 -14 -5 -13 -11 6 -48 30 -60
89 -139 99 -133 5 3 12 0 16 -6 5 -8 3 -9 -6 -4 -8 5 -11 3 -8 -6 2 -7 20 -15
39 -16 l34 -3 -26 22 c-27 25 -101 139 -94 146 13 13 59 -36 86 -91 36 -72 56
-97 77 -97 12 0 12 3 2 15 -9 10 -9 15 -1 15 6 0 11 -5 11 -10 0 -18 82 -47
166 -61 96 -15 141 -31 64 -22 -30 3 -107 19 -170 36 -63 17 -134 32 -157 35
-29 3 -43 9 -43 19 0 8 -16 29 -35 46 -19 17 -35 37 -35 44 0 7 -12 32 -26 55
-26 41 -27 41 -39 19 -10 -20 -13 -21 -18 -7 -9 23 1 43 26 51 19 6 20 8 5 12
-22 6 -23 0 7 107 14 49 20 85 14 79 -13 -13 -69 -206 -69 -238 0 -12 9 -34
21 -49 11 -14 17 -26 12 -26 -4 0 0 -5 10 -11 16 -9 18 -19 13 -54 -5 -30 -2
-53 10 -79 18 -37 21 -39 63 -40 18 -1 27 -11 40 -46 10 -28 29 -53 50 -67 36
-24 56 -30 46 -13 -4 6 21 10 69 10 73 0 75 -1 93 -30 9 -16 24 -30 33 -30 9
0 20 -4 26 -9 9 -10 80 -27 259 -61 141 -28 145 -29 145 -41 0 -8 -4 -8 -12
-2 -7 6 -40 13 -73 17 -33 4 -103 16 -155 27 -52 11 -126 26 -165 34 -84 16
-236 52 -287 69 -27 9 -51 30 -90 80 -29 38 -59 79 -66 92 -7 13 -20 24 -28
24 -18 0 -18 9 3 32 11 13 12 18 3 18 -9 0 -11 13 -6 50 6 48 -5 69 -18 34 -9
-25 -7 -142 5 -214 10 -61 9 -65 -13 -81 -12 -10 -19 -21 -15 -26 5 -4 11 -3
15 3 4 6 17 16 29 22 12 7 24 24 26 39 3 22 4 20 6 -10 1 -28 -4 -39 -16 -44
-39 -14 -44 -24 -27 -52 10 -14 24 -36 32 -48 8 -13 12 -23 9 -23 -3 0 -16 17
-28 37 -13 20 -25 31 -27 25 -2 -6 6 -25 17 -41 17 -24 20 -42 19 -111 -1 -61
2 -84 13 -91 27 -17 39 -10 39 26 0 36 -15 48 -23 18 -3 -10 -5 1 -6 25 0 23
3 42 7 42 14 0 36 -53 33 -78 -2 -13 3 -31 11 -40 7 -9 19 -28 26 -41 l14 -24
-39 23 c-21 13 -42 27 -48 32 -12 11 -35 10 -35 -1 0 -5 10 -11 23 -15 13 -3
44 -26 69 -51 71 -69 149 -101 478 -190 74 -20 137 -38 138 -40 2 -2 -2 -36
-9 -75 -11 -55 -17 -70 -29 -67 -8 2 -69 19 -135 36 -183 49 -364 109 -411
136 -25 15 -72 62 -114 116 -68 86 -73 90 -93 76 -18 -12 -23 -26 -25 -76 -2
-33 -7 -61 -12 -61 -12 0 -68 72 -80 104 -27 73 16 469 67 611 31 85 83 286
78 296 -5 7 26 100 63 194 23 58 136 278 162 315 9 14 20 34 24 44 3 10 9 17
11 14 3 -2 -6 -37 -19 -76 -48 -142 -107 -490 -78 -456 5 5 14 51 21 102 47
369 181 644 448 918 98 100 118 118 248 219 195 152 495 324 755 434 41 18 84
37 95 43 17 10 74 31 280 105 229 83 543 163 765 197 168 26 518 89 690 126
52 11 127 26 165 34 39 8 72 14 74 15 2 1 9 -6 15 -15z m6886 -200 c0 -8 -4
-12 -10 -9 -5 3 -10 10 -10 16 0 5 5 9 10 9 6 0 10 -7 10 -16z m-131 -38 c-12
-10 -60 -16 -54 -6 3 5 18 10 32 10 15 0 24 -2 22 -4z m-162 -12 c-3 -3 -12
-4 -19 -1 -8 3 -5 6 6 6 11 1 17 -2 13 -5z m33 -4 c0 -5 -2 -10 -4 -10 -3 0
-8 5 -11 10 -3 6 -1 10 4 10 6 0 11 -4 11 -10z m-97 -7 c-13 -2 -35 -2 -50 0
-16 2 -5 4 22 4 28 0 40 -2 28 -4z m-150 -10 c-7 -2 -19 -2 -25 0 -7 3 -2 5
12 5 14 0 19 -2 13 -5z m-138 -12 c-6 -5 -59 -11 -120 -14 l-110 -5 115 12
c63 7 117 14 120 15 2 0 0 -3 -5 -8z m78 2 c-7 -2 -21 -2 -30 0 -10 3 -4 5 12
5 17 0 24 -2 18 -5z m387 3 c0 -2 -7 -6 -15 -10 -8 -3 -15 -1 -15 4 0 6 7 10
15 10 8 0 15 -2 15 -4z m-770 -37 c-41 -4 -92 -10 -114 -13 -21 -2 -35 -1 -30
4 9 9 79 16 169 17 37 0 31 -2 -25 -8z m955 -8 c-40 -16 -75 -21 -75 -12 0 9
31 17 75 19 l20 1 -20 -8z m-1137 -8 c-10 -2 -28 -2 -40 0 -13 2 -5 4 17 4 22
1 32 -1 23 -4z m1052 -9 c0 -8 -4 -12 -10 -9 -5 3 -10 10 -10 16 0 5 5 9 10 9
6 0 10 -7 10 -16z m-1325 -14 c-3 -5 -25 -9 -48 -8 l-42 1 45 7 c25 4 46 8 48
8 2 1 0 -2 -3 -8z m2080 -25 c135 -24 162 -35 280 -115 153 -104 269 -275 357
-530 17 -47 31 -94 33 -105 2 -11 13 -67 25 -125 23 -114 50 -312 50 -372 0
-69 -100 -153 -306 -256 -344 -171 -640 -252 -1198 -327 -27 -4 -55 -9 -63
-12 -32 -12 5 596 53 877 33 191 107 421 185 572 39 73 121 189 140 196 5 2 9
9 9 16 0 7 28 33 61 57 34 24 67 49 73 55 24 23 170 80 211 83 6 0 46 -6 90
-14z m-789 -450 c-19 -225 -34 -392 -35 -370 0 22 13 209 29 415 35 433 31
399 36 380 2 -8 -12 -199 -30 -425z m-4356 168 c-17 -32 -49 -96 -70 -143 -20
-47 -85 -186 -142 -310 -58 -124 -119 -254 -136 -290 -16 -36 -49 -108 -72
-160 -23 -52 -71 -156 -106 -231 -35 -75 -64 -141 -64 -147 0 -26 -23 -18 -87
31 -38 28 -76 57 -85 62 -8 6 -40 27 -70 47 -131 88 -382 180 -648 239 -349
77 -471 93 -710 93 -198 0 -229 -2 -390 -31 -182 -33 -309 -66 -420 -110 -111
-44 -282 -124 -362 -169 -43 -24 -80 -44 -83 -44 -19 0 17 25 103 70 53 29
126 69 162 89 258 142 623 275 860 311 63 10 234 38 380 63 146 25 321 50 390
56 381 34 510 49 675 82 201 41 335 103 441 205 75 72 101 114 144 229 l26 70
54 9 c30 4 87 14 125 21 39 7 80 14 93 14 l24 1 -32 -57z m-300 -31 c0 -36
-69 -159 -121 -216 -50 -55 -188 -156 -212 -156 -6 0 1 12 15 28 46 47 97 142
125 231 15 47 30 90 34 95 6 7 105 31 147 35 6 0 12 -7 12 -17z m-201 -84
c-32 -103 -75 -185 -130 -248 -45 -52 -61 -63 -117 -80 -143 -44 -244 -60
-647 -100 -332 -32 -895 -120 -1118 -174 -129 -31 -355 -116 -517 -195 -153
-74 -330 -167 -388 -205 -24 -15 -47 -25 -50 -21 -4 3 -2 9 3 13 52 38 290
191 367 236 95 55 404 201 530 250 35 14 113 45 173 71 125 52 126 53 365 129
226 71 431 130 705 201 273 70 769 183 811 184 l32 1 -19 -62z m-5536 -247
c38 -42 60 -80 71 -121 4 -14 -7 0 -23 31 -28 53 -52 82 -96 114 -17 12 -17
14 -4 15 9 0 33 -18 52 -39z m277 -22 c96 -25 207 -68 221 -86 9 -10 2 -24
-32 -63 -92 -104 -190 -244 -241 -345 -61 -121 -68 -111 -61 83 3 84 1 160 -5
181 -5 20 -15 58 -22 86 -6 27 -24 77 -41 111 -16 34 -29 64 -29 66 0 8 135
-13 210 -33z m-319 19 c8 -7 21 -22 29 -33 8 -11 0 -7 -20 10 -19 17 -37 31
-39 33 -2 1 0 2 5 2 6 0 17 -6 25 -12z m89 2 c0 -5 -2 -10 -4 -10 -3 0 -8 5
-11 10 -3 6 -1 10 4 10 6 0 11 -4 11 -10z m-190 -6 c0 -3 -10 -19 -22 -34 -13
-15 -29 -36 -36 -46 -12 -18 -13 -18 -7 1 12 41 65 105 65 79z m210 -34 c0 -5
-2 -10 -4 -10 -3 0 -8 5 -11 10 -3 6 -1 10 4 10 6 0 11 -4 11 -10z m-187 -15
c-3 -9 -8 -14 -10 -11 -3 3 -2 9 2 15 9 16 15 13 8 -4z m13 -36 c-9 -19 -15
-29 -16 -22 0 18 20 66 25 61 3 -3 -1 -20 -9 -39z m25 -6 c-12 -20 -14 -14 -5
12 4 9 9 14 11 11 3 -2 0 -13 -6 -23z m32 -10 c-7 -3 -14 -14 -14 -26 -1 -18
-2 -19 -6 -4 -5 19 16 52 26 41 3 -4 0 -9 -6 -11z m127 -68 l1 20 8 -20 c4
-11 8 -84 10 -163 2 -111 -1 -153 -14 -192 -21 -64 -38 -75 -19 -13 28 91 9
65 -30 -41 -5 -14 -10 -16 -18 -8 -6 6 -16 8 -22 6 -22 -8 -44 30 -75 131 -23
73 -30 88 -26 55 3 -25 17 -80 32 -122 24 -66 31 -78 50 -78 13 0 23 -4 23
-10 0 -11 -21 -11 -65 0 -16 4 -22 8 -12 9 21 1 17 27 -13 75 -17 28 -18 28
-25 7 -3 -12 -11 -18 -17 -15 -8 5 -9 1 -5 -10 12 -32 -13 -5 -34 36 -15 29
-18 43 -10 51 8 8 11 4 11 -15 0 -15 5 -30 12 -34 8 -5 9 -2 5 10 -4 10 -7 26
-7 37 0 12 -7 19 -20 19 -20 0 -27 20 -13 34 4 4 6 25 4 48 -2 36 -1 40 16 33
10 -4 33 -10 51 -13 l32 -4 2 68 c1 51 3 37 8 -51 7 -115 32 -221 60 -249 19
-19 20 2 1 35 -10 19 -25 59 -31 89 -15 70 -10 284 7 301 10 10 11 5 3 -22 -6
-18 -10 -81 -10 -138 0 -115 20 -209 51 -237 24 -21 27 1 4 26 -25 28 -48 169
-40 244 3 36 10 66 14 66 5 0 4 -25 -2 -57 -10 -58 4 -156 24 -169 11 -7 7 59
-6 88 -4 9 -3 23 2 30 4 7 8 24 9 38 2 77 5 90 20 90 12 0 14 9 10 48 l-6 47
24 -50 c16 -33 25 -43 26 -30z m-288 30 c-6 -35 -19 -31 -14 5 2 16 8 28 12
25 4 -2 5 -16 2 -30z m228 -8 c0 -4 -6 -2 -14 5 -8 7 -12 17 -9 22 5 8 23 -12
23 -27z m-143 -9 c-3 -7 -5 -2 -5 12 0 14 2 19 5 13 2 -7 2 -19 0 -25z m20
-65 c-3 -10 -5 -2 -5 17 0 19 2 27 5 18 2 -10 2 -26 0 -35z m-50 -30 c-3 -10
-5 -2 -5 17 0 19 2 27 5 18 2 -10 2 -26 0 -35z m-57 13 c0 -8 4 -16 9 -18 6
-2 7 -30 2 -73 -5 -38 -9 -56 -11 -40 -2 32 -4 48 -15 108 -5 25 -4 37 4 37 6
0 11 -6 11 -14z m10561 -173 c-13 -192 -21 -267 -28 -259 -4 4 13 284 22 366
1 14 3 38 4 54 0 16 4 26 7 23 4 -3 1 -86 -5 -184z m-10454 130 c-3 -10 -5 -4
-5 12 0 17 2 24 5 18 2 -7 2 -21 0 -30z m243 27 c0 -5 -5 -10 -11 -10 -5 0 -7
5 -4 10 3 6 8 10 11 10 2 0 4 -4 4 -10z m-273 -52 c-3 -8 -6 -5 -6 6 -1 11 2
17 5 13 3 -3 4 -12 1 -19z m283 7 c9 -11 10 -36 4 -96 -13 -120 -31 -113 -31
11 0 55 3 100 7 100 4 0 13 -7 20 -15z m1690 -150 c25 -13 41 -35 25 -35 -12
0 -75 35 -75 42 0 12 18 10 50 -7z m195 -16 c240 -36 445 -134 501 -241 20
-38 17 -125 -6 -175 -36 -81 -167 -184 -315 -248 -90 -39 -159 -65 -163 -61
-2 2 3 15 11 28 61 97 39 415 -39 576 -29 60 -86 122 -112 122 -9 0 -24 5 -32
10 -16 11 32 7 155 -11z m2084 -9 c271 -35 604 -113 821 -191 223 -81 479
-264 643 -459 84 -101 175 -254 407 -690 84 -157 168 -309 187 -338 48 -72
112 -134 192 -186 117 -77 127 -106 38 -106 -49 0 -57 4 -115 53 -73 62 -128
130 -204 252 -65 105 -236 425 -269 505 -13 30 -26 57 -29 60 -3 3 -14 19 -25
35 -37 59 -149 191 -219 258 -120 116 -286 215 -421 252 -82 22 -278 31 -357
16 -131 -26 -379 -138 -458 -208 -8 -7 -51 -41 -95 -75 -119 -92 -242 -216
-379 -378 -255 -304 -365 -470 -553 -835 -237 -460 -293 -533 -466 -615 -320
-153 -831 -128 -1320 64 -144 56 -315 211 -309 279 11 119 119 419 242 672 56
115 194 348 242 409 13 16 34 45 48 65 14 20 50 66 81 103 31 37 59 72 61 78
2 8 18 8 57 -1 37 -8 60 -8 75 -1 11 6 53 13 93 15 119 7 193 64 262 204 19
37 45 84 58 103 13 19 23 48 23 63 0 20 15 45 50 85 27 30 60 80 72 109 l22
54 206 101 c204 100 279 131 355 148 22 5 72 19 110 30 39 12 88 26 110 30
296 61 514 72 764 40z m-2274 -25 c19 -14 35 -31 35 -37 0 -6 -10 -3 -22 8
-34 30 -72 52 -99 57 -13 2 -7 3 14 2 22 -2 52 -14 72 -30z m81 -27 c28 -34
78 -137 70 -145 -6 -6 -46 72 -46 89 0 7 -17 29 -37 50 -20 21 -32 38 -26 38
6 0 24 -15 39 -32z m-2022 -4 c3 -8 2 -12 -4 -9 -6 3 -10 10 -10 16 0 14 7 11
14 -7z m1797 -17 c-10 -9 -11 -8 -5 6 3 10 9 15 12 12 3 -3 0 -11 -7 -18z
m-1575 -19 c-6 -30 -29 -58 -47 -58 -7 0 13 58 28 83 12 20 25 4 19 -25z
m1607 17 c-3 -9 -8 -14 -10 -11 -3 3 -2 9 2 15 9 16 15 13 8 -4z m-1833 -39
c0 -5 -7 -3 -15 4 -8 7 -12 17 -9 22 7 10 24 -9 24 -26z m1870 25 c0 -6 -4
-13 -10 -16 -5 -3 -10 1 -10 9 0 9 5 16 10 16 6 0 10 -4 10 -9z m-1623 -33
c-3 -8 -6 -5 -6 6 -1 11 2 17 5 13 3 -3 4 -12 1 -19z m1523 18 c0 -3 -4 -8
-10 -11 -5 -3 -10 -1 -10 4 0 6 5 11 10 11 6 0 10 -2 10 -4z m130 -11 c-6 -8
-18 -34 -25 -57 -8 -24 -14 -35 -14 -26 -1 26 30 98 41 98 6 0 5 -6 -2 -15z
m129 -47 c25 -43 30 -47 25 -23 -4 20 -3 27 3 20 14 -14 55 -144 48 -154 -3
-5 2 -22 10 -37 23 -44 17 -173 -13 -254 -13 -36 -28 -69 -33 -74 -13 -14 -11
-1 4 37 8 18 17 66 21 107 4 41 9 98 12 125 5 47 4 49 -10 31 -12 -14 -16 -16
-16 -5 0 8 -9 28 -20 44 -20 29 -21 29 -17 5 5 -30 16 -60 30 -78 16 -20 7
-151 -14 -211 -20 -59 -61 -109 -95 -117 -12 -3 -49 2 -81 11 -55 16 -60 19
-60 46 0 16 4 29 9 29 4 0 7 -3 7 -7 -4 -23 3 -41 15 -46 12 -5 12 0 5 26 -14
48 -10 47 12 -2 26 -59 34 -46 15 25 -8 32 -14 60 -12 61 5 5 38 -79 41 -102
2 -20 5 -21 68 -8 33 6 36 20 5 25 -39 5 -60 88 -65 264 -3 83 -1 159 4 168 5
10 9 -37 9 -127 1 -147 20 -253 50 -278 19 -15 19 3 0 39 -18 36 -36 145 -35
218 0 57 15 158 18 121 1 -12 7 -17 19 -15 12 3 17 13 16 36 -1 21 3 32 11 32
24 0 24 16 0 68 -13 29 -22 52 -20 52 2 0 17 -24 34 -52z m-259 -35 c-10 -16
-11 -15 -6 7 3 14 7 36 7 50 2 19 3 18 6 -7 2 -18 -1 -41 -7 -50z m10320 73
c0 -3 -4 -8 -10 -11 -5 -3 -10 -1 -10 4 0 6 5 11 10 11 6 0 10 -2 10 -4z
m-10135 -17 c-4 -6 -10 -8 -13 -5 -3 3 -11 1 -19 -6 -11 -8 -12 -7 -7 6 3 9
15 16 26 16 11 0 16 -5 13 -11z m-1815 -19 c-16 -11 -40 -13 -40 -5 0 8 44 24
50 18 2 -2 -2 -8 -10 -13z m1667 -12 c-3 -7 -5 -2 -5 12 0 14 2 19 5 13 2 -7
2 -19 0 -25z m203 -20 c0 -3 -9 -4 -21 -1 -13 4 -17 9 -10 16 5 5 7 17 5 26
-3 9 2 5 10 -9 8 -14 15 -28 16 -32z m-175 2 c-9 -41 -17 -33 -9 9 4 17 9 30
11 27 3 -2 2 -19 -2 -36z m10200 -147 c-19 -30 -48 -58 -94 -88 -68 -44 -321
-171 -422 -212 -247 -100 -493 -174 -684 -207 -119 -20 -323 -39 -342 -32 -12
5 -13 18 -7 73 3 38 11 71 17 74 5 4 40 10 76 14 201 20 459 71 671 132 327
94 709 287 777 392 l28 45 3 -73 c3 -64 0 -78 -23 -118z m-10298 85 c-3 -7 -5
-2 -5 12 0 14 2 19 5 13 2 -7 2 -19 0 -25z m24 -93 l-9 -40 -1 36 c-1 20 2 58
7 85 l7 49 3 -45 c2 -25 -1 -63 -7 -85z m131 -25 l-9 -75 -2 60 c0 33 3 85 7
115 7 53 7 53 10 15 1 -22 -2 -74 -6 -115z m91 130 c-3 -11 -7 -20 -9 -20 -2
0 -4 9 -4 20 0 11 4 20 9 20 5 0 7 -9 4 -20z m8437 -116 c-5 -71 -10 -163 -10
-205 0 -117 10 -110 -275 -195 -66 -20 -172 -49 -235 -65 -63 -16 -135 -36
-160 -44 -46 -16 -306 -86 -479 -130 -52 -13 -98 -22 -103 -19 -4 3 -8 17 -8
31 0 21 2 23 15 13 11 -10 46 -3 177 34 90 25 217 58 283 75 66 16 174 45 240
64 66 19 197 56 290 82 94 26 182 53 197 61 36 18 45 56 53 204 6 136 15 233
21 227 2 -2 -1 -61 -6 -133z m-8563 -6 c-2 -24 -4 -5 -4 42 0 47 2 66 4 43 2
-24 2 -62 0 -85z m-66 -5 c-8 -14 -10 -3 -11 43 0 33 3 64 8 68 11 12 14 -92
3 -111z m39 42 c0 -37 -4 -65 -10 -65 -11 0 -14 88 -4 114 11 28 14 17 14 -49z
m328 29 c-3 -14 -5 -12 -10 9 -3 19 -2 25 4 19 6 -6 8 -18 6 -28z m-31 4 c-3
-8 -6 -5 -6 6 -1 11 2 17 5 13 3 -3 4 -12 1 -19z m-390 -60 c-3 -8 -6 -5 -6 6
-1 11 2 17 5 13 3 -3 4 -12 1 -19z m443 -7 c0 -28 -17 -35 -29 -12 -15 27 -14
31 9 31 13 0 20 -7 20 -19z m-352 -54 c17 -13 15 -30 -3 -23 -9 3 -15 0 -15
-9 0 -8 -6 -16 -12 -16 -7 -1 -19 -2 -25 -3 -22 -2 -16 -21 11 -34 14 -7 24
-17 21 -23 -9 -13 -35 -11 -35 2 0 8 -5 8 -15 -1 -13 -11 -15 -8 -16 21 0 19
-4 43 -8 54 -4 11 -6 28 -3 37 4 15 11 17 46 12 22 -4 47 -11 54 -17z m356 -5
c7 -11 -16 -102 -26 -102 -4 0 -8 25 -8 55 0 41 4 55 14 55 8 0 17 -3 20 -8z
m-249 -238 c17 -42 18 -44 7 -44 -15 0 -43 109 -47 183 l-4 72 14 -87 c8 -48
21 -104 30 -124z m-85 158 c0 -13 -12 -22 -22 -16 -10 6 -1 24 13 24 5 0 9 -4
9 -8z m-31 -59 c30 6 44 -6 19 -16 -10 -4 -9 -8 2 -16 8 -5 12 -12 9 -15 -3
-3 -15 3 -27 14 -11 11 -24 16 -27 11 -3 -6 1 -13 8 -18 8 -4 18 -19 22 -32 5
-16 4 -21 -4 -17 -6 4 -11 13 -11 19 0 7 -9 20 -20 30 -11 9 -20 27 -20 39 0
17 3 20 9 9 6 -9 19 -12 40 -8z m347 -35 c-8 -111 -59 -179 -149 -198 -32 -6
-63 -9 -70 -7 -17 6 38 27 72 27 16 0 36 10 48 23 29 31 55 86 49 102 -3 8 2
19 10 25 8 7 14 28 14 46 0 24 5 34 15 34 12 0 14 -11 11 -52z m3064 15 c141
-39 173 -62 250 -175 131 -192 303 -423 506 -679 132 -165 132 -166 143 -237
20 -129 24 -122 -71 -122 -46 0 -114 3 -151 7 l-68 6 -31 61 c-119 235 -322
460 -548 607 -224 146 -474 229 -746 249 -76 5 -154 10 -173 10 l-34 0 59 46
c180 140 349 219 534 249 109 18 210 11 330 -22z m-3473 -15 c-3 -8 -6 -5 -6
6 -1 11 2 17 5 13 3 -3 4 -12 1 -19z m735 -62 c-10 -11 -39 -57 -64 -101 -52
-91 -99 -145 -149 -170 -40 -21 -169 -34 -169 -16 0 7 21 11 55 11 30 0 55 5
55 10 0 6 -13 10 -29 10 -17 0 -32 4 -35 8 -3 4 1 42 8 83 10 62 16 76 37 86
170 87 269 130 269 119 0 -8 -6 -18 -13 -24 -19 -16 -80 -139 -75 -153 2 -7
19 14 38 47 18 32 44 73 57 90 13 17 24 42 24 55 2 21 3 20 6 -5 3 -18 -2 -35
-15 -50z m9244 28 c15 -59 -14 -289 -58 -454 -57 -218 -168 -440 -278 -557
-17 -17 -30 -36 -30 -41 0 -19 -93 -94 -146 -119 -291 -133 -532 162 -551 677
-3 80 -1 161 4 180 8 32 13 35 51 38 l42 3 1 -123 c1 -68 1 -127 0 -132 -4
-22 33 -208 54 -268 63 -184 177 -288 316 -288 59 0 109 10 109 22 0 5 -16 6
-37 1 -49 -10 -131 -7 -163 5 -75 29 -177 159 -213 272 -39 119 -62 328 -49
438 9 79 27 77 26 -3 -3 -153 26 -326 68 -407 11 -21 16 -38 11 -38 -4 0 -1
-6 7 -13 8 -7 21 -23 28 -37 23 -43 45 -64 102 -95 47 -25 65 -29 121 -28 195
6 377 232 465 578 29 113 44 263 26 251 -7 -4 -13 -31 -13 -59 -1 -29 -5 -65
-10 -82 -5 -18 -6 8 -2 65 5 86 21 167 22 117 2 -40 18 -4 20 44 1 36 8 57 19
66 28 20 51 15 58 -13z m-9969 -16 c-3 -8 -6 -5 -6 6 -1 11 2 17 5 13 3 -3 4
-12 1 -19z m9835 -35 c2 -27 -5 -109 -14 -183 -21 -163 -22 -191 -7 -170 19
28 -2 -51 -37 -139 -45 -113 -103 -208 -171 -281 -135 -146 -270 -164 -382
-52 -98 99 -139 223 -148 443 -3 80 -2 153 3 162 6 10 8 -21 5 -81 -5 -155 22
-312 73 -409 16 -32 58 -53 106 -53 56 0 164 66 243 149 73 76 106 121 90 121
-4 0 -18 -16 -30 -35 -13 -19 -35 -42 -50 -52 -16 -10 -30 -21 -33 -24 -12
-17 -92 -41 -115 -35 -35 9 -102 72 -126 117 -27 55 -40 57 -23 4 10 -28 31
-59 58 -82 42 -38 71 -73 48 -59 -7 4 -12 2 -12 -3 0 -14 60 -14 97 -1 27 10
27 9 -7 -20 -45 -38 -121 -64 -165 -56 -89 17 -138 160 -136 395 1 73 4 137 7
142 3 5 24 9 46 9 23 0 49 7 58 15 16 15 17 11 16 -65 -1 -58 3 -83 13 -89 9
-6 10 -11 2 -15 -16 -10 -13 -58 5 -84 27 -40 104 -23 104 23 0 14 6 25 13 25
6 1 26 12 42 26 31 27 28 28 -17 5 -25 -13 -30 -12 -47 3 -11 10 -25 15 -30
11 -6 -3 -20 -4 -30 0 -15 4 -21 19 -26 59 -11 88 -3 107 63 138 61 29 183 70
190 63 7 -6 5 -98 -2 -136 -7 -32 -6 -33 9 -15 8 11 15 27 15 37 0 10 11 20
26 23 20 5 25 12 22 34 -2 16 -12 31 -25 37 -13 5 -23 12 -23 16 0 3 25 13 55
23 30 9 58 23 62 31 5 7 20 17 36 20 l27 7 0 -78 c0 -45 -9 -116 -21 -164 -11
-47 -21 -93 -23 -103 -1 -9 -8 -23 -14 -29 -7 -7 -12 -22 -12 -35 0 -33 -28
-98 -78 -181 -46 -77 -52 -105 -10 -50 35 46 108 182 108 200 0 13 38 33 46
25 2 -1 -6 -27 -17 -57 -30 -82 -33 -97 -21 -85 15 14 73 155 77 187 2 15 8
36 14 46 18 33 41 184 42 271 1 47 3 89 6 94 12 19 22 3 25 -40z m-9792 -3 c0
-5 -2 -10 -4 -10 -3 0 -8 5 -11 10 -3 6 -1 10 4 10 6 0 11 -4 11 -10z m9743
-10 c7 -26 -21 -241 -34 -256 -5 -6 -7 -13 -4 -15 2 -3 -2 -23 -9 -44 -10 -27
-21 -41 -35 -43 -21 -3 -28 8 -14 22 4 3 8 14 9 24 2 9 10 53 19 97 8 44 16
109 16 145 1 47 6 68 18 77 22 17 28 16 34 -7z m-6051 -16 c63 -40 200 -176
280 -279 52 -68 100 -149 178 -303 58 -116 102 -209 98 -206 -4 3 -40 48 -80
102 -39 53 -80 106 -90 117 -35 40 -106 132 -158 205 -30 41 -57 77 -60 80 -3
3 -39 52 -79 110 -41 58 -90 126 -108 153 -19 26 -32 47 -29 47 4 0 25 -12 48
-26z m-3462 -24 c-12 -16 -26 -30 -33 -30 -6 0 2 14 18 30 16 17 30 30 33 30
2 0 -6 -13 -18 -30z m-2099 -21 c-6 -18 -11 -42 -11 -54 0 -39 -21 -56 -55
-45 -29 10 -29 10 -3 6 20 -2 29 2 34 16 7 24 -4 37 -16 18 -5 -8 -12 -11 -16
-7 -4 4 5 16 20 28 16 12 25 27 22 36 -3 8 -2 11 3 8 5 -3 13 4 16 16 4 11 9
18 12 15 3 -3 0 -19 -6 -37z m1884 -9 c10 -16 82 -50 110 -52 30 -3 30 -6 8
-38 -16 -22 -16 -23 1 -17 10 4 22 7 27 7 5 0 9 7 9 15 0 9 6 12 15 9 10 -4
12 -11 6 -23 -12 -22 -2 -73 13 -64 8 4 8 3 0 -6 -26 -28 -118 19 -99 50 4 5
-1 6 -9 3 -19 -7 -19 -7 -4 -38 6 -14 20 -28 30 -32 15 -4 17 -9 7 -20 -10
-12 -15 -11 -33 9 -11 12 -37 33 -57 45 -42 26 -89 83 -89 108 0 36 50 69 65
44z m80 -10 c17 -11 26 -20 22 -20 -11 0 -67 29 -67 35 0 10 16 4 45 -15z
m245 0 c-9 -17 -30 -28 -30 -16 0 16 15 36 26 36 12 0 12 -4 4 -20z m-2185
-48 c-3 -22 -13 -48 -21 -59 -17 -20 -17 -25 6 66 14 53 25 48 15 -7z m2100
-2 c-16 -16 -25 -30 -20 -30 5 0 4 -5 -3 -12 -7 -7 -12 -21 -12 -32 0 -16 -2
-18 -9 -7 -12 19 18 101 35 94 6 -2 15 0 19 6 3 6 9 11 12 11 4 0 -6 -13 -22
-30z m70 -39 c-9 -28 -19 -51 -22 -51 -7 0 7 71 19 93 18 34 20 9 3 -42z
m-2315 20 c0 -13 10 -21 31 -25 27 -5 30 -8 19 -21 -7 -9 -16 -12 -19 -7 -12
17 -41 22 -41 7 0 -8 -4 -15 -9 -15 -13 0 -19 56 -9 75 11 19 28 10 28 -14z
m10416 -12 c-49 -16 -92 -27 -94 -24 -5 5 147 53 168 53 8 0 -25 -13 -74 -29z
m-10052 -22 c28 -41 35 -65 10 -32 -16 21 -51 84 -41 75 3 -3 17 -22 31 -43z
m1916 -1 c-6 -19 -12 -49 -12 -66 -1 -22 -6 -30 -20 -30 -19 0 -24 15 -8 25 6
3 10 13 10 22 0 18 33 93 38 88 2 -2 -1 -20 -8 -39z m8250 30 c0 -3 -51 -21
-112 -40 -62 -19 -187 -57 -278 -85 -91 -28 -169 -51 -175 -51 -5 0 -59 -15
-120 -34 -183 -57 -570 -163 -745 -205 -91 -22 -322 -78 -515 -125 -868 -210
-1360 -323 -1485 -342 -14 -2 -79 -15 -145 -29 -129 -26 -182 -31 -154 -15 9
5 67 18 130 30 122 21 204 39 474 100 94 21 224 50 290 65 66 14 165 37 220
50 55 13 156 38 225 54 69 16 208 50 310 74 102 24 248 59 325 77 396 92 725
177 1075 280 410 120 582 171 615 184 41 15 65 19 65 12z m-9987 -66 c-15 -37
-35 -51 -46 -32 -3 4 4 27 14 51 16 35 22 41 33 32 12 -10 12 -18 -1 -51z
m-459 10 c-5 -25 -3 -30 12 -30 18 -1 18 -1 -1 -12 -11 -6 -26 -20 -33 -30
-17 -23 -28 -23 -35 1 -3 14 -1 18 9 14 8 -3 16 6 21 24 9 33 10 40 12 53 0 6
5 10 11 10 5 0 7 -13 4 -30z m2153 -6 c-6 -20 -13 -32 -14 -27 -4 11 14 63 21
63 2 0 -1 -16 -7 -36z m8058 16 c-27 -12 -43 -12 -25 0 8 5 22 9 30 9 10 0 8
-3 -5 -9z m-102 -30 c-21 -8 -462 -134 -808 -231 -139 -38 -562 -140 -1075
-259 -146 -34 -318 -75 -383 -91 -231 -58 -1078 -239 -1119 -239 -24 0 2 12
59 27 32 8 198 44 368 79 171 34 378 79 460 98 83 19 242 55 354 81 193 43
397 91 731 171 80 19 204 49 275 66 122 28 172 41 415 103 52 13 114 31 137
39 24 8 120 35 215 60 95 25 216 59 268 75 90 28 151 40 103 21z m643 -92
c-14 -209 36 -471 115 -613 42 -74 130 -162 191 -190 29 -13 46 -24 38 -24
-32 -1 -120 49 -157 90 -85 94 -121 166 -163 324 -28 104 -33 142 -37 282 -5
150 0 233 14 233 3 0 3 -46 -1 -102z m-35 59 c-13 -13 -26 -3 -16 12 3 6 11 8
17 5 6 -4 6 -10 -1 -17z m-10151 -25 c14 -9 48 -22 75 -28 94 -21 185 -47 182
-51 -8 -7 -250 36 -260 46 -6 6 -25 11 -43 11 -29 0 -60 20 -49 32 12 12 72 6
95 -10z m-556 -7 c-7 -17 -20 -20 -29 -6 -3 5 3 12 12 14 10 3 19 5 20 6 1 0
0 -6 -3 -14z m10705 -92 c0 -60 -3 -102 -6 -95 -2 6 -11 12 -19 12 -19 0 -18
10 2 25 13 9 14 16 6 31 -10 17 -11 17 -12 2 0 -11 -7 -18 -17 -17 -10 0 -13
3 -6 5 7 3 9 12 6 20 -3 9 2 14 18 15 17 1 19 3 7 6 -10 2 -18 11 -18 19 0 9
5 12 11 8 8 -4 9 1 4 17 -4 13 -7 26 -7 29 0 22 4 30 17 30 12 0 15 -18 14
-107z m-10489 75 c0 -19 -2 -20 -10 -8 -13 19 -13 30 0 30 6 0 10 -10 10 -22z
m4465 -2 c44 -3 82 -6 85 -7 3 -1 9 -1 14 0 4 1 14 -4 22 -10 8 -7 17 -9 21
-6 3 4 12 2 20 -4 7 -6 22 -9 33 -6 11 3 20 1 20 -3 0 -16 35 -16 47 0 11 13
12 12 13 -7 0 -13 6 -23 14 -23 7 0 28 -3 45 -6 24 -5 31 -3 31 10 0 10 8 16
21 16 18 0 20 -4 15 -25 -4 -14 -2 -25 4 -25 5 0 10 7 10 15 0 18 16 20 26 4
4 -8 9 -7 16 2 6 10 8 4 5 -18 -2 -18 -2 -33 -1 -33 1 0 9 -3 18 -6 12 -5 16
0 16 20 0 14 5 26 11 26 5 0 7 -4 4 -10 -4 -6 5 -10 19 -10 18 0 26 -5 26 -17
0 -9 3 -13 7 -10 3 4 12 2 20 -4 9 -9 13 -8 13 0 0 6 5 11 10 11 6 0 10 -15
11 -32 0 -18 3 -27 6 -20 2 6 9 10 14 6 5 -3 9 3 10 13 0 14 2 13 10 -6 6 -15
15 -21 24 -17 9 3 15 0 15 -8 0 -17 33 -31 38 -17 2 6 8 11 13 11 6 0 7 -5 4
-10 -10 -15 16 -42 33 -35 9 3 12 0 9 -9 -8 -20 3 -28 20 -15 10 9 13 6 13
-16 0 -24 3 -27 25 -23 14 3 25 1 25 -4 0 -14 43 -58 57 -58 6 0 15 -9 18 -20
4 -11 10 -18 15 -15 5 3 12 0 16 -6 4 -8 3 -9 -4 -5 -7 4 -12 2 -12 -4 0 -6 6
-13 14 -16 8 -3 16 -14 19 -25 3 -12 12 -19 23 -17 9 2 19 -3 22 -11 3 -8 0
-11 -7 -7 -6 4 -11 2 -11 -3 0 -6 7 -11 15 -11 8 0 15 -9 15 -19 0 -11 5 -23
10 -26 6 -3 10 -1 10 5 0 6 5 8 10 5 6 -4 8 -11 4 -16 -3 -6 3 -17 14 -25 12
-8 19 -21 16 -29 -4 -9 0 -15 8 -15 29 0 110 -194 110 -262 -1 -9 5 -19 13
-21 15 -6 40 -101 30 -117 -4 -6 1 -18 11 -25 13 -10 15 -14 5 -15 -11 0 -10
-5 3 -24 10 -15 12 -27 6 -31 -14 -9 -12 -55 3 -56 6 0 7 -3 2 -5 -16 -6 -6
-84 10 -78 7 3 16 1 20 -5 3 -7 -3 -11 -15 -11 -16 0 -20 -5 -16 -17 9 -28 10
-173 2 -230 -6 -42 -5 -53 6 -53 10 0 13 10 10 35 -3 21 0 35 7 35 14 0 10 62
-4 73 -7 6 -6 10 2 13 7 3 9 12 6 20 -3 8 0 14 7 14 9 0 11 -22 6 -89 -3 -49
-9 -104 -13 -122 -6 -32 -6 -32 -16 -8 -9 23 -9 23 -17 4 -5 -11 -9 -31 -9
-45 -1 -14 -7 -43 -15 -64 -8 -22 -13 -47 -11 -55 1 -9 -2 -19 -7 -22 -5 -3
-10 -22 -12 -43 -2 -21 -8 -42 -15 -49 -6 -6 -11 -17 -11 -24 0 -7 -4 -21 -9
-31 -36 -68 -68 -142 -63 -147 6 -6 32 14 32 25 0 5 14 39 32 77 18 37 33 73
33 78 1 6 7 23 14 39 6 16 9 31 6 34 -2 3 1 12 7 20 7 8 13 21 14 31 8 52 28
132 35 137 13 8 11 -20 -5 -68 -8 -24 -17 -60 -20 -81 -10 -58 -101 -272 -152
-361 -107 -184 -217 -308 -431 -486 -40 -32 -245 -148 -323 -181 -175 -75
-443 -129 -635 -129 -92 0 -265 22 -360 46 -57 15 -78 25 -154 76 -14 10 -33
21 -41 25 -8 5 -62 39 -120 77 -108 71 -307 257 -295 275 3 6 -4 15 -15 21
-11 6 -28 22 -37 36 -14 22 -14 27 -2 35 11 7 8 9 -9 9 -14 0 -22 5 -20 12 3
7 -7 22 -21 35 -14 12 -21 23 -14 23 6 0 9 9 6 21 -4 12 -11 18 -20 15 -11 -5
-13 -1 -7 16 5 17 3 20 -11 14 -15 -5 -16 -4 -5 9 10 12 10 15 -4 15 -9 0 -16
8 -16 20 0 14 -6 20 -17 18 -11 -2 -17 2 -15 11 1 7 -4 24 -13 37 -14 21 -14
24 0 24 8 0 15 5 15 10 0 6 -7 10 -15 10 -8 0 -15 5 -15 11 0 5 -16 17 -35 25
-42 17 -45 25 -7 22 15 -2 27 2 27 7 0 6 -6 9 -15 7 -11 -2 -10 2 4 13 19 15
19 15 -1 15 -12 0 -23 -4 -25 -9 -1 -5 -12 -3 -22 5 -18 13 -17 14 17 14 41 0
45 6 20 27 -11 9 -12 11 -3 7 12 -6 12 -4 -1 12 -23 28 -29 50 -16 63 8 8 1
11 -28 12 l-40 2 36 6 c32 5 34 8 28 31 -4 16 -7 19 -8 8 -1 -10 -5 -18 -9
-18 -13 0 -11 34 2 43 8 5 8 9 0 15 -6 4 -13 15 -17 25 -4 11 -12 15 -18 11
-8 -4 -9 -3 -5 4 4 6 13 9 20 6 8 -3 17 -1 21 5 3 6 0 11 -7 11 -9 0 -9 3 2
10 12 8 9 10 -12 10 -32 0 -37 15 -8 23 13 3 20 14 20 30 0 16 18 46 46 79 61
70 142 209 265 453 138 273 238 436 403 660 54 72 57 75 126 95 38 11 130 32
202 46 120 23 149 25 293 20 88 -3 175 -8 194 -12 26 -5 33 -4 29 7 -3 8 -29
18 -59 24 -70 12 -449 8 -557 -6 -46 -6 -85 -9 -88 -7 -4 5 171 209 207 239
16 14 43 16 201 13 101 -2 219 -6 263 -8z m-4415 -11 c20 -24 6 -28 -15 -5
-10 11 -13 20 -8 20 6 0 16 -7 23 -15z m-626 -4 c4 -5 13 -49 21 -98 16 -90
71 -273 107 -353 11 -25 45 -80 75 -123 49 -69 77 -98 163 -166 14 -10 22 -23
18 -27 -7 -7 -97 57 -147 106 -31 30 -102 123 -125 165 -35 65 -77 181 -91
259 -24 122 -43 209 -50 229 -5 12 -2 17 8 17 9 0 18 -4 21 -9z m5283 -13 c-3
-8 -6 -5 -6 6 -1 11 2 17 5 13 3 -3 4 -12 1 -19z m-5343 6 c26 -10 18 -42 -13
-59 -16 -8 -38 -27 -49 -42 -45 -63 -46 -86 -28 -505 9 -216 19 -428 22 -470
4 -47 2 -78 -3 -78 -6 0 -13 73 -16 168 -4 92 -11 273 -17 402 -5 129 -11 290
-14 357 -2 67 -7 127 -11 133 -8 13 27 55 70 81 33 21 36 22 59 13z m574 -29
c-3 -3 -9 2 -12 12 -6 14 -5 15 5 6 7 -7 10 -15 7 -18z m10987 16 c3 -5 1 -12
-5 -16 -5 -3 -10 -15 -10 -26 0 -11 -4 -17 -10 -14 -11 7 -14 48 -3 58 9 10
21 9 28 -2z m-10305 -42 c47 -7 96 -11 110 -10 27 1 80 -17 80 -29 0 -7 -54
-1 -200 25 -89 16 -122 25 -89 25 8 0 53 -5 99 -11z m336 -26 c-11 -11 -17 4
-9 23 7 18 8 18 11 1 2 -10 1 -21 -2 -24z m-1018 2 c-3 -3 -9 2 -12 12 -6 14
-5 15 5 6 7 -7 10 -15 7 -18z m-529 -67 c41 -275 160 -483 354 -615 l47 -33 0
-69 c0 -74 9 -92 107 -222 63 -83 218 -150 563 -245 74 -20 138 -42 142 -48
12 -18 9 -54 -4 -58 -7 -3 -62 11 -123 29 -481 148 -572 188 -690 307 -44 45
-96 104 -115 131 -18 28 -36 52 -39 55 -4 3 -19 25 -35 49 l-28 44 -68 -6
c-69 -6 -138 -28 -152 -50 -16 -24 -7 -52 33 -109 42 -60 45 -88 10 -88 -26 0
-45 -34 -37 -66 6 -21 3 -24 -24 -24 -23 0 -31 5 -34 23 -5 25 -37 800 -36
893 0 98 49 181 106 184 6 0 16 -37 23 -82z m1461 52 c0 -5 -4 -10 -10 -10 -5
0 -10 5 -10 10 0 6 5 10 10 10 6 0 10 -4 10 -10z m-820 -82 c0 -4 -16 9 -35
31 -19 21 -35 42 -35 47 0 5 16 -9 35 -30 19 -22 35 -43 35 -48z m150 62 c-12
-22 -25 -26 -35 -10 -5 8 19 24 43 29 1 1 -2 -8 -8 -19z m-971 -127 c1 -65 4
-147 6 -183 11 -199 26 -651 23 -685 l-3 -40 -18 32 c-9 18 -17 45 -16 60 1
16 -4 109 -10 208 -20 339 -26 692 -11 710 7 8 15 15 19 15 4 0 8 -53 10 -117z
m751 67 c0 -5 -2 -10 -4 -10 -3 0 -8 5 -11 10 -3 6 -1 10 4 10 6 0 11 -4 11
-10z m37 -27 c-3 -10 -5 -4 -5 12 0 17 2 24 5 18 2 -7 2 -21 0 -30z m10479
-18 c1 -27 0 -38 -3 -22 -5 32 -23 37 -23 5 0 -34 -13 -12 -14 24 -1 17 -7 33
-15 36 -10 3 -12 0 -8 -12 4 -10 3 -15 -3 -11 -6 3 -10 13 -10 21 0 11 9 14
38 12 l37 -3 1 -50z m-10526 -21 c0 -7 11 -19 24 -28 14 -8 31 -28 38 -43 8
-18 21 -28 35 -28 12 0 31 -9 42 -19 11 -10 25 -15 30 -11 6 3 11 2 11 -4 0
-28 -96 -22 -107 7 -4 8 -28 44 -55 79 -31 42 -48 73 -47 91 l1 27 13 -30 c8
-16 14 -35 15 -41z m235 11 c33 -8 44 -12 25 -9 -161 26 -131 4 42 -31 68 -14
133 -27 146 -30 12 -3 22 -2 22 3 0 5 -36 16 -81 26 -45 10 -79 20 -76 22 4 4
172 -29 457 -92 63 -14 125 -23 137 -19 13 3 23 1 23 -5 0 -5 11 -10 25 -10
14 0 25 5 25 10 0 6 17 9 38 9 24 -1 29 -3 14 -6 -15 -3 -22 -10 -18 -18 2 -7
-1 -16 -9 -19 -8 -3 -15 -1 -17 3 -2 4 -22 11 -46 14 -37 4 -41 3 -31 -9 25
-30 -140 -3 -493 80 -81 19 -175 40 -209 47 -56 11 -119 47 -119 69 0 4 19 1
43 -6 23 -8 69 -20 102 -29z m405 6 c80 -19 152 -39 160 -46 8 -7 22 -15 30
-18 8 -4 -3 -4 -25 -2 -64 8 -163 29 -171 38 -4 4 -19 7 -33 7 -40 0 -181 36
-194 50 -19 19 68 8 233 -29z m8457 33 c-3 -3 -12 -4 -19 -1 -8 3 -5 6 6 6 11
1 17 -2 13 -5z m-9058 -59 c0 -5 -6 1 -14 15 -8 14 -14 30 -14 35 0 6 6 -1 14
-15 8 -14 14 -29 14 -35z m945 -4 c-4 -28 -9 -50 -11 -47 -3 3 -2 28 2 56 4
28 9 49 12 47 2 -3 1 -28 -3 -56z m-894 -3 c4 -24 11 -52 16 -63 7 -18 6 -18
-9 -6 -9 7 -14 17 -11 22 3 5 0 9 -5 9 -6 0 -11 20 -11 47 0 55 10 50 20 -9z
m797 30 c-3 -8 -6 -5 -6 6 -1 11 2 17 5 13 3 -3 4 -12 1 -19z m7863 -42 c0 -3
-4 -8 -10 -11 -5 -3 -10 -1 -10 4 0 6 5 11 10 11 6 0 10 -2 10 -4z m1732 -13
c-6 -2 -9 -10 -5 -16 9 -15 11 -47 3 -47 -3 0 -15 7 -26 16 -10 8 -13 13 -6 9
21 -11 34 5 17 21 -8 9 -19 12 -25 9 -5 -3 -10 -1 -10 4 0 6 15 11 33 10 17 0
26 -3 19 -6z m58 -13 c0 -11 -5 -20 -11 -20 -6 0 -3 -7 5 -16 22 -21 20 -33
-4 -27 -11 3 -17 9 -14 14 3 5 1 9 -3 9 -5 0 -9 9 -10 20 -1 11 3 20 8 20 6 0
7 5 4 10 -3 6 1 10 9 10 9 0 16 -9 16 -20z m-10336 -21 c-8 -14 -24 -10 -24 6
0 9 6 12 15 9 8 -4 12 -10 9 -15z m8431 11 c-11 -5 -29 -8 -40 -8 -16 0 -15 2
5 8 34 11 60 11 35 0z m-8485 -15 c0 -9 -6 -12 -15 -9 -8 4 -12 10 -9 15 8 14
24 10 24 -6z m8400 -5 c-8 -5 -24 -9 -35 -9 -16 1 -16 2 5 9 35 11 48 11 30 0z
m-8499 -44 l31 -43 166 -37 c92 -21 250 -55 352 -76 222 -47 240 -52 239 -65
0 -5 9 -11 21 -13 11 -2 20 -8 20 -13 0 -22 -187 15 -610 120 -41 11 -91 22
-111 25 -28 5 -50 21 -98 73 -65 70 -67 73 -51 73 6 0 24 -20 41 -44z m144 24
c3 -5 2 -10 -4 -10 -5 0 -13 5 -16 10 -3 6 -2 10 4 10 5 0 13 -4 16 -10z m700
0 c3 -5 2 -10 -4 -10 -5 0 -13 5 -16 10 -3 6 -2 10 4 10 5 0 13 -4 16 -10z
m7580 0 c-27 -12 -43 -12 -25 0 8 5 22 9 30 9 10 0 8 -3 -5 -9z m-8133 -50
c17 -30 17 -30 -7 -30 -14 0 -25 5 -25 10 0 6 -13 10 -29 10 -16 0 -34 6 -40
14 -10 12 -7 15 16 19 61 9 68 7 85 -23z m8003 20 c-3 -5 -11 -10 -16 -10 -6
0 -7 5 -4 10 3 6 11 10 16 10 6 0 7 -4 4 -10z m-8131 -15 c7 -20 43 -33 156
-56 291 -58 421 -87 428 -94 18 -19 -602 115 -622 135 -5 5 0 6 15 3 21 -6 23
-5 10 10 -7 9 -9 17 -3 17 5 0 12 -7 16 -15z m10345 -16 c6 -18 11 -36 11 -40
0 -12 -34 -11 -45 0 -6 5 -23 11 -40 14 -24 3 -21 4 13 6 35 1 42 4 42 21 0
20 -24 28 -34 11 -3 -4 -17 -6 -32 -3 -36 7 -11 22 38 22 32 0 37 -4 47 -31z
m-9936 -33 c93 -24 171 -47 175 -51 17 -16 -25 -21 -76 -8 -31 8 -70 16 -87
18 -16 2 -41 5 -55 8 -14 3 -43 8 -65 12 -22 4 -44 11 -50 15 -5 3 -29 13 -53
20 -24 7 -45 17 -48 22 -13 20 105 4 259 -36z m323 -11 c-6 -25 -14 -45 -19
-45 -5 0 -6 8 -3 18 3 9 8 29 12 45 3 15 9 27 13 27 4 0 3 -20 -3 -45z m-30
21 c0 0 -1 -22 -4 -48 -3 -35 -7 -45 -18 -41 -8 3 -21 0 -29 -7 -11 -9 -18
-10 -29 -1 -10 9 -11 22 -3 61 l10 50 36 -6 c20 -4 36 -7 37 -8z m7201 -2 c-3
-3 -12 -4 -19 -1 -8 3 -5 6 6 6 11 1 17 -2 13 -5z m-38 -8 c-11 -11 -518 -130
-525 -124 -4 4 487 125 515 127 8 1 12 -1 10 -3z m2508 -63 c8 -21 16 -42 17
-48 6 -32 87 -156 134 -201 55 -54 59 -69 11 -36 -50 33 -89 71 -89 86 0 8 -9
18 -20 21 -13 4 -20 15 -20 31 0 14 -6 27 -14 30 -8 3 -15 14 -15 25 -1 10 -1
28 -2 39 0 11 -4 18 -10 15 -5 -4 -9 -1 -9 4 0 6 -7 11 -15 11 -8 0 -12 6 -9
14 3 8 0 17 -5 21 -14 8 -4 25 15 25 8 0 22 -17 31 -37z m-10387 -13 c0 -11
-7 -20 -15 -20 -15 0 -21 21 -8 33 12 13 23 7 23 -13z m-62 -40 c35 -22 57
-26 47 -10 -3 6 -1 10 4 10 6 0 11 -4 11 -10 0 -5 7 -10 15 -10 8 0 15 -8 15
-17 0 -14 2 -15 9 -5 6 10 32 4 119 -30 90 -35 112 -47 112 -63 0 -16 -2 -17
-10 -5 -5 8 -12 11 -16 7 -4 -4 -12 -3 -18 2 -6 5 -52 23 -103 40 -87 29 -233
95 -233 106 0 10 15 5 48 -15z m762 10 c0 -5 -7 -7 -15 -4 -8 4 -15 8 -15 10
0 2 7 4 15 4 8 0 15 -4 15 -10z m-990 -45 c14 -19 14 -19 -2 -6 -10 7 -18 18
-18 24 0 6 1 8 3 6 1 -2 9 -13 17 -24z m7627 19 c-3 -3 -12 -4 -19 -1 -8 3 -5
6 6 6 11 1 17 -2 13 -5z m-7667 -74 l-7 -65 -1 52 c-2 43 6 91 12 81 1 -2 -1
-32 -4 -68z m1144 55 c-19 -14 -134 -22 -120 -8 4 4 22 6 41 5 18 -2 36 1 40
7 3 6 18 11 33 11 25 0 25 -1 6 -15z m6443 -1 c-3 -3 -12 -4 -19 -1 -8 3 -5 6
6 6 11 1 17 -2 13 -5z m-40 -10 c-3 -3 -12 -4 -19 -1 -8 3 -5 6 6 6 11 1 17
-2 13 -5z m-40 -10 c-3 -3 -12 -4 -19 -1 -8 3 -5 6 6 6 11 1 17 -2 13 -5z
m-7411 -84 c49 -51 94 -88 127 -104 56 -27 251 -88 436 -136 63 -16 115 -31
117 -32 1 -2 4 -83 6 -181 3 -157 1 -177 -13 -177 -19 0 -262 70 -357 104 -37
13 -90 35 -117 50 -28 14 -55 26 -61 26 -6 0 -26 8 -46 18 -38 19 -71 55 -137
147 l-42 60 2 153 c2 83 5 152 7 152 2 0 37 -36 78 -80z m34 2 c65 -79 42 -65
-31 20 -28 32 -45 56 -38 52 8 -3 39 -36 69 -72z m215 68 c3 -6 -1 -7 -9 -4
-18 7 -21 14 -7 14 6 0 13 -4 16 -10z m5875 -51 l39 -61 -21 -18 c-13 -10 -19
-23 -15 -33 8 -22 47 -22 47 -1 0 23 10 16 82 -61 54 -58 64 -73 55 -87 -16
-24 -1 -34 28 -18 20 10 28 11 37 2 7 -7 31 -12 54 -12 37 0 42 -2 37 -20 -4
-16 0 -20 20 -20 24 0 26 -4 32 -57 4 -32 11 -71 16 -87 5 -16 9 -40 9 -54 0
-14 4 -39 10 -56 5 -17 23 -92 39 -166 17 -74 42 -179 57 -233 29 -111 27
-121 -36 -131 -65 -10 -130 23 -170 87 -58 92 -138 234 -155 273 -102 235
-166 462 -195 684 -6 47 -13 95 -15 108 -8 36 3 26 45 -39z m1125 31 c-3 -5
-16 -10 -28 -9 -20 1 -20 2 3 9 14 4 26 8 28 9 2 1 0 -3 -3 -9z m-6284 -10
c10 -6 28 -28 38 -48 19 -36 23 -56 56 -249 35 -207 106 -344 250 -485 l70
-68 -48 16 c-128 43 -235 214 -300 479 -19 77 -38 171 -42 210 -7 65 -10 73
-50 112 -40 41 -41 43 -18 43 13 0 33 -5 44 -10z m6214 -10 c-11 -5 -29 -8
-40 -8 -16 0 -15 2 5 8 34 11 60 11 35 0z m-6625 -26 c0 -2 -7 -4 -15 -4 -8 0
-15 4 -15 10 0 5 7 7 15 4 8 -4 15 -8 15 -10z m370 1 c11 -13 10 -18 -6 -30
-10 -8 -22 -15 -25 -15 -13 0 -42 -55 -55 -100 -7 -27 -13 -36 -13 -22 -2 36
-30 72 -57 72 -13 0 -24 3 -24 7 0 4 21 29 47 55 39 40 53 48 84 48 21 0 42
-7 49 -15z m6187 9 c-3 -3 -12 -4 -19 -1 -8 3 -5 6 6 6 11 1 17 -2 13 -5z
m-6407 -66 c17 -5 8 -6 -24 -2 -27 3 -58 10 -70 14 -26 11 57 1 94 -12z m271
-82 c15 -118 78 -345 119 -431 51 -106 128 -199 185 -225 24 -11 46 -20 49
-20 2 0 17 -5 33 -11 26 -11 23 -12 -57 -31 -47 -10 -106 -21 -131 -22 -63 -5
-149 -31 -190 -59 -27 -18 -35 -30 -37 -60 -3 -33 0 -39 32 -58 34 -20 36 -24
36 -73 0 -46 -3 -53 -29 -69 -43 -25 -54 -107 -15 -107 8 0 14 -5 14 -11 0 -6
-19 -9 -47 -7 l-48 3 -7 75 c-8 91 -28 809 -28 975 1 141 12 181 59 212 31 21
36 22 44 7 5 -9 13 -48 18 -88z m5859 94 c-8 -5 -22 -9 -30 -9 -10 0 -8 3 5 9
27 12 43 12 25 0z m-130 -30 c-14 -4 -34 -8 -45 -8 -16 0 -15 2 5 8 14 4 34 8
45 8 16 0 15 -2 -5 -8z m-6521 -35 c2 -3 -1 -5 -8 -5 -14 0 -71 28 -71 35 0 5
70 -22 79 -30z m6444 18 c-7 -2 -19 -2 -25 0 -7 3 -2 5 12 5 14 0 19 -2 13 -5z
m-5834 -37 c12 -14 25 -321 37 -878 6 -301 6 -308 -13 -308 -11 0 -34 5 -50
10 -30 11 -30 13 -37 98 -3 48 -11 239 -17 426 -5 186 -10 341 -11 345 0 3 0
65 1 137 1 117 3 134 22 158 22 28 50 34 68 12z m-1103 -98 c58 -91 162 -208
230 -259 98 -74 259 -137 649 -251 55 -16 105 -35 111 -41 11 -11 27 -177 18
-177 -2 0 -55 16 -117 35 -61 20 -164 52 -227 72 -187 58 -391 129 -452 156
-148 66 -239 147 -371 332 -72 101 -87 127 -87 149 0 28 69 52 163 55 36 1 39
-2 83 -71z m201 15 c-3 -10 -5 -2 -5 17 0 19 2 27 5 18 2 -10 2 -26 0 -35z
m676 -8 c55 -14 102 -25 105 -25 3 0 3 -2 0 -5 -8 -8 -221 45 -233 58 -7 7 -4
8 9 3 10 -3 64 -18 119 -31z m-632 -67 c17 -24 18 -29 6 -19 -18 14 -42 51
-33 51 3 0 15 -15 27 -32z m-356 -163 c133 -172 280 -264 560 -350 50 -15 97
-31 105 -34 8 -4 112 -36 231 -72 l217 -64 6 -54 c4 -30 5 -56 2 -58 -9 -10
-574 175 -704 230 -170 72 -248 134 -359 284 -105 143 -113 155 -113 172 0 17
1 16 55 -54z m-58 23 c28 -59 172 -244 236 -303 102 -93 215 -146 557 -259
157 -51 308 -99 337 -107 56 -14 70 -34 57 -85 -5 -18 -11 -23 -23 -18 -9 4
-54 19 -101 34 -310 100 -638 219 -715 258 -111 58 -210 148 -297 275 -127
184 -144 227 -90 227 20 0 32 -7 39 -22z m665 -73 c40 -20 62 -32 48 -29 -27
7 -139 63 -128 64 3 0 39 -16 80 -35z m655 -27 c-2 -13 -4 -3 -4 22 0 25 2 35
4 23 2 -13 2 -33 0 -45z m5033 10 c0 -18 -2 -20 -9 -8 -6 8 -7 18 -5 22 9 14
14 9 14 -14z m-5545 -38 c13 -5 14 -9 5 -9 -8 0 -24 4 -35 9 -13 5 -14 9 -5 9
8 0 24 -4 35 -9z m70 -20 c13 -5 14 -9 5 -9 -8 0 -24 4 -35 9 -13 5 -14 9 -5
9 8 0 24 -4 35 -9z m125 -36 c55 -20 22 -16 -45 6 -33 11 -44 17 -25 13 19 -3
50 -11 70 -19z m317 -101 c-2 -21 -4 -6 -4 32 0 39 2 55 4 38 2 -18 2 -50 0
-70z m-167 56 c18 -11 -34 -1 -65 13 -13 5 -9 6 15 2 19 -4 42 -10 50 -15z
m182 -394 c3 -152 2 -233 -2 -185 -8 86 -13 467 -6 459 2 -2 5 -125 8 -274z
m658 165 c288 -106 457 -151 645 -170 100 -11 116 -15 175 -50 36 -22 82 -46
102 -55 39 -16 58 -40 58 -74 0 -27 -55 -33 -307 -34 -205 -1 -401 14 -488 37
-27 8 -78 19 -113 25 -172 32 -609 167 -622 191 -15 28 15 56 88 84 37 14 75
26 85 26 10 0 98 -20 195 -44 97 -25 204 -50 237 -55 33 -6 89 -17 125 -25 36
-8 68 -11 72 -7 5 4 -31 15 -80 25 -96 19 -455 106 -461 111 -7 7 137 40 191
44 9 0 53 -13 98 -29z m-423 -211 c15 -6 75 -23 133 -39 58 -16 163 -45 234
-64 71 -20 193 -48 270 -63 130 -24 163 -26 421 -28 l280 -1 6 -50 c3 -27 4
-54 2 -61 -7 -18 -110 -24 -333 -19 -286 6 -395 27 -840 159 -234 70 -227 66
-229 145 -1 35 9 39 56 21z m1910 -75 c-3 -3 -12 -4 -19 -1 -8 3 -5 6 6 6 11
1 17 -2 13 -5z m-1830 -85 c213 -67 440 -128 603 -162 92 -18 141 -21 398 -22
281 -2 294 -2 314 -22 14 -15 18 -27 13 -42 l-7 -22 -287 2 c-388 2 -471 16
-938 149 -281 80 -304 90 -295 122 12 50 36 49 199 -3z"/>
<path d="M9050 7855 c-364 -40 -604 -125 -823 -293 -32 -24 -56 -46 -53 -49 3
-3 42 22 87 55 209 156 514 254 867 277 56 4 102 11 102 16 0 11 -32 10 -180
-6z"/>
<path d="M9315 7864 c73 -5 269 -20 429 -34 190 -17 390 -66 498 -121 87 -45
237 -134 284 -170 62 -47 84 -52 29 -6 -96 79 -291 188 -413 232 -172 60 -400
93 -696 99 -105 2 -164 2 -131 0z"/>
<path d="M10964 7600 c-11 -4 -33 -22 -47 -40 -25 -30 -28 -30 -49 -16 -16 11
-44 16 -98 15 -110 -1 -123 -7 -134 -57 -9 -42 -9 -42 51 -105 80 -83 164
-192 242 -310 35 -54 66 -95 69 -93 5 6 -154 254 -173 271 -7 6 -28 30 -48 55
l-36 46 58 16 58 15 16 -74 c11 -48 42 -127 87 -219 39 -79 68 -149 64 -156
-4 -6 0 -16 9 -23 43 -31 144 -299 201 -530 36 -147 77 -223 136 -253 43 -23
52 -23 231 -20 208 4 208 4 234 79 30 83 14 163 -86 442 -91 256 -196 456
-330 629 -98 127 -110 139 -224 231 -129 103 -172 121 -231 97z m112 -35 c86
-44 217 -161 305 -275 32 -41 66 -84 76 -94 31 -36 172 -298 217 -405 92 -221
156 -432 156 -516 0 -60 -24 -110 -59 -125 -19 -7 -86 -10 -203 -8 -174 3
-175 3 -211 31 -36 27 -63 64 -54 73 3 3 17 -6 32 -20 42 -39 95 -49 233 -43
111 4 125 7 147 27 30 28 45 77 45 149 0 41 -13 85 -55 195 -31 77 -65 166
-77 196 -40 103 -126 267 -199 376 -86 129 -314 364 -392 404 -44 23 -49 24
-74 10 -15 -9 -38 -31 -50 -49 -28 -42 -30 -24 -3 29 38 74 83 87 166 45z
m-322 -41 c3 -9 6 -28 6 -42 -1 -78 -33 -97 -80 -49 -33 34 -38 67 -14 91 21
21 80 21 88 0z m104 4 c7 -7 12 -27 12 -45 0 -27 -4 -33 -22 -34 -13 0 -32 -5
-43 -10 -15 -7 -8 -8 23 -4 72 9 36 -22 -46 -40 l-34 -7 17 26 c13 19 16 40
13 76 l-5 50 36 0 c21 0 42 -5 49 -12z m177 -17 c17 -11 46 -34 65 -51 l35
-30 -65 5 c-107 9 -149 16 -154 23 -9 15 52 71 79 72 6 0 24 -9 40 -19z m82
-123 c72 -10 80 -14 123 -57 25 -25 75 -84 110 -131 36 -47 67 -87 70 -90 17
-16 124 -217 151 -285 42 -104 43 -141 6 -169 -27 -20 -40 -21 -205 -21 l-176
0 -9 35 c-10 42 -115 272 -192 425 -63 124 -95 218 -95 277 l0 41 70 -7 c39
-3 105 -11 147 -18z m589 -891 c19 -55 34 -103 34 -107 0 -4 -17 -6 -39 -3
-26 4 -53 -1 -85 -15 l-47 -21 -8 22 c-18 46 -37 52 -169 54 -69 2 -129 6
-132 10 -8 9 -40 123 -40 141 0 9 40 12 143 13 78 0 164 6 191 12 47 12 57 20
71 62 6 17 10 13 27 -25 11 -25 35 -89 54 -143z m-401 -108 c-22 -18 -29 -20
-36 -8 -15 24 -10 29 27 29 l37 0 -28 -21z m202 15 c12 -3 27 -19 34 -35 11
-28 9 -33 -18 -62 -16 -18 -42 -49 -57 -70 -23 -31 -31 -36 -54 -31 -15 4 -37
13 -50 21 -28 17 -84 102 -76 115 3 5 24 23 46 39 34 24 51 29 97 29 31 0 66
-3 78 -6z m217 -40 c23 -9 20 -69 -5 -114 -19 -34 -26 -38 -73 -44 -75 -9
-176 -7 -176 3 0 4 26 36 58 70 69 75 141 106 196 85z"/>
<path d="M10600 7480 c0 -5 5 -10 11 -10 5 0 7 5 4 10 -3 6 -8 10 -11 10 -2 0
-4 -4 -4 -10z"/>
<path d="M7880 7099 c0 -5 5 -7 10 -4 6 3 10 8 10 11 0 2 -4 4 -10 4 -5 0 -10
-5 -10 -11z"/>
<path d="M7719 6798 c-167 -315 -374 -727 -367 -733 3 -3 76 135 163 307 86
172 172 338 189 368 61 102 145 270 137 270 -5 0 -60 -96 -122 -212z"/>
<path d="M11794 6110 c16 -5 61 -12 100 -15 39 -4 88 -13 109 -21 42 -16 66
-19 52 -6 -24 21 -108 41 -195 45 -63 4 -85 3 -66 -3z"/>
<path d="M7311 6002 c-13 -25 -14 -32 -2 -32 9 0 23 41 16 48 -2 2 -8 -5 -14
-16z"/>
<path d="M9160 7725 c-8 -2 -76 -11 -150 -21 -427 -54 -773 -233 -932 -484
-56 -88 -331 -585 -384 -695 -27 -55 -52 -102 -55 -105 -8 -7 -184 -356 -307
-610 -108 -223 -140 -309 -172 -475 -59 -309 -49 -636 50 -1550 16 -148 34
-326 40 -395 13 -157 27 -239 46 -267 19 -29 55 -30 177 -2 50 11 223 47 382
80 160 33 304 64 320 69 17 5 138 32 270 59 335 70 754 160 790 171 17 5 82
19 145 30 63 12 163 33 222 47 89 21 110 29 124 51 16 25 15 56 -30 641 -26
339 -58 735 -71 881 -22 244 -47 541 -49 583 0 9 -5 17 -11 18 -46 5 -268 -4
-390 -16 -82 -8 -235 -22 -340 -30 -104 -9 -289 -24 -410 -35 -276 -24 -537
-45 -820 -66 -207 -15 -344 -29 -350 -36 -1 -2 -6 -13 -9 -25 -6 -20 -4 -23
21 -23 37 0 1080 87 1198 100 50 5 185 16 300 25 116 9 272 22 348 30 75 8
158 15 183 15 40 0 45 -2 39 -17 -4 -10 -9 -35 -12 -55 -7 -47 10 -70 46 -63
20 4 22 3 7 -3 -15 -6 -16 -11 -7 -16 7 -5 18 -3 24 3 21 21 35 11 66 -41 35
-61 80 -118 81 -102 0 6 -19 40 -42 75 -24 35 -43 69 -44 74 -1 6 -2 16 -3 23
-1 8 -8 11 -20 7 -11 -3 -22 -1 -26 5 -3 5 -17 7 -30 4 -12 -3 -26 -1 -29 5
-5 7 3 11 19 11 24 0 25 2 19 40 -4 22 -4 40 -1 40 21 0 38 -17 48 -48 7 -21
22 -51 35 -67 13 -17 39 -66 58 -108 20 -42 38 -77 42 -77 16 0 -4 148 -27
200 -32 74 -47 94 -91 117 -36 19 -40 33 -11 33 8 0 12 -4 8 -10 -3 -5 21 -10
57 -12 l63 -3 2 -55 c3 -68 38 -518 58 -735 21 -247 34 -401 50 -635 9 -118
20 -260 25 -315 5 -55 13 -149 16 -210 8 -130 4 -136 -91 -153 -53 -9 -367
-76 -725 -156 -63 -14 -297 -64 -520 -111 -223 -47 -445 -95 -495 -106 -49
-12 -101 -23 -115 -25 -14 -2 -77 -15 -140 -29 -304 -69 -301 -69 -323 -22 -9
18 -21 84 -27 147 -6 63 -22 219 -35 345 -14 127 -32 304 -40 395 -9 91 -20
201 -25 245 -38 324 -43 648 -14 955 9 104 59 302 83 335 4 6 13 29 19 51 7
23 19 47 27 54 8 7 15 19 15 26 0 8 4 22 9 32 6 9 76 150 156 312 81 162 153
306 161 320 7 14 74 140 149 280 75 140 140 262 145 270 5 8 37 65 71 125 126
223 176 286 306 382 224 166 516 255 912 279 l114 7 -21 -21 c-25 -25 -26 -30
-12 -67 8 -22 15 -26 42 -23 30 3 33 7 36 38 3 24 -2 38 -14 47 -17 12 -17 13
0 13 10 0 16 6 14 13 -3 8 -34 12 -104 14 -54 0 -106 0 -114 -2z m393 -2002
c-7 -2 -21 -2 -30 0 -10 3 -4 5 12 5 17 0 24 -2 18 -5z m-353 -23 c-8 -5 -35
-9 -60 -8 l-45 1 50 7 c28 4 55 7 60 8 6 1 3 -3 -5 -8z m-292 -27 c-15 -2 -42
-2 -60 0 -18 2 -6 4 27 4 33 0 48 -2 33 -4z m-178 -14 c-190 -17 -245 -20
-238 -14 8 8 174 22 263 22 52 0 48 -1 -25 -8z m-270 -19 c-8 -5 -22 -9 -30
-9 -10 0 -8 3 5 9 27 12 43 12 25 0z m900 -10 c0 -5 -2 -10 -4 -10 -3 0 -8 5
-11 10 -3 6 -1 10 4 10 6 0 11 -4 11 -10z m110 -18 c0 -15 -2 -15 -10 -2 -13
20 -13 33 0 25 6 -3 10 -14 10 -23z m-1157 11 c-7 -2 -21 -2 -30 0 -10 3 -4 5
12 5 17 0 24 -2 18 -5z m-90 -10 c-13 -2 -35 -2 -50 0 -16 2 -5 4 22 4 28 0
40 -2 28 -4z m-115 -10 c-16 -2 -40 -2 -55 0 -16 2 -3 4 27 4 30 0 43 -2 28
-4z m-280 -20 c-10 -2 -26 -2 -35 0 -10 3 -2 5 17 5 19 0 27 -2 18 -5z m1682
-3 c8 -5 11 -10 5 -10 -6 0 -6 -3 1 -8 11 -7 37 -72 29 -72 -7 0 -65 82 -65
92 0 11 11 10 30 -2z m-1762 -7 c-10 -2 -28 -2 -40 0 -13 2 -5 4 17 4 22 1 32
-1 23 -4z m-228 -19 c0 -2 -12 -4 -26 -4 -14 0 -23 4 -20 9 6 8 46 4 46 -5z
m93 9 c-13 -2 -35 -2 -50 0 -16 2 -5 4 22 4 28 0 40 -2 28 -4z m-213 -13 c-8
-5 -22 -10 -30 -10 -13 0 -13 1 0 10 8 5 22 10 30 10 13 0 13 -1 0 -10z m-67
-7 c-7 -2 -19 -2 -25 0 -7 3 -2 5 12 5 14 0 19 -2 13 -5z m2227 -96 c0 -5 -4
-5 -10 -2 -5 3 -10 14 -10 23 0 15 2 15 10 2 5 -8 10 -19 10 -23z"/>
<path d="M8955 7609 c-153 -24 -276 -59 -390 -111 -160 -73 -269 -154 -370
-272 -18 -22 -75 -109 -126 -195 -51 -86 -103 -166 -116 -179 -13 -13 -23 -31
-23 -40 0 -9 -6 -28 -13 -42 -112 -212 -140 -269 -174 -350 -54 -127 -85 -223
-92 -290 l-6 -55 -43 -7 c-73 -12 -117 -39 -117 -70 0 -14 -3 -29 -7 -33 -6
-6 -3 -50 8 -102 6 -32 57 -32 78 -1 23 32 20 62 -10 97 l-26 31 24 8 c47 18
89 22 92 9 31 -108 71 -163 144 -199 l47 -23 -222 -9 c-135 -5 -220 -12 -217
-18 7 -11 365 -2 439 12 28 5 124 14 215 20 149 9 398 29 985 76 110 9 259 18
330 19 72 2 141 8 155 14 19 9 1 10 -80 6 l-105 -6 45 24 c71 37 89 79 96 228
4 68 2 178 -5 244 -40 443 -40 444 -29 451 5 3 4 12 -3 20 -7 8 -16 65 -20
127 -13 180 -36 390 -48 433 -21 76 -85 159 -144 187 -47 22 -116 21 -272 -4z
m257 -19 c37 -11 95 -66 122 -118 19 -37 41 -195 57 -405 11 -146 9 -192 -5
-176 -2 2 -11 92 -21 199 -27 319 -51 399 -133 455 -32 22 -47 25 -122 25
-101 0 -223 -20 -358 -59 -305 -88 -505 -242 -653 -505 -95 -169 -103 -180
-107 -167 -2 6 19 52 47 100 28 49 51 93 51 99 0 6 4 12 8 14 5 2 28 32 52 68
24 36 81 104 128 152 159 164 401 273 697 313 115 16 191 18 237 5z m16 -67
c74 -60 99 -155 122 -463 7 -85 13 -161 16 -167 2 -7 -2 -13 -9 -13 -7 0 -25
24 -41 53 -30 53 -90 151 -180 292 -50 79 -191 254 -231 287 -11 10 -15 18
-10 18 6 1 53 7 105 15 134 20 182 15 228 -22z m-353 -43 c21 -17 49 -45 62
-63 13 -17 29 -37 36 -42 33 -27 247 -360 310 -481 l15 -29 -129 0 c-71 0
-132 5 -137 10 -5 6 -19 38 -32 73 -57 157 -195 335 -360 464 -19 15 -32 29
-30 31 10 9 186 66 206 66 12 1 38 -13 59 -29z m-244 -133 c127 -110 226 -237
295 -380 51 -107 51 -107 -54 -107 -49 0 -210 -3 -358 -6 l-269 -7 -22 79
c-12 43 -27 98 -34 121 -11 35 -10 47 2 70 15 30 144 163 195 202 41 31 146
91 160 91 6 0 44 -29 85 -63z m379 23 c17 -22 29 -40 27 -40 -3 0 -20 18 -37
40 -17 22 -29 40 -27 40 3 0 20 -18 37 -40z m128 -182 c38 -57 90 -141 117
-188 26 -47 54 -93 63 -103 8 -9 13 -20 10 -22 -6 -6 -36 40 -107 163 -23 40
-66 108 -95 150 -63 93 -69 102 -62 102 3 0 36 -46 74 -102z m-984 -230 c31
-110 31 -108 0 -109 -62 -3 -74 6 -74 54 0 28 38 107 52 107 4 0 14 -24 22
-52z m-104 -108 c0 -5 -4 -10 -10 -10 -5 0 -10 5 -10 10 0 6 5 10 10 10 6 0
10 -4 10 -10z m980 -14 c-6 -8 -19 -12 -27 -9 -14 6 -14 8 3 14 30 12 37 10
24 -5z m360 4 c0 -5 -4 -10 -10 -10 -5 0 -10 5 -10 10 0 6 5 10 10 10 6 0 10
-4 10 -10z m-423 -6 c-3 -3 -12 -4 -19 -1 -8 3 -5 6 6 6 11 1 17 -2 13 -5z
m-989 -33 c3 -16 -1 -22 -10 -19 -7 3 -15 15 -16 27 -3 16 1 22 10 19 7 -3 15
-15 16 -27z m417 23 c-44 -7 -373 -9 -368 -1 2 4 91 6 196 6 106 -1 183 -3
172 -5z m602 -84 c7 -36 12 -94 13 -129 l0 -63 -62 6 c-165 18 -165 18 -195 0
-35 -23 -76 -66 -115 -123 l-31 -44 -106 5 c-187 10 -214 38 -231 248 -7 72
-10 133 -8 136 2 2 150 8 328 15 179 6 327 13 330 16 2 2 18 3 35 1 29 -3 31
-6 42 -68z m348 48 c21 -31 32 -78 40 -174 7 -80 6 -81 -17 -87 -24 -6 -210 7
-264 18 -31 7 -31 7 -37 88 -3 45 -9 103 -13 130 l-7 47 141 0 c135 0 142 -1
157 -22z m25 12 c0 -5 -2 -10 -4 -10 -3 0 -8 5 -11 10 -3 6 -1 10 4 10 6 0 11
-4 11 -10z m44 -37 c18 -118 39 -420 40 -558 1 -151 -1 -162 -23 -198 -26 -42
-51 -58 -131 -80 -55 -15 -82 -18 -345 -37 -77 -6 -162 -12 -190 -15 -27 -2
-84 -7 -125 -9 -229 -17 -375 -28 -550 -42 -218 -18 -265 -13 -335 34 -42 28
-85 99 -85 139 0 34 17 28 30 -11 18 -55 64 -110 108 -130 39 -18 50 -18 534
13 747 48 974 73 1029 114 9 7 26 28 38 47 28 46 28 166 1 505 -23 296 -22
265 -11 265 5 0 12 -17 15 -37z m-1345 -5 c14 -36 32 -192 38 -325 6 -121 6
-123 -16 -123 -20 0 -21 5 -22 93 0 50 -8 153 -18 227 -10 74 -16 138 -14 143
8 14 24 7 32 -15z m124 -63 c13 -131 37 -247 58 -282 20 -32 73 -59 134 -66
17 -2 -18 -5 -77 -6 -96 -1 -109 -3 -120 -21 -7 -11 -21 -20 -30 -20 -14 0
-18 9 -18 38 -1 72 -20 358 -26 400 l-7 43 39 -3 39 -3 8 -80z m-251 26 c-13
-8 -146 -276 -189 -380 -19 -47 -43 -124 -52 -170 -10 -47 -23 -87 -30 -89
-34 -11 28 184 122 383 96 206 151 305 155 281 2 -10 0 -21 -6 -25z m52 2 c3
-10 8 -102 12 -204 l7 -187 -49 -5 c-27 -4 -76 -9 -109 -12 -59 -5 -60 -5 -35
12 98 68 140 156 148 311 4 95 14 126 26 85z m52 -264 c6 -129 5 -146 -9 -152
-14 -5 -15 -2 -6 21 7 17 9 64 5 122 -16 242 -16 238 -6 195 5 -22 12 -106 16
-186z m-116 158 c0 -32 -23 -134 -36 -159 -24 -46 -96 -110 -109 -96 -7 7 124
268 134 268 6 0 11 -6 11 -13z m950 -70 c0 -1 -29 -32 -64 -69 -46 -47 -75
-88 -103 -147 l-38 -81 -47 0 c-61 0 -61 10 -7 110 78 143 130 190 212 190 26
0 47 -1 47 -3z m78 -64 c-51 -53 -121 -157 -140 -208 -11 -31 -15 -34 -62 -37
-28 -2 -53 -3 -55 -1 -11 8 24 83 72 157 66 101 112 136 181 136 l50 0 -46
-47z m128 -14 c-55 -50 -136 -160 -155 -212 -9 -24 -16 -27 -56 -27 -59 0 -58
10 4 114 76 125 138 176 214 176 l49 0 -56 -51z m139 -5 c-64 -64 -88 -98
-130 -181 l-36 -73 -59 0 c-44 0 -60 4 -60 13 0 8 23 52 50 98 74 125 154 188
238 189 l44 0 -47 -46z m128 8 c-40 -35 -112 -141 -143 -214 l-25 -57 -51 1
-51 0 31 70 c60 133 160 228 241 228 l30 -1 -32 -27z m47 -45 c0 -23 -7 -52
-15 -63 -8 -12 -30 -53 -50 -92 -40 -81 -37 -78 -88 -87 -32 -6 -37 -5 -37 11
0 25 52 135 86 182 29 40 83 92 96 92 4 0 8 -19 8 -43z m13 -154 c2 -43 3 -81
0 -85 -7 -12 -93 -9 -93 2 0 15 74 159 81 160 4 0 9 -35 12 -77z m-833 58 c0
-4 -5 -23 -11 -40 l-11 -33 -67 6 c-36 3 -94 8 -128 12 -56 5 -65 3 -96 -20
l-34 -26 -17 24 c-35 55 -24 62 109 65 49 1 96 6 105 11 19 12 150 13 150 1z
m-607 -28 c-7 -2 -19 -2 -25 0 -7 3 -2 5 12 5 14 0 19 -2 13 -5z m-88 -13
c-22 -5 -60 -16 -84 -24 -56 -20 -60 -20 -54 3 6 23 25 28 113 29 59 0 62 -1
25 -8z m280 -16 c48 -22 66 -79 59 -187 -8 -136 -41 -177 -140 -177 -96 0
-354 81 -354 112 0 16 199 47 263 41 46 -5 77 7 77 29 0 19 -50 58 -74 58 -14
0 -33 -8 -43 -18 -12 -13 -45 -23 -103 -30 -131 -18 -130 -19 -130 27 0 65 15
90 67 113 96 42 317 61 378 32z m220 -14 l26 -10 -42 -33 c-24 -17 -62 -61
-86 -96 l-43 -65 0 76 c0 83 7 95 70 122 42 18 42 18 75 6z m133 -20 c14 -1
12 -5 -8 -23 -29 -27 -98 -110 -122 -147 -9 -14 -30 -59 -47 -100 -18 -41 -37
-78 -44 -82 -7 -4 -32 -8 -56 -8 -42 0 -43 1 -37 28 14 56 99 213 142 261 43
48 112 85 142 75 8 -2 21 -4 30 -4z m152 -18 c0 -4 -15 -16 -33 -25 -51 -28
-124 -122 -171 -219 l-41 -88 -48 0 c-57 0 -57 0 1 115 42 85 86 143 142 190
37 31 49 35 96 35 30 0 54 -3 54 -8z m82 -47 c-40 -36 -64 -71 -108 -160 l-57
-115 -68 0 -68 0 45 91 c33 67 60 107 102 147 66 64 100 81 161 82 l43 0 -50
-45z m161 29 c4 -4 -20 -33 -53 -64 -43 -42 -70 -80 -100 -141 l-40 -84 -50
-5 c-61 -7 -62 -3 -14 93 57 112 89 150 158 189 31 17 87 24 99 12z m127 -20
c0 -4 -26 -34 -58 -68 -32 -35 -73 -92 -92 -129 l-35 -67 -52 0 c-29 0 -53 2
-53 5 0 10 62 129 88 168 32 49 114 97 165 97 20 0 37 -3 37 -6z m132 -9 c3
-3 -26 -38 -66 -78 -39 -40 -83 -93 -98 -119 -27 -47 -28 -48 -79 -48 l-51 0
28 48 c64 111 102 156 159 185 29 16 96 23 107 12z m138 -11 c0 -4 -20 -24
-44 -45 -23 -21 -62 -67 -85 -102 -39 -61 -44 -65 -88 -71 -88 -12 -88 -12
-61 35 55 98 171 189 241 189 20 0 37 -3 37 -6z m100 -16 c-1 -7 -20 -33 -45
-57 -24 -24 -52 -59 -61 -77 -19 -35 -56 -54 -106 -54 -27 0 -28 2 -17 23 24
44 95 121 138 149 47 29 91 37 91 16z m-1375 -34 c12 -12 13 -19 4 -30 -15
-18 -20 -18 -13 1 4 9 -3 16 -20 21 -14 3 -26 10 -26 15 0 15 38 10 55 -7z
m-65 -24 c-8 -5 -28 -10 -45 -10 -16 0 -109 -14 -205 -30 -146 -25 -178 -33
-193 -51 -19 -24 -31 -21 -21 5 10 27 32 33 200 60 240 38 291 43 264 26z
m1440 0 c0 -8 -35 -85 -44 -97 0 -1 -14 -5 -29 -9 l-29 -7 16 30 c31 61 86
113 86 83z m-1562 -150 c46 -17 111 -33 143 -37 114 -12 51 -43 -87 -43 -88 0
-137 29 -175 102 -25 49 -24 52 9 28 15 -11 65 -33 110 -50z m-288 -32 c0 -28
-8 -21 -19 15 l-9 32 -1 -37 c-1 -21 4 -38 9 -38 6 0 10 -4 10 -10 0 -5 -11
-10 -24 -10 -21 0 -24 5 -28 41 -3 34 0 43 17 49 23 9 45 -12 45 -42z m620 -5
c-1 -24 -20 -34 -60 -31 -59 4 -64 26 -8 31 24 2 49 4 56 5 6 1 12 -1 12 -5z"/>
<path d="M9695 7618 c-45 -16 -82 -55 -100 -106 -21 -64 -19 -172 10 -422 14
-118 34 -312 45 -430 26 -277 55 -491 75 -558 20 -66 61 -112 111 -127 39 -11
39 -11 -40 -18 -44 -4 -81 -5 -83 -3 -3 2 -9 53 -14 112 -11 122 -19 148 -18
53 1 -76 12 -176 21 -184 9 -9 219 13 233 25 6 5 27 7 46 4 19 -3 84 -1 144 6
61 6 178 15 260 20 203 12 464 38 498 50 18 6 26 6 22 0 -8 -14 50 -12 173 4
190 26 109 33 -103 10 l-50 -6 50 34 c131 87 150 285 55 570 -55 165 -168 356
-304 516 -140 164 -394 339 -586 401 -169 55 -366 76 -445 49z m293 -53 c104
-21 193 -51 277 -92 82 -41 295 -181 295 -194 0 -5 -33 15 -73 46 -147 110
-375 202 -577 232 -133 20 -188 13 -237 -30 -20 -17 -42 -45 -50 -62 l-14 -30
6 30 c8 42 35 77 76 97 44 23 190 24 297 3z m-58 -30 c52 -7 127 -24 165 -37
l70 -22 -225 -9 c-229 -8 -294 -5 -288 15 8 22 58 52 100 59 66 10 76 10 178
-6z m428 -143 c23 -12 42 -26 42 -31 0 -4 12 -13 27 -20 40 -19 187 -136 216
-173 15 -18 33 -41 41 -50 50 -57 119 -153 156 -217 45 -79 120 -235 120 -251
0 -10 -10 -10 -390 15 -124 8 -315 20 -425 25 -253 13 -331 23 -388 48 -67 30
-76 50 -87 193 -5 68 -16 200 -25 293 -8 94 -13 176 -10 183 4 12 66 13 342
11 329 -3 339 -4 381 -26z m257 -162 c10 -11 16 -20 13 -20 -3 0 -13 9 -23 20
-10 11 -16 20 -13 20 3 0 13 -9 23 -20z m55 -55 c13 -14 21 -25 18 -25 -2 0
-15 11 -28 25 -13 14 -21 25 -18 25 2 0 15 -11 28 -25z m166 -214 c142 -213
216 -419 218 -601 1 -89 -2 -112 -22 -155 -26 -57 -44 -75 -99 -104 -53 -27
-124 -37 -408 -61 -638 -52 -706 -50 -751 24 -25 41 -42 86 -43 111 0 11 9 -2
20 -30 11 -27 33 -65 50 -84 l31 -34 173 1 c177 1 466 21 705 48 169 19 248
48 291 107 28 39 29 43 29 161 0 123 -2 135 -40 266 -37 131 -133 314 -237
455 -38 50 -39 54 -9 20 20 -22 62 -78 92 -124z m-1003 -286 c38 -9 266 -27
597 -45 294 -17 537 -34 541 -38 9 -10 27 -70 34 -119 l6 -41 -98 4 c-103 5
-214 12 -298 19 -27 3 -75 6 -106 8 -30 2 -72 10 -92 16 -20 7 -45 10 -55 7
-11 -4 -48 0 -83 8 -161 37 -435 29 -522 -14 -44 -22 -43 -24 -52 80 -3 41 -8
96 -12 122 l-5 47 41 -20 c23 -11 69 -26 104 -34z m430 -196 l37 -10 -48 -47
c-54 -53 -126 -185 -163 -302 -27 -84 -31 -86 -163 -77 -87 6 -92 8 -119 39
-34 41 -66 140 -74 233 l-6 71 44 36 c54 44 84 59 129 69 45 10 313 1 363 -12z
m-492 -34 c-43 -39 -51 -42 -51 -20 0 16 55 55 78 55 6 0 -5 -16 -27 -35z
m649 15 c13 -8 11 -12 -10 -27 -70 -48 -161 -193 -200 -318 -7 -22 -17 -46
-23 -52 -13 -17 -97 -17 -97 0 0 21 59 167 96 237 64 123 175 198 234 160z
m124 -18 c3 -5 -12 -25 -33 -44 -57 -55 -108 -135 -151 -239 l-39 -94 -47 -8
c-27 -5 -51 -4 -56 1 -12 12 51 167 95 237 49 78 104 132 145 143 48 13 80 14
86 4z m134 -11 c10 -6 7 -12 -11 -24 -62 -40 -120 -116 -173 -224 -45 -92 -59
-113 -77 -113 -12 0 -32 -3 -44 -6 -19 -5 -23 -2 -23 15 0 28 89 199 136 261
54 71 151 117 192 91z m142 -7 c0 -3 -24 -29 -53 -58 -54 -53 -119 -155 -153
-237 l-18 -47 -61 -5 c-33 -3 -62 -4 -64 -2 -12 13 84 195 134 254 29 34 96
78 136 89 40 12 79 15 79 6z m120 -7 c0 -2 -27 -30 -59 -64 -41 -42 -74 -90
-107 -155 -25 -51 -52 -96 -58 -100 -13 -9 -96 -11 -96 -2 0 3 21 47 47 97 54
105 139 200 194 215 33 10 79 15 79 9z m70 -31 c0 -13 -7 -30 -17 -37 -22 -19
-80 -111 -115 -181 -26 -54 -29 -57 -73 -64 -25 -3 -48 -4 -51 -1 -7 6 81 173
113 216 27 34 107 91 130 91 7 0 13 -11 13 -24z m7 -95 c-9 -73 -40 -128 -83
-146 -53 -22 -57 -19 -33 28 31 61 102 167 113 167 5 0 6 -22 3 -49z m-1300
-3 c-3 -8 -6 -5 -6 6 -1 11 2 17 5 13 3 -3 4 -12 1 -19z m10 -80 c-3 -7 -5 -2
-5 12 0 14 2 19 5 13 2 -7 2 -19 0 -25z"/>
<path d="M9662 6325 c-1 -33 3 -78 7 -100 l9 -40 0 50 c0 28 -3 73 -8 100 l-7
50 -1 -60z"/>
<path d="M11026 5831 c-8 -12 3 -41 15 -41 5 0 9 5 9 10 0 6 -6 10 -12 10 -10
0 -9 3 1 9 8 5 9 11 3 15 -6 3 -13 2 -16 -3z"/>
<path d="M11275 5891 c-3 -5 -1 -12 5 -16 5 -3 10 1 10 9 0 18 -6 21 -15 7z"/>
<path d="M11256 5598 c-9 -58 -14 -294 -7 -268 8 27 22 300 16 300 -2 0 -6
-15 -9 -32z"/>
<path d="M11231 5234 c0 -11 3 -14 6 -6 3 7 2 16 -1 19 -3 4 -6 -2 -5 -13z"/>
<path d="M11226 5157 c-4 -27 -5 -51 -2 -54 7 -7 19 61 14 84 -2 10 -8 -4 -12
-30z"/>
<path d="M1305 4489 c-77 -57 -155 -140 -155 -165 0 -13 3 -24 8 -24 4 0 32
20 61 44 30 25 58 43 63 40 4 -3 15 -29 23 -58 19 -64 41 -99 48 -76 7 21 15
242 10 258 -6 17 -12 15 -58 -19z m4 -81 c1 -5 -3 -8 -8 -8 -11 0 -21 37 -13
45 6 5 20 -19 21 -37z m18 10 c-3 -7 -5 -2 -5 12 0 14 2 19 5 13 2 -7 2 -19 0
-25z m-57 8 c0 -3 -4 -8 -10 -11 -5 -3 -10 -1 -10 4 0 6 5 11 10 11 6 0 10 -2
10 -4z"/>
<path d="M1158 4270 c-37 -38 -68 -76 -68 -85 0 -22 8 -19 56 20 45 37 47 37
58 -10 9 -37 34 -77 44 -71 4 2 9 52 10 110 4 132 -4 135 -100 36z m49 -12
c-3 -7 -5 -2 -5 12 0 14 2 19 5 13 2 -7 2 -19 0 -25z"/>
<path d="M815 4100 c-3 -5 -1 -10 4 -10 6 0 11 5 11 10 0 6 -2 10 -4 10 -3 0
-8 -4 -11 -10z"/>
<path d="M870 3941 c-32 -9 -19 -16 50 -30 30 -6 69 -15 85 -20 l30 -9 -33 -1
c-71 -2 -20 -30 257 -143 250 -101 229 -94 211 -76 -8 8 -104 57 -213 108
-109 52 -194 96 -188 98 5 2 37 -11 71 -28 34 -17 67 -29 73 -27 14 5 -126 71
-193 91 -26 8 -61 21 -78 30 -33 17 -35 17 -72 7z"/>
<path d="M826 3904 c-9 -24 -7 -28 9 -14 17 14 20 30 6 30 -5 0 -12 -7 -15
-16z"/>
<path d="M980 3580 c0 -5 9 -10 21 -10 11 0 68 -11 127 -24 126 -28 192 -37
192 -26 0 4 -17 10 -37 13 -21 2 -91 16 -155 31 -130 29 -148 31 -148 16z"/>
<path d="M877 3500 c18 -32 33 -39 33 -17 0 14 -31 47 -44 47 -4 0 1 -13 11
-30z"/>
<path d="M740 3131 c0 -56 3 -64 37 -102 54 -59 195 -126 383 -180 299 -87
290 -84 290 -71 0 5 -33 16 -72 26 -40 11 -142 41 -226 68 -316 102 -412 167
-395 270 3 21 1 38 -6 42 -8 5 -11 -12 -11 -53z"/>
<path d="M850 4836 c0 -14 5 -26 10 -26 6 0 10 9 10 19 0 11 -4 23 -10 26 -6
4 -10 -5 -10 -19z"/>
<path d="M870 4780 c0 -11 5 -20 10 -20 6 0 10 9 10 20 0 11 -4 20 -10 20 -5
0 -10 -9 -10 -20z"/>
<path d="M663 4734 c-3 -8 -1 -20 6 -27 8 -8 11 -4 11 16 0 30 -7 35 -17 11z"/>
<path d="M667 4674 c-8 -8 1 -24 14 -24 5 0 9 7 9 15 0 15 -12 20 -23 9z"/>
<path d="M3271 2874 c-25 -12 -58 -34 -73 -50 -76 -82 -76 -260 0 -327 11 -11
25 -16 30 -13 5 3 24 1 41 -5 36 -13 112 3 132 27 13 16 33 19 24 4 -3 -5 -2
-10 4 -10 6 0 17 10 25 23 15 23 51 125 60 167 3 14 3 -1 0 -33 -6 -81 -44
-150 -99 -180 -18 -9 -19 -9 -6 6 17 22 7 22 -25 0 -19 -12 -22 -18 -12 -24
20 -13 -64 -11 -101 2 -45 16 -52 2 -8 -16 88 -37 165 -10 224 79 42 62 57
117 49 186 -7 56 -47 136 -76 150 -78 37 -131 41 -189 14z m149 -30 c17 -15
37 -38 44 -53 18 -34 31 -121 19 -121 -5 0 -9 15 -10 33 -2 62 -50 135 -103
156 -24 9 -24 10 -3 10 12 1 35 -11 53 -25z m-72 0 c12 -4 22 -12 22 -19 0 -7
13 -17 28 -23 47 -16 74 -136 40 -179 -5 -7 -7 -17 -4 -22 7 -11 -60 -80 -89
-91 -11 -4 -31 -11 -44 -15 -39 -12 -15 13 35 36 45 22 54 33 32 42 -7 3 -1 6
14 6 23 1 29 7 38 41 18 65 15 128 -6 151 -24 27 -67 49 -94 49 -29 0 -91 -30
-85 -40 3 -5 -1 -15 -9 -22 -7 -8 -15 -31 -18 -52 -3 -30 0 -39 16 -48 15 -8
21 -8 24 1 2 6 11 18 19 27 8 8 13 24 10 34 -3 11 -1 23 4 26 5 3 9 0 9 -5 0
-6 7 -11 15 -11 8 0 15 -8 14 -17 0 -11 -3 -13 -6 -5 -2 6 -9 10 -14 6 -13 -8
-11 -20 4 -22 6 -1 28 -5 47 -11 32 -9 30 -10 -25 -8 -57 1 -85 -14 -37 -21
12 -2 22 -8 22 -15 0 -8 3 -8 12 1 18 18 48 15 48 -5 0 -18 -28 -53 -42 -53
-5 0 -8 6 -5 13 2 6 10 12 17 12 7 0 15 6 18 13 3 9 -3 10 -24 2 -15 -6 -33
-9 -40 -6 -7 3 -17 -1 -23 -8 -9 -10 -6 -15 11 -19 36 -10 12 -20 -28 -13 -32
7 -34 9 -18 20 16 12 14 13 -13 12 -30 -1 -30 -2 -17 -27 7 -14 27 -32 44 -39
16 -7 30 -16 30 -20 0 -34 -63 1 -85 47 -42 89 -10 211 68 258 45 27 50 28 85
19z m-15 -51 c-7 -2 -19 -2 -25 0 -7 3 -2 5 12 5 14 0 19 -2 13 -5z m-43 -11
c0 -14 -11 -21 -26 -15 -8 3 -11 9 -8 14 7 11 34 12 34 1z m220 -32 c6 -20 6
-30 1 -24 -11 10 -27 72 -17 63 4 -4 11 -21 16 -39z m-102 4 c6 -12 7 -26 2
-34 -7 -11 -11 -8 -19 14 -6 15 -8 32 -5 38 7 11 8 10 22 -18z m-58 2 c0 11
20 -18 20 -30 0 -5 -6 -3 -13 3 -8 6 -18 7 -23 3 -5 -4 -6 -3 -2 2 4 5 2 16
-5 25 -11 14 -10 14 6 2 9 -7 17 -10 17 -5z m62 -98 c-9 -9 -12 -7 -12 12 0
19 3 21 12 12 9 -9 9 -15 0 -24z m-10 -40 c-7 -7 -12 -8 -12 -2 0 6 3 14 7 17
3 4 9 5 12 2 2 -3 -1 -11 -7 -17z"/>
<path d="M3210 2638 c0 -14 30 -22 41 -11 7 7 2 12 -15 15 -14 3 -26 1 -26 -4z"/>
<path d="M2755 4350 c-3 -5 -2 -10 3 -10 5 0 14 -15 20 -32 10 -32 10 -32 11
-6 1 15 -4 30 -9 33 -6 4 -8 11 -5 16 4 5 2 9 -4 9 -5 0 -13 -4 -16 -10z"/>
<path d="M2670 4246 c0 -35 12 -47 25 -26 3 6 1 10 -5 10 -7 0 -9 8 -5 19 3
11 1 22 -5 26 -6 4 -10 -7 -10 -29z"/>
<path d="M2450 4199 c0 -17 3 -20 11 -12 6 6 18 9 25 6 8 -3 14 0 14 6 0 6 -4
11 -9 11 -5 0 -16 3 -25 6 -12 5 -16 0 -16 -17z"/>
<path d="M2995 3759 c-11 -17 0 -20 21 -4 17 13 17 14 2 15 -9 0 -20 -5 -23
-11z"/>
<path d="M11995 2970 c-3 -5 -1 -10 4 -10 6 0 11 5 11 10 0 6 -2 10 -4 10 -3
0 -8 -4 -11 -10z"/>
<path d="M11930 3755 c0 -8 5 -15 10 -15 6 0 10 7 10 15 0 8 -4 15 -10 15 -5
0 -10 -7 -10 -15z"/>
<path d="M12004 3648 c-4 -6 1 -17 11 -24 14 -11 20 -11 32 1 8 8 11 19 8 25
-8 14 -42 13 -51 -2z m26 -8 c0 -5 -5 -10 -11 -10 -5 0 -7 5 -4 10 3 6 8 10
11 10 2 0 4 -4 4 -10z"/>
<path d="M11660 3519 c0 -16 4 -28 9 -25 8 5 3 56 -5 56 -2 0 -4 -14 -4 -31z"/>
<path d="M12205 3504 c-97 -242 -246 -394 -387 -394 -24 0 -37 -4 -33 -10 3
-5 15 -10 26 -10 11 0 17 -4 14 -10 -11 -18 68 -10 114 10 60 28 47 34 -18 9
-30 -11 -56 -18 -59 -15 -3 3 4 8 14 12 102 35 199 120 257 225 45 80 100 209
93 217 -3 3 -13 -12 -21 -34z"/>
<path d="M11730 3483 c1 -14 30 -47 36 -41 6 7 -17 48 -28 48 -5 0 -8 -3 -8
-7z"/>
<path d="M12100 3354 c0 -8 5 -12 10 -9 6 3 10 10 10 16 0 5 -4 9 -10 9 -5 0
-10 -7 -10 -16z"/>
<path d="M11960 3259 c0 -5 5 -7 10 -4 6 3 10 8 10 11 0 2 -4 4 -10 4 -5 0
-10 -5 -10 -11z"/>
<path d="M11920 3167 c-30 -19 -47 -22 -120 -20 -78 2 -83 1 -65 -13 28 -22
127 -13 188 17 26 13 47 27 47 31 0 13 -13 9 -50 -15z"/>
<path d="M2667 3746 c-4 -10 -5 -21 -2 -24 9 -9 17 6 13 25 -3 17 -4 17 -11
-1z"/>
<path d="M5517 3342 c-4 -5 34 -22 84 -38 49 -17 88 -25 86 -20 -2 6 -20 15
-39 21 -20 5 -40 13 -44 18 -4 4 -19 7 -34 7 -14 0 -31 5 -37 11 -6 6 -13 7
-16 1z"/>
<path d="M5940 3316 c0 -2 28 -22 61 -46 34 -24 60 -37 57 -30 -7 23 -118 94
-118 76z"/>
<path d="M5030 3165 c-194 -23 -375 -94 -540 -212 -67 -48 -201 -188 -255
-267 -145 -214 -206 -433 -190 -680 23 -362 224 -665 545 -826 175 -88 271
-110 474 -110 215 0 306 19 501 108 114 52 131 63 235 151 192 164 302 336
371 581 21 74 24 106 24 255 0 148 -3 181 -24 255 -141 506 -607 809 -1141
745z m239 -15 c208 -27 387 -98 535 -214 92 -72 126 -107 184 -188 284 -391
245 -931 -93 -1296 -184 -199 -410 -314 -701 -356 -264 -39 -570 50 -789 229
-146 121 -271 325 -322 531 -26 105 -24 325 5 429 24 90 74 231 99 278 38 74
116 178 194 258 174 178 413 295 665 328 98 12 129 12 223 1z"/>
<path d="M5080 3083 c-146 -10 -356 -83 -458 -160 -48 -36 -32 -40 20 -6 24
16 68 39 98 52 30 13 69 30 85 38 32 14 140 43 164 43 31 0 -3 -15 -59 -26
-32 -7 -95 -28 -140 -48 -275 -119 -476 -349 -546 -623 -62 -245 -1 -541 144
-704 63 -70 71 -61 12 13 -163 202 -205 506 -108 773 12 33 27 69 33 80 51 95
87 147 138 201 64 69 186 164 209 164 9 0 21 7 28 15 7 8 18 15 26 15 7 0 29
11 48 24 39 26 139 59 251 83 171 37 414 -12 574 -114 74 -48 184 -154 233
-227 168 -246 183 -559 40 -841 -57 -113 -229 -305 -273 -305 -11 0 -19 -5
-19 -11 0 -5 -4 -8 -9 -5 -5 3 -14 0 -20 -7 -5 -7 -34 -24 -63 -36 -29 -13
-69 -31 -89 -41 -48 -25 -219 -68 -295 -75 -175 -15 -375 38 -535 142 -37 24
-69 49 -72 57 -3 8 -26 22 -52 31 -42 16 -48 17 -62 3 -29 -30 -8 -55 54 -62
31 -4 58 -5 60 -2 2 2 17 -8 33 -23 76 -69 205 -126 357 -157 106 -22 316 -14
423 17 285 82 509 281 614 545 92 232 85 462 -19 683 -81 170 -246 325 -423
397 -116 47 -179 58 -324 59 -91 0 -134 3 -127 10 6 6 67 9 147 9 179 -2 284
-28 450 -112 28 -14 52 -29 52 -33 0 -4 19 -18 43 -32 43 -26 167 -143 167
-159 0 -5 -7 -8 -16 -6 -10 2 -19 -2 -21 -7 -2 -6 6 -11 17 -11 11 0 20 4 20
9 0 4 5 5 11 2 6 -4 8 -13 5 -21 -3 -8 0 -13 6 -11 16 3 71 -101 103 -193 35
-102 51 -252 39 -363 -5 -48 -6 -87 -2 -87 5 0 8 1 8 3 11 77 16 219 10 295
-6 82 -15 117 -49 203 -23 57 -45 106 -49 109 -4 3 -16 19 -26 35 -67 105
-209 234 -325 293 -169 87 -335 120 -541 105z"/>
<path d="M4561 2930 c-18 -16 -34 -28 -36 -27 -9 4 -135 -109 -141 -126 -3 -9
-14 -21 -24 -27 -24 -13 -98 -118 -142 -202 -42 -78 -91 -215 -83 -229 4 -5 2
-9 -2 -9 -15 0 -33 -135 -33 -243 0 -72 6 -122 21 -172 11 -38 20 -78 20 -87
0 -10 7 -18 16 -18 12 0 14 7 9 28 -4 15 -11 58 -16 95 -5 38 -12 72 -15 77
-9 15 14 273 31 335 55 208 208 435 369 550 35 25 65 52 69 60 10 27 -12 25
-43 -5z"/>
<path d="M5080 2734 c-73 -11 -140 -28 -140 -34 0 -5 26 -2 58 6 31 7 82 14
112 14 30 0 62 5 70 10 15 10 -44 12 -100 4z"/>
<path d="M5220 2720 c0 -5 12 -10 28 -10 21 0 24 2 12 10 -20 13 -40 13 -40 0z"/>
<path d="M5375 2720 c3 -5 13 -10 20 -10 8 0 37 -14 65 -31 28 -17 53 -29 56
-26 7 7 -111 77 -130 77 -10 0 -14 -4 -11 -10z"/>
<path d="M4880 2680 c-8 -5 -12 -12 -9 -15 8 -8 39 5 39 16 0 11 -11 11 -30
-1z"/>
<path d="M4825 2653 c-18 -14 -18 -15 -2 -9 10 3 23 6 28 6 5 0 9 5 9 10 0 14
-12 12 -35 -7z"/>
<path d="M5530 2641 c0 -6 12 -18 28 -28 15 -10 29 -21 32 -24 3 -4 18 -22 33
-41 59 -72 75 -95 96 -137 11 -25 21 -51 21 -58 0 -7 5 -13 11 -13 28 0 -46
142 -112 214 -56 61 -109 104 -109 87z"/>
<path d="M4735 2597 c-10 -8 -14 -16 -9 -20 5 -3 20 3 33 14 27 22 6 27 -24 6z"/>
<path d="M5078 2583 c6 -2 18 -2 25 0 6 3 1 5 -13 5 -14 0 -19 -2 -12 -5z"/>
<path d="M4997 2563 c-4 -4 -27 -8 -52 -9 -65 -4 -118 -37 -163 -100 -18 -27
-20 -36 -11 -62 29 -83 147 -55 203 48 26 47 27 53 12 69 -22 24 -20 28 12 45
15 8 22 15 16 16 -6 0 -14 -3 -17 -7z m-17 -64 c0 -6 -7 -9 -15 -5 -18 6 -20
-5 -4 -21 9 -9 6 -19 -10 -42 -13 -17 -24 -31 -25 -31 -1 0 -3 15 -3 33 0 17
-4 42 -8 55 -7 20 -4 22 29 22 20 0 36 -5 36 -11z m-135 -59 c-21 -23 -14 -47
16 -59 16 -5 19 -10 10 -15 -7 -5 -20 -1 -30 8 -10 9 -23 16 -29 16 -7 0 -12
5 -12 10 0 13 52 71 58 65 3 -3 -3 -14 -13 -25z m65 0 c0 -10 -15 -14 -34 -11
-5 1 -6 -5 -3 -14 8 -19 -7 -20 -22 -1 -10 11 -8 17 6 25 23 13 53 14 53 1z
m0 -24 c0 -3 -4 -8 -10 -11 -5 -3 -10 -1 -10 4 0 6 5 11 10 11 6 0 10 -2 10
-4z"/>
<path d="M5960 2560 c0 -5 5 -10 11 -10 5 0 7 5 4 10 -3 6 -8 10 -11 10 -2 0
-4 -4 -4 -10z"/>
<path d="M4695 2550 c-3 -5 -1 -10 4 -10 6 0 11 5 11 10 0 6 -2 10 -4 10 -3 0
-8 -4 -11 -10z"/>
<path d="M5695 2530 c3 -5 11 -10 16 -10 6 0 7 5 4 10 -3 6 -11 10 -16 10 -6
0 -7 -4 -4 -10z"/>
<path d="M4620 2485 c-11 -13 -10 -14 4 -9 9 3 16 10 16 15 0 13 -6 11 -20 -6z"/>
<path d="M5326 2485 c4 -8 10 -15 14 -15 5 0 16 -7 25 -16 9 -9 19 -14 22 -10
6 6 -16 27 -49 46 -14 8 -16 7 -12 -5z"/>
<path d="M5730 2467 c0 -8 8 -34 19 -58 10 -24 21 -60 24 -79 3 -19 3 -29 0
-22 -8 20 -22 14 -16 -8 3 -11 12 -20 20 -20 10 0 11 -5 4 -18 -6 -11 -6 -36
0 -67 5 -27 7 -63 4 -80 -3 -16 -7 -41 -9 -55 -8 -51 -49 -180 -58 -180 -4 0
-8 -6 -8 -13 0 -21 -76 -125 -133 -185 -91 -94 -194 -151 -342 -189 -85 -22
-297 -13 -380 15 -36 13 -64 17 -69 12 -6 -6 -4 -11 5 -13 8 -3 41 -13 74 -23
95 -29 298 -31 398 -5 248 67 430 236 513 476 25 71 28 94 28 210 1 115 -3
140 -27 217 -26 81 -47 119 -47 85z"/>
<path d="M4570 2430 c0 -5 5 -10 10 -10 6 0 10 5 10 10 0 6 -4 10 -10 10 -5 0
-10 -4 -10 -10z"/>
<path d="M5397 2434 c-3 -5 1 -15 9 -22 16 -14 18 -5 5 17 -5 7 -11 9 -14 5z"/>
<path d="M5440 2350 c0 -6 -5 -8 -10 -5 -12 8 -4 -122 10 -159 35 -94 140 -85
140 12 0 49 -20 119 -39 135 -21 20 -101 33 -101 17z m19 -22 c-12 -22 -14
-22 35 -2 8 3 23 -6 35 -22 29 -37 26 -50 -5 -25 -22 17 -30 19 -41 9 -12 -10
-18 -9 -29 7 -15 20 -18 38 -7 48 15 15 23 6 12 -15z m39 -69 c-10 -5 -18 -14
-18 -19 0 -4 8 -6 18 -4 9 2 23 0 31 -5 12 -8 12 -12 2 -25 -8 -9 -21 -16 -29
-16 -12 0 -13 -3 -5 -11 20 -20 53 7 54 44 0 29 1 30 11 11 7 -16 6 -29 -3
-49 -8 -15 -17 -27 -21 -26 -5 0 -21 1 -38 1 -23 0 -28 3 -23 17 4 11 3 14 -5
9 -8 -5 -12 4 -12 28 0 33 18 55 45 55 6 0 2 -4 -7 -10z"/>
<path d="M4735 2310 c-8 -13 5 -13 25 0 13 8 13 10 -2 10 -9 0 -20 -4 -23 -10z"/>
<path d="M4507 2281 c-4 -17 -3 -21 5 -13 5 5 8 16 6 23 -3 8 -7 3 -11 -10z"/>
<path d="M6106 2175 c3 -59 -13 -160 -40 -263 -25 -95 -124 -288 -164 -319 -8
-7 -12 -16 -9 -20 9 -8 57 37 57 54 0 7 4 13 8 13 4 0 27 42 51 93 24 50 50
104 57 119 8 14 14 33 14 42 0 9 4 24 9 34 25 49 43 283 23 296 -5 3 -8 -19
-6 -49z"/>
<path d="M4710 2161 c0 -16 5 -33 10 -36 6 -4 10 6 10 24 0 16 -4 33 -10 36
-6 4 -10 -6 -10 -24z"/>
<path d="M4478 2129 c-1 -28 0 -53 5 -56 4 -2 7 21 7 51 0 70 -7 73 -12 5z"/>
<path d="M5426 2035 c-32 -71 -101 -138 -133 -130 -13 3 -23 2 -23 -3 0 -11
-92 -40 -151 -48 -35 -5 -62 0 -118 20 -80 29 -111 32 -129 14 -20 -20 -14
-30 11 -17 22 12 22 12 -2 -14 -17 -19 -22 -33 -17 -51 18 -72 209 -104 238
-40 16 34 0 43 -23 14 -20 -24 -20 -24 -14 -2 4 13 2 22 -4 22 -6 0 -11 -9
-11 -19 0 -11 -4 -23 -10 -26 -6 -3 -10 4 -10 16 0 21 -1 21 -18 6 -39 -35
-84 -7 -64 38 7 14 16 25 22 25 15 0 12 -11 -7 -26 -15 -10 -16 -15 -5 -25 9
-10 12 -10 12 -1 0 7 3 11 8 11 29 -5 51 3 46 15 -5 12 7 14 66 11 40 -2 79 0
89 4 9 5 42 17 73 26 32 10 66 26 77 37 11 10 24 18 28 18 10 0 30 23 55 61 9
14 23 32 31 40 18 18 30 66 18 73 -5 4 -21 -18 -35 -49z m-484 -184 c-6 -3
-12 -23 -14 -43 l-3 -37 -25 19 -25 19 19 35 c16 31 21 34 39 25 12 -7 16 -14
9 -18z"/>
<path d="M4723 2066 c4 -10 7 -22 7 -27 0 -5 4 -9 9 -9 12 0 2 38 -12 47 -7 4
-8 0 -4 -11z"/>
<path d="M4478 2055 c-7 -11 11 -100 36 -181 14 -46 56 -103 56 -76 0 6 -4 12
-10 14 -13 4 -59 138 -68 201 -4 28 -10 47 -14 42z"/>
<path d="M4750 1996 c0 -9 5 -16 10 -16 6 0 10 4 10 9 0 6 -4 13 -10 16 -5 3
-10 -1 -10 -9z"/>
<path d="M4570 1759 c7 -11 14 -19 16 -16 7 7 -7 37 -17 37 -6 0 -5 -9 1 -21z"/>
<path d="M5516 1720 c-22 -22 -37 -43 -34 -46 9 -9 81 61 77 74 -2 6 -22 -7
-43 -28z"/>
<path d="M4600 1715 c7 -8 20 -15 29 -15 13 1 13 3 -3 15 -26 19 -42 19 -26 0z"/>
<path d="M4640 1682 c0 -13 39 -52 52 -52 7 0 -1 14 -17 30 -31 32 -35 35 -35
22z"/>
<path d="M4710 1615 c0 -8 7 -15 15 -15 7 0 18 -6 22 -14 9 -16 29 -24 35 -14
1 3 -14 18 -34 32 -29 19 -38 22 -38 11z"/>
<path d="M4298 1595 c4 -25 91 -129 156 -188 68 -62 260 -161 361 -186 75 -19
209 -31 240 -22 26 8 22 9 -30 10 -33 1 -103 13 -155 27 -52 14 -108 28 -125
31 -40 8 -165 75 -241 129 -74 53 -158 140 -181 188 -19 42 -32 47 -25 11z"/>
<path d="M5720 1534 c-36 -35 -71 -64 -77 -64 -7 0 -13 -7 -13 -16 0 -19 9
-14 80 45 58 49 89 81 90 94 0 16 -18 3 -80 -59z"/>
<path d="M4240 1543 c1 -12 52 -77 102 -131 122 -130 300 -231 488 -277 77
-19 334 -31 369 -18 16 7 -16 9 -105 9 -236 0 -427 57 -600 180 -71 51 -178
155 -214 207 -23 34 -40 47 -40 30z"/>
<path d="M5805 1486 c-22 -23 -62 -60 -90 -83 -55 -46 -59 -67 -4 -28 47 35
149 134 149 145 0 17 -14 8 -55 -34z"/>
<path d="M5135 1274 l-100 -12 97 1 c82 2 123 9 107 20 -2 1 -49 -3 -104 -9z"/>
<path d="M5528 1271 c-10 -9 -41 -23 -70 -31 -29 -8 -57 -15 -63 -17 -163 -49
-345 -66 -455 -44 -30 6 -82 16 -115 22 -33 5 -64 14 -69 20 -13 12 -66 12
-66 0 0 -9 30 -22 60 -27 8 -1 33 -8 55 -17 110 -40 361 -47 495 -12 88 22
231 73 254 90 10 7 15 18 11 24 -9 15 -17 13 -37 -8z"/>
<path d="M5025 1240 c-50 -5 -40 -7 55 -8 63 0 124 3 135 8 24 10 -98 10 -190
0z"/>
<path d="M6385 3030 c-3 -5 -1 -10 4 -10 6 0 11 5 11 10 0 6 -2 10 -4 10 -3 0
-8 -4 -11 -10z"/>
<path d="M6435 2940 c-3 -5 -1 -10 4 -10 6 0 11 5 11 10 0 6 -2 10 -4 10 -3 0
-8 -4 -11 -10z"/>
<path d="M6459 2902 c7 -5 11 -14 7 -20 -3 -6 -2 -13 4 -17 6 -4 8 -11 5 -16
-4 -5 -1 -9 4 -9 13 0 14 13 4 24 -4 4 -8 15 -8 23 0 9 -7 18 -15 20 -12 4
-13 3 -1 -5z"/>
<path d="M6480 2820 c0 -5 7 -7 15 -4 8 4 15 8 15 10 0 2 -7 4 -15 4 -8 0 -15
-4 -15 -10z"/>
<path d="M6551 2030 c-39 -297 -164 -562 -376 -797 -36 -39 -65 -74 -65 -76 0
-16 45 11 70 42 16 20 37 44 46 55 9 10 29 37 45 61 16 23 35 48 43 54 8 7 24
31 36 54 12 23 35 61 51 85 16 24 29 49 29 57 0 8 4 16 9 20 14 8 65 145 94
250 33 117 47 213 38 256 -6 29 -9 20 -20 -61z"/>
<path d="M6203 1570 c-10 -18 -28 -46 -40 -64 -12 -17 -34 -49 -49 -70 -29
-43 -80 -101 -134 -154 -42 -40 -184 -151 -222 -172 -177 -101 -340 -161 -500
-185 -129 -20 -319 -19 -411 1 -99 21 -265 73 -304 95 -28 16 -73 16 -73 0 0
-10 151 -79 210 -95 116 -32 266 -56 349 -56 280 0 565 86 791 238 93 62 290
250 290 276 0 9 7 16 15 16 8 0 15 7 15 15 0 8 4 15 8 15 7 0 72 93 96 136 3
7 -1 17 -9 24 -12 10 -18 7 -32 -20z"/>
<path d="M6433 1521 c-3 -12 -9 -21 -14 -21 -5 0 -9 -7 -9 -15 0 -8 -5 -15
-11 -15 -5 0 -7 -4 -4 -10 3 -5 2 -10 -3 -10 -5 0 -14 -10 -20 -22 -7 -13 -20
-34 -29 -48 -17 -23 -17 -24 0 -11 14 11 89 111 110 148 4 6 2 15 -4 18 -6 4
-13 -2 -16 -14z"/>
<path d="M6082 1229 c-23 -23 -42 -46 -42 -51 0 -4 -4 -8 -10 -8 -5 0 -18 -7
-27 -14 -98 -80 -135 -108 -178 -130 -27 -15 -52 -30 -55 -34 -7 -11 -122 -65
-216 -103 -84 -34 -214 -69 -254 -69 -14 0 -30 -4 -35 -9 -25 -23 -364 -16
-490 9 -27 6 -108 29 -178 51 -70 23 -134 38 -142 35 -18 -6 -9 -36 11 -36 8
0 14 -4 14 -10 0 -5 5 -10 11 -10 5 0 29 -8 52 -19 23 -10 67 -24 97 -31 30
-7 64 -16 75 -21 79 -32 393 -40 575 -13 58 8 137 26 176 40 39 13 76 24 84
24 18 0 320 151 320 161 0 6 59 47 87 59 17 7 193 171 193 179 0 4 -6 15 -13
24 -11 16 -16 14 -55 -24z"/>
<path d="M1328 3293 c7 -3 16 -2 19 1 4 3 -2 6 -13 5 -11 0 -14 -3 -6 -6z"/>
<path d="M980 3152 c0 -5 51 -21 113 -35 157 -36 184 -41 172 -30 -5 5 -66 22
-135 38 -69 15 -131 30 -137 32 -7 3 -13 1 -13 -5z"/>
<path d="M1085 2985 c17 -8 37 -14 45 -14 8 0 2 7 -15 14 -16 8 -37 14 -45 14
-8 0 -1 -7 15 -14z"/>
<path d="M2997 1690 c-137 -11 -116 -23 28 -16 72 3 151 6 178 6 26 0 47 5 47
10 0 11 -114 11 -253 0z"/>
<path d="M6157 344 c-4 -4 -7 -18 -7 -31 0 -18 5 -23 26 -23 22 0 25 4 22 27
-3 27 -26 41 -41 27z"/>
<path d="M6230 321 c0 -27 4 -31 26 -31 22 0 25 4 22 28 -2 19 -9 28 -25 30
-20 3 -23 -1 -23 -27z"/>
<path d="M5133 324 c-40 -20 -61 -52 -72 -109 -20 -110 33 -202 122 -212 80
-9 147 28 162 90 7 25 5 27 -27 27 -25 0 -36 -6 -43 -22 -13 -30 -57 -45 -92
-32 -62 21 -81 138 -31 191 35 38 128 25 128 -18 0 -5 16 -9 35 -9 19 0 35 5
35 10 0 25 -32 71 -60 85 -38 19 -116 19 -157 -1z"/>
<path d="M7223 324 c-51 -25 -74 -72 -75 -149 0 -79 23 -130 72 -157 83 -44
196 -5 215 75 7 25 5 27 -27 27 -25 0 -36 -6 -43 -22 -13 -30 -57 -45 -92 -32
-62 21 -81 138 -31 191 35 38 128 25 128 -18 0 -5 16 -9 35 -9 19 0 35 5 35
10 0 25 -32 71 -60 85 -38 19 -116 19 -157 -1z"/>
<path d="M5400 305 c0 -21 5 -25 29 -25 23 0 30 5 33 25 5 23 2 25 -28 25 -30
0 -34 -3 -34 -25z"/>
<path d="M7510 188 c64 -191 57 -178 94 -178 l31 0 50 147 c28 81 51 153 53
160 2 9 -8 13 -32 13 -39 0 -33 12 -89 -184 -7 -27 -16 -45 -19 -40 -3 5 -18
57 -34 116 l-29 108 -37 0 -37 0 49 -142z"/>
<path d="M6789 291 c-36 -37 -40 -81 -6 -81 14 0 28 11 39 30 28 50 94 34 86
-22 -2 -13 -26 -40 -62 -67 -59 -45 -96 -92 -96 -123 0 -16 12 -18 110 -18
l110 0 0 25 c0 24 -2 25 -72 25 l-73 1 30 25 c122 100 115 92 115 140 0 65
-31 94 -100 94 -44 0 -56 -5 -81 -29z"/>
<path d="M5530 280 c0 -20 -5 -30 -15 -30 -9 0 -15 -9 -15 -25 0 -16 6 -25 15
-25 12 0 15 -16 15 -83 0 -95 7 -107 62 -107 32 0 38 3 38 21 0 12 -8 23 -20
26 -18 5 -20 14 -20 73 0 59 2 68 20 73 12 3 20 14 20 26 0 14 -6 21 -20 21
-16 0 -20 7 -20 30 0 27 -3 30 -30 30 -27 0 -30 -3 -30 -30z"/>
<path d="M5768 248 c-16 -5 -28 -14 -28 -19 0 -5 -4 -9 -10 -9 -5 0 -9 6 -7
13 1 7 -10 13 -25 15 l-28 3 0 -120 0 -121 30 0 30 0 0 74 c0 79 13 106 51
106 15 0 19 7 19 35 0 19 -1 35 -2 34 -2 0 -15 -5 -30 -11z"/>
<path d="M5893 246 c-41 -18 -63 -62 -63 -123 0 -98 81 -148 176 -108 70 29
86 148 28 206 -36 35 -95 45 -141 25z m97 -65 c14 -27 13 -97 -2 -108 -30 -23
-49 -23 -74 2 -28 28 -31 70 -8 103 20 28 69 30 84 3z"/>
<path d="M6162 245 c-21 -9 -38 -27 -47 -49 -52 -123 47 -237 155 -181 26 13
50 42 50 59 0 10 -59 6 -65 -4 -9 -14 -58 -13 -73 2 -29 29 -13 38 68 38 79 0
80 0 80 26 0 44 -31 95 -66 110 -41 17 -60 17 -102 -1z m86 -57 c25 -25 13
-38 -33 -38 -30 0 -45 4 -45 13 0 19 21 37 45 37 12 0 26 -5 33 -12z"/>
<path d="M5400 130 l0 -120 30 0 30 0 0 120 0 120 -30 0 -30 0 0 -120z"/>
<path d="M6370 130 l0 -120 30 0 30 0 0 73 c0 82 16 117 54 117 31 0 36 -16
36 -111 l0 -80 33 3 32 3 -1 97 c0 117 -12 138 -79 138 -22 0 -47 -6 -54 -12
-11 -10 -14 -10 -18 0 -3 6 -18 12 -34 12 l-29 0 0 -120z"/>
</g>
</svg>
