<?xml version="1.0" encoding="utf-8"?>
<!-- Generator: Adobe Illustrator 27.5.0, SVG Export Plug-In . SVG Version: 6.00 Build 0)  -->
<svg version="1.1" xmlns="http://www.w3.org/2000/svg" xmlns:xlink="http://www.w3.org/1999/xlink" x="0px" y="0px"
	 viewBox="0 0 500 500" style="enable-background:new 0 0 500 500;" xml:space="preserve">
<g id="Background_Simple">
	<g>
		<path style="fill:#205375;" d="M467.605,251.913c-4.936,41.801-24.022,90.403-62.141,112.73
			c-57.595,33.742-52.774,85.638-165.193,108.199c-17.527,3.519-34.161,5-49.846,4.708c-8.432-0.156-16.593-0.836-24.465-1.995
			C94.512,465.119,46.43,415.455,28.79,355.505C5.576,276.66,51.928,225.042,82.652,193.941
			c30.724-31.1,53.226-128.004,163.567-151.052c16.824-3.507,34.029-5.296,51.229-4.867c39.259,0.963,82.08,13.855,111.71,40.761
			c2.225,2.022,4.388,4.118,6.497,6.278C456.838,127.332,474.338,194.925,467.605,251.913z"/>
		<path style="opacity:0.7;fill:#FFFFFF;" d="M467.605,251.913c-4.936,41.801-24.022,90.403-62.141,112.73
			c-57.595,33.742-52.774,85.638-165.193,108.199c-17.527,3.519-34.161,5-49.846,4.708c-8.432-0.156-16.593-0.836-24.465-1.995
			C94.512,465.119,46.43,415.455,28.79,355.505C5.576,276.66,51.928,225.042,82.652,193.941
			c30.724-31.1,53.226-128.004,163.567-151.052c16.824-3.507,34.029-5.296,51.229-4.867c39.259,0.963,82.08,13.855,111.71,40.761
			c2.225,2.022,4.388,4.118,6.497,6.278C456.838,127.332,474.338,194.925,467.605,251.913z"/>
	</g>
</g>
<g id="Battery">
	<g>
		<rect x="380.491" y="373.986" style="fill:#263238;stroke:#263238;stroke-miterlimit:10;" width="69.264" height="9.702"/>
		<rect x="364.846" y="369.466" style="fill:#205375;stroke:#263238;stroke-miterlimit:10;" width="9.16" height="11.948"/>
		<rect x="406.663" y="369.466" style="fill:#205375;stroke:#263238;stroke-miterlimit:10;" width="9.16" height="11.948"/>
		<rect x="358.474" y="386.591" style="fill:#FFFFFF;stroke:#263238;stroke-miterlimit:10;" width="98.145" height="53.366"/>
		<rect x="420.602" y="386.591" style="fill:#FFFFFF;stroke:#263238;stroke-miterlimit:10;" width="36.028" height="53.366"/>
		<rect x="356.27" y="379.561" style="fill:#263238;stroke:#263238;stroke-miterlimit:10;" width="102.552" height="9.702"/>
		<rect x="356.27" y="439.957" style="fill:#263238;stroke:#263238;stroke-miterlimit:10;" width="102.552" height="4.851"/>
		<g>
			<rect x="363.253" y="398.538" style="fill:#263238;stroke:#263238;stroke-miterlimit:10;" width="9.558" height="2.788"/>
			<rect x="406.663" y="398.538" style="fill:#263238;stroke:#263238;stroke-miterlimit:10;" width="9.558" height="2.788"/>

				<rect x="406.663" y="398.538" transform="matrix(-1.836970e-16 1 -1 -1.836970e-16 811.3738 -11.5097)" style="fill:#263238;stroke:#263238;stroke-miterlimit:10;" width="9.558" height="2.788"/>
		</g>
	</g>
</g>
<g id="Radio">
	<g>
		<g>
			<path style="fill:#878787;stroke:#263238;stroke-miterlimit:10;" d="M328.692,443.71h-135.64c-1.962,0-3.552-1.59-3.552-3.552
				v-44.852c0-1.962,1.59-3.552,3.552-3.552h135.64c1.962,0,3.552,1.59,3.552,3.552v44.852
				C332.244,442.12,330.654,443.71,328.692,443.71z"/>
			<path style="fill:#263238;stroke:#263238;stroke-miterlimit:10;" d="M310.837,391.758l-51.95,51.95h-69.53
				c-1.97,0-3.56-1.59-3.56-3.55v-44.85c0-1.96,1.59-3.55,3.56-3.55H310.837z"/>
			<path style="fill:#263238;stroke:#263238;stroke-miterlimit:10;" d="M328.547,405.278v34.88c0,1.96-1.59,3.55-3.55,3.55h-34.87
				L328.547,405.278z"/>
			<polygon style="fill:#878787;stroke:#263238;stroke-miterlimit:10;" points="323.873,397.378 323.873,438.528 251.447,438.528
				249.477,435.288 205.357,435.288 203.387,438.528 190.477,438.528 190.477,397.378 203.007,397.378 205.357,401.258
				249.477,401.258 251.827,397.378 			"/>
			<rect x="208.23" y="410.553" style="fill:#878787;stroke:#263238;stroke-miterlimit:10;" width="39.251" height="15.159"/>
			<polygon style="fill:#263238;stroke:#263238;stroke-miterlimit:10;" points="249.477,435.288 251.447,438.528 203.387,438.528
				205.357,435.288 			"/>
			<polygon style="fill:#263238;stroke:#263238;stroke-miterlimit:10;" points="205.357,401.258 203.007,397.378 251.827,397.378
				249.477,401.258 			"/>
			<circle style="fill:#205375;stroke:#263238;stroke-miterlimit:10;" cx="227.416" cy="417.956" r="13.889"/>

				<ellipse transform="matrix(0.9735 -0.2287 0.2287 0.9735 -89.5452 63.0745)" style="fill:#263238;stroke:#263238;stroke-miterlimit:10;" cx="227.416" cy="417.956" rx="11.141" ry="11.141"/>
			<path style="fill:#263238;stroke:#263238;stroke-miterlimit:10;" d="M249.477,435.288h-44.12l-1.97,3.24h48.06L249.477,435.288z
				 M203.007,397.378l2.35,3.88h44.12l2.35-3.88H203.007z"/>
			<rect x="249.798" y="408.063" style="fill:#878787;stroke:#263238;stroke-miterlimit:10;" width="69.474" height="19.716"/>
			<g>
				<line style="fill:#878787;stroke:#263238;stroke-miterlimit:10;" x1="254.493" y1="408.532" x2="254.493" y2="412.757"/>
				<line style="fill:#878787;stroke:#263238;stroke-miterlimit:10;" x1="262.238" y1="408.532" x2="262.238" y2="412.757"/>
				<line style="fill:#878787;stroke:#263238;stroke-miterlimit:10;" x1="269.983" y1="408.532" x2="269.983" y2="412.757"/>
				<line style="fill:#878787;stroke:#263238;stroke-miterlimit:10;" x1="277.729" y1="408.532" x2="277.729" y2="412.757"/>
				<line style="fill:#878787;stroke:#263238;stroke-miterlimit:10;" x1="285.474" y1="408.532" x2="285.474" y2="412.757"/>
				<line style="fill:#878787;stroke:#263238;stroke-miterlimit:10;" x1="293.22" y1="408.532" x2="293.22" y2="412.757"/>
				<line style="fill:#878787;stroke:#263238;stroke-miterlimit:10;" x1="300.965" y1="408.532" x2="300.965" y2="412.757"/>
				<line style="fill:#878787;stroke:#263238;stroke-miterlimit:10;" x1="308.711" y1="408.532" x2="308.711" y2="412.757"/>
				<line style="fill:#878787;stroke:#263238;stroke-miterlimit:10;" x1="316.456" y1="408.532" x2="316.456" y2="412.757"/>
			</g>
			<g>
				<line style="fill:#878787;stroke:#263238;stroke-miterlimit:10;" x1="254.493" y1="423.319" x2="254.493" y2="427.544"/>
				<line style="fill:#878787;stroke:#263238;stroke-miterlimit:10;" x1="262.238" y1="423.319" x2="262.238" y2="427.544"/>
				<line style="fill:#878787;stroke:#263238;stroke-miterlimit:10;" x1="269.983" y1="423.319" x2="269.983" y2="427.544"/>
				<line style="fill:#878787;stroke:#263238;stroke-miterlimit:10;" x1="277.729" y1="423.319" x2="277.729" y2="427.544"/>
				<line style="fill:#878787;stroke:#263238;stroke-miterlimit:10;" x1="285.474" y1="423.319" x2="285.474" y2="427.544"/>
				<line style="fill:#878787;stroke:#263238;stroke-miterlimit:10;" x1="293.22" y1="423.319" x2="293.22" y2="427.544"/>
				<line style="fill:#878787;stroke:#263238;stroke-miterlimit:10;" x1="300.965" y1="423.319" x2="300.965" y2="427.544"/>
				<line style="fill:#878787;stroke:#263238;stroke-miterlimit:10;" x1="308.711" y1="423.319" x2="308.711" y2="427.544"/>
				<line style="fill:#878787;stroke:#263238;stroke-miterlimit:10;" x1="316.456" y1="423.319" x2="316.456" y2="427.544"/>
			</g>
			<g>
				<polygon style="fill:#205375;stroke:#263238;stroke-miterlimit:10;" points="193.684,405.153 193.684,411.989 206.082,412.791
					206.082,407.887 				"/>
				<polygon style="fill:#205375;stroke:#263238;stroke-miterlimit:10;" points="193.684,429.764 193.684,422.927 206.082,421.286
					206.082,427.029 				"/>
				<polygon style="fill:#205375;stroke:#263238;stroke-miterlimit:10;" points="206.336,419.348 193.311,421.428 193.311,413.871
					206.336,414.95 				"/>
			</g>
			<circle style="fill:#205375;stroke:#263238;stroke-miterlimit:10;" cx="317.059" cy="401.596" r="1.859"/>
		</g>
		<path style="fill:none;stroke:#263238;stroke-miterlimit:10;" d="M325.419,443.71H189.058c-1.962,0-3.552-1.59-3.552-3.552
			v-44.852c0-1.962,1.59-3.552,3.552-3.552h136.361c1.962,0,3.552,1.59,3.552,3.552v44.852
			C328.971,442.12,327.381,443.71,325.419,443.71z"/>
	</g>
</g>
<g id="Speakers">
	<g>
		<circle style="fill:#205375;stroke:#263238;stroke-miterlimit:10;" cx="63.988" cy="412.846" r="38.978"/>
		<circle style="fill:#205375;stroke:#263238;stroke-miterlimit:10;" cx="62.279" cy="412.846" r="38.978"/>

			<ellipse transform="matrix(0.9612 -0.2757 0.2757 0.9612 -111.4011 33.1674)" style="fill:#263238;stroke:#263238;stroke-miterlimit:10;" cx="62.279" cy="412.846" rx="31.096" ry="31.096"/>
		<circle style="fill:#205375;stroke:#263238;stroke-miterlimit:10;" cx="62.279" cy="412.846" r="7.013"/>
		<path style="fill:#FFFFFF;stroke:#263238;stroke-miterlimit:10;" d="M66.794,412.846c0-2.494-2.022-4.516-4.516-4.516
			s-4.516,2.022-4.516,4.516c0,2.494,2.022,4.516,4.516,4.516S66.794,415.34,66.794,412.846z"/>
		<line style="fill:none;stroke:#263238;stroke-miterlimit:10;" x1="62.279" y1="408.33" x2="62.279" y2="417.362"/>
		<line style="fill:none;stroke:#263238;stroke-miterlimit:10;" x1="57.763" y1="412.846" x2="66.794" y2="412.846"/>
	</g>
	<g>
		<circle style="fill:#205375;stroke:#263238;stroke-miterlimit:10;" cx="118.221" cy="412.846" r="38.978"/>
		<circle style="fill:#205375;stroke:#263238;stroke-miterlimit:10;" cx="116.511" cy="412.846" r="38.978"/>

			<ellipse transform="matrix(0.7071 -0.7071 0.7071 0.7071 -257.8009 203.3054)" style="fill:#263238;stroke:#263238;stroke-miterlimit:10;" cx="116.511" cy="412.846" rx="31.096" ry="31.096"/>
		<circle style="fill:#205375;stroke:#263238;stroke-miterlimit:10;" cx="116.511" cy="412.846" r="7.013"/>
		<path style="fill:#FFFFFF;stroke:#263238;stroke-miterlimit:10;" d="M121.027,412.846c0-2.494-2.022-4.516-4.516-4.516
			c-2.494,0-4.516,2.022-4.516,4.516c0,2.494,2.022,4.516,4.516,4.516C119.005,417.362,121.027,415.34,121.027,412.846z"/>
		<line style="fill:none;stroke:#263238;stroke-miterlimit:10;" x1="116.511" y1="408.33" x2="116.511" y2="417.362"/>
		<line style="fill:none;stroke:#263238;stroke-miterlimit:10;" x1="111.995" y1="412.846" x2="121.027" y2="412.846"/>
	</g>
</g>
<g id="Car">
	<g>

			<ellipse transform="matrix(0.0322 -0.9995 0.9995 0.0322 -80.1545 568.6833)" style="fill:#263238;stroke:#263238;stroke-miterlimit:10;" cx="253.586" cy="325.733" rx="21.85" ry="173.678"/>
		<g>
			<path style="fill:#263238;stroke:#263238;stroke-miterlimit:10;" d="M84.388,288.251c0,0,2.112,4.574,3.619,6.134
				c1.506,1.56,28.742,8.299,28.742,8.299l88.24,19.313l10.693-1.144l37.37,1.196c0,0,7.457-18.241-0.686-36.211
				s-48.856-24.99-60.368-21.339c-11.512,3.65-38.467,15.443-57.841,8.985c-19.374-6.458-34.817-19.093-41.275-17.408
				c-6.458,1.685-9.547,12.074-9.547,16.566S84.388,288.251,84.388,288.251z"/>
			<g>
				<path style="fill:#263238;stroke:#263238;stroke-miterlimit:10;" d="M274.091,313.239
					c-0.769-18.548-13.177-33.613-27.712-33.651h-15.758l0.276,6.644c-6.156,6.109-9.9,15.867-9.444,26.872
					c0.457,11.005,5.011,20.784,11.675,26.926l0.279,6.725h15.758C263.701,346.793,274.86,331.787,274.091,313.239z"/>

					<ellipse transform="matrix(0.9939 -0.11 0.11 0.9939 -33.0547 27.4347)" style="fill:#878787;stroke:#263238;stroke-miterlimit:10;" cx="232.014" cy="313.172" rx="26.254" ry="33.663"/>
				<path style="fill:#FFFFFF;stroke:#263238;stroke-miterlimit:10;" d="M252.375,324.602c0-0.001,0.001-0.002,0.001-0.003
					c0.258-0.83,0.483-1.681,0.676-2.552c0-0.001,0-0.001,0.001-0.002c0.192-0.871,0.351-1.761,0.474-2.669c0,0,0,0,0,0
					c0.268-1.978,0.374-4.034,0.286-6.148c-0.187-4.504-1.207-8.756-2.853-12.523c-0.015-0.034-0.03-0.068-0.046-0.103
					c-0.367-0.834-0.765-1.642-1.193-2.425c-0.026-0.049-0.052-0.097-0.079-0.146c-0.428-0.775-0.884-1.523-1.366-2.242
					c-0.026-0.038-0.05-0.078-0.076-0.116c-4.257-6.277-10.514-10.299-17.34-10.316c-5.845-0.015-11.026,2.913-14.742,7.681l0,0h0
					c-0.246,0.316-0.486,0.639-0.719,0.971c0,0,0,0-0.001,0.001c-0.232,0.33-0.457,0.668-0.676,1.013
					c-0.002,0.003-0.003,0.005-0.005,0.008c-0.215,0.34-0.424,0.688-0.625,1.042c-0.005,0.009-0.011,0.019-0.016,0.028
					c-0.197,0.347-0.387,0.701-0.571,1.061c-0.009,0.018-0.018,0.035-0.027,0.052c-0.178,0.351-0.349,0.708-0.514,1.07
					c-0.013,0.029-0.027,0.057-0.04,0.086c-0.158,0.351-0.31,0.708-0.455,1.07c-0.017,0.042-0.035,0.083-0.051,0.126
					c-0.139,0.35-0.272,0.706-0.399,1.066c-0.019,0.055-0.04,0.109-0.059,0.164c-0.12,0.347-0.233,0.698-0.342,1.053
					c-0.022,0.071-0.045,0.141-0.066,0.212c-0.102,0.34-0.196,0.685-0.287,1.033c-0.023,0.088-0.048,0.175-0.071,0.264
					c-0.084,0.333-0.161,0.67-0.234,1.009c-0.023,0.106-0.049,0.21-0.071,0.316c-0.067,0.325-0.127,0.654-0.185,0.983
					c-0.022,0.123-0.046,0.245-0.067,0.368c-0.052,0.318-0.096,0.64-0.14,0.962c-0.019,0.138-0.041,0.275-0.058,0.414
					c-0.038,0.313-0.067,0.629-0.097,0.946c-0.014,0.151-0.032,0.3-0.045,0.452c-0.025,0.313-0.041,0.629-0.058,0.945
					c-0.008,0.158-0.021,0.314-0.027,0.473c-0.013,0.333-0.016,0.67-0.02,1.006c-0.002,0.144-0.008,0.285-0.008,0.43
					c0.001,0.481,0.01,0.966,0.031,1.453c0.024,0.591,0.068,1.175,0.121,1.757c0.013,0.14,0.028,0.279,0.042,0.418
					c0.051,0.5,0.112,0.997,0.183,1.49c0.011,0.076,0.02,0.152,0.032,0.227c0.185,1.222,0.432,2.417,0.734,3.583c0,0,0,0,0,0.001
					l0,0c1.504,5.794,4.406,10.828,8.165,14.447c0.047,0.045,0.093,0.09,0.139,0.135c0.46,0.436,0.932,0.851,1.417,1.244
					c0.033,0.027,0.066,0.052,0.099,0.078c3.526,2.827,7.655,4.481,12.02,4.492c4.395,0.011,8.413-1.643,11.718-4.489
					c0,0,0,0,0.001,0l0,0C248.245,333.605,250.86,329.479,252.375,324.602z"/>
				<g>
					<path style="fill:#263238;stroke:#263238;stroke-miterlimit:10;" d="M251.318,314.073c-0.133-3.236-0.78-6.319-1.834-9.122
						l-8.66,5.426c0.374,1.15,0.612,2.384,0.665,3.677c0.008,0.185,0,0.365,0.001,0.548l9.836,1.601
						C251.347,315.501,251.347,314.792,251.318,314.073z"/>
					<path style="fill:#263238;stroke:#263238;stroke-miterlimit:10;" d="M235.971,304.121c0.899,0.492,1.725,1.17,2.453,1.989
						l6.098-9.382c-2.118-2.317-4.621-4.067-7.345-5.065L235.971,304.121z"/>
					<path style="fill:#263238;stroke:#263238;stroke-miterlimit:10;" d="M240.253,320.162c-0.441,0.885-0.988,1.672-1.619,2.341
						l5.007,11.206c2.4-2.011,4.36-4.759,5.703-8.004L240.253,320.162z"/>
					<path style="fill:#263238;stroke:#263238;stroke-miterlimit:10;" d="M225.518,308.218l-8.831-6.143
						c-1.295,3.018-2.046,6.479-2.11,10.182l9.872,0.282C224.555,310.965,224.928,309.5,225.518,308.218z"/>
					<path style="fill:#263238;stroke:#263238;stroke-miterlimit:10;" d="M228.522,304.483c0.721-0.506,1.514-0.873,2.358-1.082
						l-1.445-12.455c-3.124,0.554-5.951,2.117-8.28,4.43L228.522,304.483z"/>
					<path style="fill:#263238;stroke:#263238;stroke-miterlimit:10;" d="M234.339,324.806c-0.307,0.042-0.619,0.068-0.937,0.067
						c-0.901-0.002-1.775-0.183-2.604-0.513l-4.841,10.734c2.444,1.443,5.143,2.255,7.958,2.261
						c0.769,0.001,1.522-0.064,2.261-0.179L234.339,324.806z"/>
					<path style="fill:#263238;stroke:#263238;stroke-miterlimit:10;" d="M225.446,318.667l-9.764,2.184
						c1.009,3.57,2.661,6.773,4.764,9.389l6.267-9.246C226.218,320.29,225.795,319.507,225.446,318.667z"/>
				</g>
			</g>
			<path style="fill:#263238;stroke:#263238;stroke-miterlimit:10;" d="M126.304,294.487c-0.361-15.541-6.183-28.166-13.003-28.197
				h-15.72l1.307,56.281h15.72C121.429,322.603,126.665,310.029,126.304,294.487z"/>
			<path style="fill:#878787;stroke:#263238;stroke-miterlimit:10;" d="M110.583,294.487c0.361,15.542-4.875,28.115-11.695,28.084
				c-6.82-0.031-12.642-12.655-13.003-28.197c-0.361-15.542,4.875-28.115,11.695-28.084
				C104.401,266.322,110.222,278.946,110.583,294.487z"/>
			<path style="fill:#FFFFFF;stroke:#263238;stroke-miterlimit:10;" d="M107.788,304.008c0-0.001,0-0.001,0-0.002
				c0.121-0.695,0.227-1.409,0.317-2.138c0,0,0-0.001,0-0.002c0.09-0.73,0.165-1.476,0.222-2.237c0,0,0,0,0,0
				c0.126-1.658,0.175-3.38,0.134-5.152c-0.088-3.774-0.566-7.337-1.338-10.493c-0.007-0.029-0.014-0.057-0.021-0.086
				c-0.172-0.699-0.359-1.376-0.56-2.032c-0.012-0.041-0.024-0.082-0.037-0.122c-0.201-0.649-0.415-1.276-0.641-1.878
				c-0.012-0.032-0.024-0.065-0.036-0.097c-1.997-5.26-4.933-8.63-8.136-8.644c-2.743-0.013-5.174,2.441-6.917,6.436l0,0v0
				c-0.116,0.265-0.228,0.536-0.337,0.814c0,0,0,0,0,0c-0.109,0.277-0.215,0.56-0.317,0.849c-0.001,0.002-0.002,0.004-0.002,0.007
				c-0.101,0.285-0.199,0.576-0.293,0.873c-0.003,0.008-0.005,0.016-0.008,0.023c-0.092,0.291-0.182,0.587-0.268,0.889
				c-0.004,0.015-0.008,0.029-0.013,0.044c-0.083,0.294-0.164,0.593-0.241,0.897c-0.006,0.024-0.013,0.048-0.019,0.072
				c-0.074,0.294-0.145,0.593-0.214,0.896c-0.008,0.035-0.016,0.07-0.024,0.105c-0.065,0.294-0.127,0.592-0.187,0.893
				c-0.009,0.046-0.019,0.091-0.028,0.137c-0.056,0.29-0.11,0.585-0.161,0.882c-0.01,0.06-0.021,0.118-0.031,0.178
				c-0.048,0.285-0.092,0.574-0.135,0.866c-0.011,0.074-0.023,0.147-0.033,0.221c-0.039,0.279-0.075,0.562-0.11,0.846
				c-0.011,0.089-0.023,0.176-0.033,0.265c-0.032,0.272-0.06,0.548-0.087,0.824c-0.01,0.103-0.022,0.205-0.031,0.309
				c-0.024,0.266-0.045,0.536-0.065,0.806c-0.009,0.116-0.019,0.23-0.027,0.347c-0.018,0.262-0.032,0.527-0.046,0.793
				c-0.007,0.126-0.015,0.251-0.021,0.379c-0.012,0.262-0.019,0.527-0.027,0.792c-0.004,0.132-0.01,0.263-0.013,0.397
				c-0.006,0.279-0.008,0.561-0.009,0.843c-0.001,0.12-0.004,0.239-0.004,0.36c0,0.403,0.005,0.809,0.014,1.218
				c0.011,0.495,0.032,0.985,0.057,1.472c0.006,0.117,0.013,0.234,0.02,0.35c0.024,0.419,0.052,0.835,0.086,1.248
				c0.005,0.063,0.01,0.127,0.015,0.19c0.087,1.024,0.202,2.025,0.344,3.002c0,0,0,0,0,0.001l0,0
				c0.706,4.855,2.067,9.074,3.831,12.105c0.022,0.038,0.044,0.076,0.065,0.113c0.216,0.366,0.438,0.713,0.665,1.042
				c0.015,0.022,0.031,0.044,0.047,0.066c1.654,2.369,3.592,3.754,5.64,3.764c2.062,0.009,3.947-1.377,5.498-3.762c0,0,0,0,0,0l0,0
				C105.85,311.553,107.077,308.095,107.788,304.008z"/>
			<path style="fill:#263238;stroke:#263238;stroke-miterlimit:10;" d="M425.85,302.492c-0.769-18.548-13.177-33.613-27.712-33.651
				H382.38v0c-14.536-0.037-25.695,14.968-24.926,33.516c0.769,18.547,13.177,33.613,27.712,33.651l0,0h15.758
				C415.46,336.045,426.619,321.04,425.85,302.492z"/>
			<g>
				<path style="fill:#205375;stroke:#263238;stroke-miterlimit:10;" d="M131.337,186.723c0,0-7.042,2.054-7.923,4.108
					c-0.88,2.054-1.467,3.521-1.467,3.521l-21.127,30.81c0,0-7.629-0.587-9.977,5.869c-2.348,6.456-1.467,15.258-1.467,15.258
					s-5.575,13.791-5.869,24.062c-0.294,10.27,0.88,17.899,0.88,17.899s-1.467-18.78,2.934-24.648
					c4.402-5.869,13.498-1.467,17.019,9.096c3.521,10.564,7.629,30.224,7.629,30.224l93.018,19.073c0,0-4.695-24.648,1.467-38.733
					c6.162-14.085,34.919-13.204,40.2,12.324c5.282,25.529,3.521,30.224,3.521,30.224s19.66,4.108,79.52,3.228
					c59.86-0.88,92.725-7.923,101.528-10.27c0,0,2.054-10.857,2.641-17.313c0.587-6.456-1.761-10.857-1.761-10.857
					s-0.587-11.737-2.054-15.845c-1.467-4.108-5.869-10.27-5.869-10.27s-4.402-10.27-11.737-16.726
					c-7.336-6.456-19.367-12.911-22.301-14.378c-2.934-1.467-6.749-2.347-12.324-6.162c-5.575-3.815-40.2-27.876-51.057-34.332
					c-10.857-6.455-34.332-9.683-39.027-10.563c-4.695-0.88-58.687-4.695-77.466-4.695S152.758,178.507,131.337,186.723z"/>
				<path style="opacity:0.15;" d="M433.866,301.455c0.587-6.456-1.761-10.857-1.761-10.857s-0.188-3.756-0.617-7.762
					c-36.716,10.834-102.412,11.564-120.734,9.948c-21.047-1.857-58.389-6.948-60.045-12.999
					c-1.656-6.051-16.094-19.809-25.999-23.523c-8.49-3.184-107.023-16.827-135.001-20.659c-0.858,5.389-0.335,10.687-0.335,10.687
					s-5.575,13.791-5.869,24.062c-0.293,10.27,0.88,17.899,0.88,17.899s-1.467-18.78,2.934-24.648
					c4.402-5.869,13.498-1.467,17.019,9.096c3.521,10.564,7.629,30.224,7.629,30.224l93.018,19.073c0,0-4.695-24.648,1.467-38.733
					c6.162-14.085,34.919-13.204,40.2,12.324c5.282,25.529,3.521,30.224,3.521,30.224s19.66,4.108,79.52,3.228
					c59.86-0.88,92.725-7.923,101.528-10.27C431.225,318.768,433.279,307.911,433.866,301.455z"/>
				<g>
					<path style="fill:#FFFFFF;stroke:#263238;stroke-miterlimit:10;" d="M195.599,196.113
						c-11.804-8.468-22.036-9.755-26.774-10.141c-4.554,8.171-11.988,23.631-13.494,39.663c24.964,3.893,52.885,8.331,52.885,8.331
						s6.455,2.347,8.803,0c0,0,1.174-0.88,1.76-2.347C219.367,230.151,209.097,205.796,195.599,196.113z"/>
					<path style="fill:#FFFFFF;stroke:#263238;stroke-miterlimit:10;" d="M160.786,185.945c-5.736,0.33-13.806,1.179-20.06,2.538
						c-6.749,1.467-9.096,1.761-10.27,2.934c-1.174,1.174-12.618,15.552-16.726,25.822c0,0,0.587,2.641,3.228,2.641
						c0.96,0,13.285,1.862,28.581,4.231C148.098,215.007,153.245,198.964,160.786,185.945z"/>
					<path style="fill:none;stroke:#263238;stroke-miterlimit:10;" d="M123.51,220.337c0,0,4.948-19.27,15.103-30.727"/>
				</g>
				<path style="fill:none;stroke:#263238;stroke-miterlimit:10;" d="M155.595,239.477l-8.347-1.507c0,0-2.043,0.649-1.424,2.693
					c0.618,2.044,1.724,1.82,1.724,1.82l6.95,1.119c0,0,1.654,0.179,2.008-1.47C156.859,240.483,157.328,240.27,155.595,239.477z"/>
				<path style="fill:none;stroke:#263238;stroke-miterlimit:10;" d="M113.393,232.205l-6.373-1.224c0,0-1.56,0.527-1.088,2.187
					c0.472,1.66,1.316,1.479,1.316,1.479l5.306,0.909c0,0,1.262,0.145,1.533-1.194S114.716,232.849,113.393,232.205z"/>
				<path style="fill:none;stroke:#263238;stroke-miterlimit:10;" d="M164.448,185.039c0,0-11.9,22.129-13.987,40.5"/>
				<path style="fill:none;stroke:#263238;stroke-miterlimit:10;" d="M147.747,229.297c0,0-5.428,9.186-5.637,12.317
					c-0.209,3.132,0.418,40.709,1.461,47.598"/>
				<path style="fill:none;stroke:#263238;stroke-miterlimit:10;" d="M206.827,208.839c0,0-4.175,12.108-5.428,18.58"/>
				<path style="fill:none;stroke:#263238;stroke-miterlimit:10;" d="M205.157,242.45c0,0-4.593,15.24-4.802,26.722
					c-0.209,11.482-0.417,32.985-0.417,32.985"/>
				<path style="fill:none;stroke:#263238;stroke-miterlimit:10;" d="M113.092,221.364c0,0-9.812,8.977-10.647,11.9
					c-0.835,2.923,0.209,27.975,0.209,27.975"/>
				<path style="fill:none;stroke:#263238;stroke-miterlimit:10;" d="M114.971,289.63c0,0,1.461,4.175,4.593,5.219
					c3.131,1.044,79.122,15.657,79.122,15.657"/>
				<path style="fill:#263238;stroke:#263238;stroke-miterlimit:10;" d="M335.11,302.878c0,0,58.192,0.801,79.814-5.873
					c0,0-2.135,14.415-6.14,17.351c-4.004,2.936-33.105,5.935-47.248,6.406c-16.016,0.534-25.092-1.068-25.092-1.068L335.11,302.878
					z"/>
				<path style="fill:#263238;stroke:#263238;stroke-miterlimit:10;" d="M324.699,266.575l5.873,12.012
					c0,0,32.833,0.801,36.57,1.068c3.737,0.267,7.741,2.135,12.012,0c4.271-2.135,22.69-4.538,24.825-4.538s4.805,1.869,4.805,1.869
					s-4.805-12.012-6.673-13.08c-1.868-1.068-3.737-0.801-4.538-0.801C396.772,263.105,357.799,260.168,324.699,266.575z"/>
				<path style="fill:#FFFFFF;stroke:#263238;stroke-miterlimit:10;" d="M262.817,242.597c0,0-13.96-2.148-19.329-0.268
					c-5.369,1.879-2.685,9.128,6.443,15.839c9.128,6.712,16.645,13.155,26.041,14.229c9.396,1.074,25.504,4.564,26.31,1.611
					c0.805-2.953-2.148-13.692-12.886-21.477C278.656,244.745,262.817,242.597,262.817,242.597z"/>
				<path style="fill:#FFFFFF;stroke:#263238;stroke-miterlimit:10;" d="M375.032,227.293l-2.68,0.81c0,0-4.98,0.15-12.95,0.37
					c-6.83,0.2-15.85,0.45-25.82,0.71c-13.76,0.37-29.32,0.75-43.37,1.05c-21.48,0.45-39.46,0.68-42.16,0.28
					c-4.64-0.68-9.83-2.36-14.65-6.58c-2.71-2.36-5.31-5.53-7.63-9.79c-6.45-11.82-22.82-26.31-22.82-26.31
					c25.77-2.96,87.25-1.88,94.23-1.61c1.74,0.06,3.97,0.33,6.45,0.78c7.45,1.32,17.17,4.25,22.81,8.08c1,0.68,2.61,1.75,4.63,3.1
					c4.72,3.15,11.72,7.79,18.75,12.45c4.24,2.8,8.49,5.61,12.26,8.11C369.482,223.623,375.032,227.293,375.032,227.293z"/>
				<g>
					<path style="fill:#263238;stroke:#263238;stroke-miterlimit:10;" d="M326.442,195.083c1,0.68,2.61,1.75,4.63,3.1l-40.86,32.05
						c-21.48,0.45-39.46,0.68-42.16,0.28c-4.64-0.68-9.83-2.36-14.65-6.58l70.23-36.93
						C311.082,188.323,320.802,191.253,326.442,195.083z"/>
					<path style="fill:#263238;stroke:#263238;stroke-miterlimit:10;" d="M362.082,218.743l-2.68,9.73
						c-6.83,0.2-15.85,0.45-25.82,0.71l16.24-18.55C354.062,213.433,358.312,216.243,362.082,218.743z"/>
				</g>
				<path style="fill:none;stroke:#263238;stroke-miterlimit:10;" d="M317.166,258.543c1.636,1.656,3.215,3.409,4.713,5.263"/>
				<path style="fill:none;stroke:#263238;stroke-miterlimit:10;" d="M277.582,234.812c0,0,20.32,5.976,36.763,21.018"/>
				<path style="fill:none;stroke:#263238;stroke-miterlimit:10;" d="M407.727,263.332c2.03,3.825,3.651,8.091,4.624,12.823"/>
				<path style="fill:none;stroke:#263238;stroke-miterlimit:10;" d="M376.646,235.885c0,0,18,6.973,28.794,23.566"/>
				<path style="fill:#FFFFFF;stroke:#263238;stroke-miterlimit:10;" d="M293.69,308.102c0,3.114-3.005,5.638-6.712,5.638
					c-3.707,0-6.712-2.524-6.712-5.638c0-3.114,3.005-5.638,6.712-5.638C290.685,302.465,293.69,304.989,293.69,308.102z"/>
				<path style="fill:#FFFFFF;stroke:#263238;stroke-miterlimit:10;" d="M432.688,298.942c-0.567,2.684-2.38,4.573-4.048,4.221
					s-2.561-2.814-1.993-5.498c0.567-2.684,2.38-4.573,4.048-4.221C432.363,293.797,433.255,296.258,432.688,298.942z"/>
				<g>
					<path style="fill:#263238;stroke:#263238;stroke-miterlimit:10;" d="M202.054,231.031c0,0-5.575-9.39-9.096-9.977
						c-3.521-0.587-18.486-1.174-21.714,0.88c-3.228,2.054-2.347,8.803-1.174,10.564c1.174,1.76,5.869,2.641,9.977,2.347
						c4.108-0.293,17.899,0.88,17.899,0.88s8.216,5.869,11.15,5.282c2.934-0.587,6.749-7.042,4.108-10.564
						C210.564,226.923,206.456,227.804,202.054,231.031z"/>
					<line style="fill:none;stroke:#263238;stroke-miterlimit:10;" x1="202.054" y1="231.031" x2="211.738" y2="233.085"/>
				</g>
				<path style="fill:none;stroke:#263238;stroke-miterlimit:10;" d="M131.337,186.723c0,0-7.042,2.054-7.923,4.108
					c-0.88,2.054-1.467,3.521-1.467,3.521l-21.127,30.81c0,0-7.629-0.587-9.977,5.869c-2.348,6.456-1.467,15.258-1.467,15.258
					s-5.575,13.791-5.869,24.062c-0.294,10.27,0.88,17.899,0.88,17.899s-1.467-18.78,2.934-24.648
					c4.402-5.869,13.498-1.467,17.019,9.096c3.521,10.564,7.629,30.224,7.629,30.224l93.018,19.073c0,0-4.695-24.648,1.467-38.733
					c6.162-14.085,34.919-13.204,40.2,12.324c5.282,25.529,3.521,30.224,3.521,30.224s19.66,4.108,79.52,3.228
					c59.86-0.88,92.725-7.923,101.528-10.27c0,0,2.054-10.857,2.641-17.313c0.587-6.456-1.761-10.857-1.761-10.857
					s-0.587-11.737-2.054-15.845c-1.467-4.108-5.869-10.27-5.869-10.27s-4.402-10.27-11.737-16.726
					c-7.336-6.456-19.367-12.911-22.301-14.378c-2.934-1.467-6.749-2.347-12.324-6.162c-5.575-3.815-40.2-27.876-51.057-34.332
					c-10.857-6.455-34.332-9.683-39.027-10.563c-4.695-0.88-58.687-4.695-77.466-4.695S152.758,178.507,131.337,186.723z"/>
				<path style="fill:#FFFFFF;stroke:#263238;stroke-miterlimit:10;" d="M401.881,240.181c0,0-5.906,2.148-4.295,4.295
					c1.611,2.148,10.47,7.785,14.497,14.765c4.027,6.98,4.832,10.47,6.712,10.47c1.879,0,5.944-3.478,5.388-5.229
					C423.627,262.732,420.674,246.893,401.881,240.181z"/>
			</g>
			<g>
				<path style="fill:#263238;stroke:#263238;stroke-miterlimit:10;" d="M106.487,293.972c-0.061-2.886-0.357-5.635-0.84-8.134
					l-3.97,4.838c0.171,1.025,0.281,2.126,0.305,3.279c0.004,0.165,0,0.326,0,0.489l4.508,1.428
					C106.5,295.245,106.5,294.612,106.487,293.972z"/>
				<path style="fill:#263238;stroke:#263238;stroke-miterlimit:10;" d="M99.452,285.097c0.412,0.439,0.791,1.043,1.124,1.773
					l2.795-8.366c-0.971-2.066-2.118-3.627-3.367-4.517L99.452,285.097z"/>
				<path style="fill:#263238;stroke:#263238;stroke-miterlimit:10;" d="M101.415,299.401c-0.202,0.789-0.453,1.491-0.742,2.088
					l2.295,9.993c1.1-1.793,1.999-4.244,2.614-7.137L101.415,299.401z"/>
				<path style="fill:#263238;stroke:#263238;stroke-miterlimit:10;" d="M94.661,288.751l-4.048-5.478
					c-0.594,2.691-0.938,5.777-0.967,9.079l4.525,0.251C94.22,291.2,94.391,289.894,94.661,288.751z"/>
				<path style="fill:#263238;stroke:#263238;stroke-miterlimit:10;" d="M96.038,285.42c0.33-0.451,0.694-0.779,1.081-0.965
					l-0.662-11.106c-1.432,0.494-2.728,1.888-3.795,3.95L96.038,285.42z"/>
				<path style="fill:#263238;stroke:#263238;stroke-miterlimit:10;" d="M98.704,303.542c-0.141,0.038-0.284,0.061-0.43,0.06
					c-0.413-0.002-0.814-0.164-1.193-0.458l-2.219,9.571c1.12,1.286,2.357,2.011,3.648,2.016c0.352,0.001,0.698-0.057,1.036-0.16
					L98.704,303.542z"/>
				<path style="fill:#263238;stroke:#263238;stroke-miterlimit:10;" d="M94.628,298.068l-4.475,1.947
					c0.462,3.183,1.22,6.039,2.183,8.372l2.873-8.245C94.982,299.515,94.788,298.816,94.628,298.068z"/>
			</g>
		</g>
	</g>
</g>
<g id="Muffler">
	<g>
		<path style="fill:#FFFFFF;stroke:#263238;stroke-miterlimit:10;" d="M371.533,97.582l-18.744,9.805l-23.935,3.461
			c0,0-7.498,7.209,2.884,20.475s18.168,17.591,21.628,17.591c3.46,0,19.033-5.479,21.628-7.209
			c2.595-1.73,21.34-15.572,21.34-15.572s8.651,5.768,21.628-3.749c12.977-9.516,47.005-37.777,47.005-37.777
			s4.902-3.172,1.73-9.516c-3.172-6.344-12.112-12.689-18.456-14.996c-6.344-2.307-14.707,0.577-17.014,1.73
			s-52.484,24.512-52.484,24.512S369.802,89.508,371.533,97.582z"/>
		<path style="fill:none;stroke:#263238;stroke-miterlimit:10;" d="M414.855,118.135c-0.075,1.821-0.583,3.376-1.429,4.668"/>
		<path style="fill:none;stroke:#263238;stroke-miterlimit:10;" d="M381.109,87.001c0,0,14.416,0.475,24.238,11.881
			c4.726,5.488,7.471,10.17,8.713,14.062"/>
		<path style="fill:none;stroke:#263238;stroke-miterlimit:10;" d="M373.821,96.348l7.604-2.693c0,0,10.455,0.634,17.267,7.287
			c6.812,6.653,7.129,14.574,6.495,17.109l-7.129,6.178"/>
		<path style="fill:none;stroke:#263238;stroke-miterlimit:10;" d="M357.663,108.546c0,0,12.71,8.131,16.95,11.881
			c3.06,2.707,2.693,12.515,2.693,12.515"/>
		<path style="fill:#263238;stroke:#263238;stroke-miterlimit:10;" d="M329.151,114.145L329.151,114.145
			c-0.714,0.638-1.141,1.537-1.165,2.494c-0.052,2.095,0.237,6.087,2.52,10.727c3.373,6.854,18.278,17.734,20.563,18.605
			c2.285,0.87,3.808-0.544,4.461-4.134c0.653-3.59-2.648-13.442-5.875-16.429c-1.444-1.337-11.598-8.471-16.247-11.565
			C332.085,112.962,330.336,113.087,329.151,114.145z"/>
		<path style="fill:#263238;" d="M353.721,126.819l19.741-4.475l27.638-16.319c0,0,2.029-1.743-2.408-5.083
			c-4.436-3.34-6.279-4.13-6.279-4.13l-27.638,16.319l6.58,4.475l-22.373,5.001C348.983,122.607,352.669,125.503,353.721,126.819z"
			/>
		<path style="fill:#263238;" d="M466.696,75.089c-1.824-3.647-5.555-7.29-9.602-10.17c-0.73-0.121-1.414-0.133-2.035,0.044
			c-1.842,0.526-55.802,28.164-55.802,28.164c7.633,5.001,13.687,16.846,13.687,16.846S465.588,74.439,466.696,75.089z"/>
	</g>
</g>
<g id="Steering_Wheel">
	<g>
		<path style="fill:#263238;stroke:#263238;stroke-miterlimit:10;" d="M275.835,126.744c-3.81-1.472-4.692-6.747-4.692-6.747
			s1.464-9.085,6.739-12.903c5.283-3.81,9.384-4.102,11.73-4.102c1.076,0,2.701,1.411,4.148,2.951
			c0.935-4.936,0.855-10.047,0.08-15.791c-12.085,0.394-21.926-5.424-42.048-6.219c-16.714-0.653-32.444,5.779-39.253,9.038
			c-0.197,1.606-0.291,3.236-0.291,4.889c0,2.881,0.299,5.7,0.858,8.416c1.094-0.661,2.315-1.323,3.503-1.819
			c3.519-1.464,12.022,3.228,13.195,4.11c1.173,0.874,4.393,7.621,4.393,7.621s-3.22,6.157-8.203,7.33
			c-1.732,0.409-3.22,0.496-4.417,0.441c3.188,3.889,7.085,7.188,11.486,9.684c0.268-0.331,0.551-0.677,0.842-1.039
			c2.637-3.22,7.038-8.503,7.038-8.503s17.005,0.882,19.351,0.882c2.346,0,4.393,3.228,5.275,7.329
			c0.409,1.905,0.819,3.425,1.142,4.511c0,0,7.761-2.344,14.823-8.947C279.831,127.755,277.698,127.456,275.835,126.744z"/>
		<path style="fill:#205375;stroke:#263238;stroke-miterlimit:10;" d="M253.404,45.82c-28.742,0-52.041,23.3-52.041,52.041
			s23.3,52.041,52.041,52.041c28.742,0,52.041-23.3,52.041-52.041S282.145,45.82,253.404,45.82z M281.567,127.877
			c-4.212,3.96-9.266,7.038-14.856,8.944c-4.173,1.425-8.652,2.196-13.305,2.196c-7.4,0-14.344-1.952-20.343-5.377
			c-4.401-2.496-8.298-5.794-11.486-9.684c-4.133-5.039-7.093-11.069-8.471-17.682c-0.559-2.716-0.858-5.535-0.858-8.416
			c0-1.653,0.094-3.283,0.291-4.889c2.417-20.422,19.784-36.27,40.867-36.27c20.091,0,36.829,14.407,40.434,33.451
			c0.48,2.496,0.724,5.07,0.724,7.707c0,2.771-0.276,5.479-0.795,8.093C292.061,114.517,287.692,122.13,281.567,127.877z"/>
		<path style="fill:#FFFFFF;stroke:#263238;stroke-miterlimit:10;" d="M288.147,99.767c0,0,0.964-4.394-1.533-10.058
			c-9.304-1.333-18.806-5.144-34.822-5.777c-12.487-0.488-24.424,2.979-32.503,6.123c-1.017,1.095-2.317,2.664-2.974,4.142
			c-1.173,2.639,0.293,6.743,0.293,6.743l33.131,0.586L288.147,99.767z"/>
		<path style="fill:#CFCFCF;stroke:#263238;stroke-miterlimit:10;" d="M234.493,87.746c0,0-3.518,1.173-2.932,9.382
			c0.586,8.209,5.571,18.178,9.089,20.523c3.518,2.346,15.832,3.518,19.644,0.88c3.811-2.639,8.796-21.696,8.209-26.094
			c-0.586-4.398-2.932-4.984-5.864-5.571c-2.932-0.586-14.366-2.052-25.507-0.293C237.132,86.573,236.252,86.573,234.493,87.746z"/>
		<path style="fill:#FFFFFF;stroke:#263238;stroke-miterlimit:10;" d="M284.042,93.903c0,2.105-2.166,3.811-4.838,3.811
			c-2.672,0-4.838-1.706-4.838-3.811c0-2.105,2.166-3.812,4.838-3.812C281.876,90.092,284.042,91.798,284.042,93.903z"/>
		<path style="fill:#FFFFFF;stroke:#263238;stroke-miterlimit:10;" d="M228.293,93.556c0.279,2.087-1.643,4.065-4.291,4.418
			c-2.648,0.354-5.021-1.051-5.299-3.138c-0.279-2.087,1.643-4.065,4.291-4.418C225.642,90.065,228.015,91.47,228.293,93.556z"/>
	</g>
</g>
<g id="Tire">
	<g>
		<path style="fill:#263238;stroke:#263238;stroke-miterlimit:10;" d="M115.823,46.561H95.394v4.043
			c-19.448,8.031-33.139,27.176-33.139,49.524c0,22.349,13.69,41.493,33.139,49.524v4.043h20.429
			c29.585,0,53.567-23.983,53.567-53.567S145.408,46.561,115.823,46.561z"/>
		<g>
			<circle style="fill:#878787;stroke:#263238;stroke-miterlimit:10;" cx="95.394" cy="100.128" r="53.567"/>
			<circle style="fill:#205375;stroke:#263238;stroke-miterlimit:10;" cx="95.394" cy="100.128" r="46.229"/>
			<path style="fill:#263238;stroke:#263238;stroke-miterlimit:10;" d="M109.427,61.404l-4.423,20.815
				c-0.164,0.767,0.151,1.561,0.801,2.006c0.329,0.226,0.712,0.336,1.096,0.336c0.39,0,0.781-0.116,1.116-0.349l17.439-12.222
				C121.067,67.299,115.59,63.636,109.427,61.404z M134.426,86.957l-19.035,9.517c-0.705,0.349-1.13,1.096-1.068,1.876
				c0.062,0.808,0.609,1.493,1.383,1.719l20.438,6.025c0.288-1.945,0.431-3.937,0.431-5.964
				C136.576,95.522,135.822,91.092,134.426,86.957z M110.721,113.482c-0.719-0.329-1.561-0.199-2.136,0.335
				c-0.404,0.377-0.623,0.897-0.623,1.431c0,0.247,0.048,0.493,0.144,0.726l8.031,19.733c5.608-3.273,10.373-7.84,13.886-13.283
				L110.721,113.482z M94.508,120.438c-0.185-0.767-0.815-1.342-1.595-1.458c-0.096-0.014-0.199-0.021-0.294-0.021
				c-0.692,0-1.342,0.37-1.684,0.986l-10.421,18.589c4.615,1.794,9.634,2.773,14.878,2.773c1.404,0,2.794-0.068,4.163-0.205
				L94.508,120.438z M79.109,109.942c-0.349-0.609-0.993-0.972-1.677-0.972c-0.103,0-0.212,0.014-0.315,0.027l-21.034,3.444
				c1.965,6.272,5.389,11.9,9.873,16.481l13.009-16.823C79.445,111.476,79.506,110.62,79.109,109.942z M77.069,91.366l-15.803-14.29
				c-3.56,5.258-5.936,11.38-6.744,17.987l21.273-0.315c0.787-0.014,1.486-0.5,1.773-1.232c0.089-0.233,0.137-0.472,0.137-0.712
				C77.705,92.263,77.479,91.743,77.069,91.366z M73.871,65.019L87.38,81.445c0.377,0.459,0.931,0.712,1.5,0.712
				c0.192,0,0.383-0.027,0.568-0.089c0.774-0.233,1.315-0.924,1.369-1.732l1.315-21.26C85.47,59.596,79.26,61.698,73.871,65.019z"/>
			<circle style="fill:#205375;stroke:#263238;stroke-miterlimit:10;" cx="95.394" cy="100.128" r="6.798"/>
			<path style="fill:#263238;stroke:#263238;stroke-miterlimit:10;" d="M86.2,101.294c0-2.217-1.797-4.014-4.014-4.014
				c-2.217,0-4.014,1.797-4.014,4.014c0,2.217,1.797,4.014,4.014,4.014C84.403,105.308,86.2,103.511,86.2,101.294z"/>
			<path style="fill:#263238;stroke:#263238;stroke-miterlimit:10;" d="M94.164,88.862c0-2.217-1.797-4.014-4.014-4.014
				c-2.217,0-4.014,1.797-4.014,4.014c0,2.217,1.797,4.014,4.014,4.014C92.367,92.877,94.164,91.079,94.164,88.862z"/>
			<path style="fill:#263238;stroke:#263238;stroke-miterlimit:10;" d="M109.963,91.776c0-2.217-1.797-4.014-4.014-4.014
				c-2.217,0-4.014,1.797-4.014,4.014c0,2.217,1.797,4.014,4.014,4.014C108.165,95.79,109.963,93.993,109.963,91.776z"/>
			<path style="fill:#263238;stroke:#263238;stroke-miterlimit:10;" d="M110.545,106.538c0-2.217-1.797-4.014-4.014-4.014
				c-2.217,0-4.014,1.797-4.014,4.014c0,2.217,1.797,4.014,4.014,4.014C108.748,110.552,110.545,108.755,110.545,106.538z"/>
			<path style="fill:#263238;stroke:#263238;stroke-miterlimit:10;" d="M97.143,112.366c0-2.217-1.797-4.014-4.014-4.014
				c-2.217,0-4.014,1.797-4.014,4.014c0,2.217,1.797,4.014,4.014,4.014C95.345,116.38,97.143,114.582,97.143,112.366z"/>
		</g>
	</g>
</g>
</svg>
